<?xml version="1.0" encoding="utf-8"?>
<!-- Generator: Adobe Illustrator 19.1.0, SVG Export Plug-In . SVG Version: 6.00 Build 0)  -->
<svg version="1.1" id="Layer_1" xmlns="http://www.w3.org/2000/svg" xmlns:xlink="http://www.w3.org/1999/xlink" x="0px" y="0px"
	 viewBox="0 0 487.6 197.6" enable-background="new 0 0 487.6 197.6" xml:space="preserve">
<g>
	<path fill="#FFFFFF" d="M472.3,136.6c0,1.1-0.9,2-2,2h-93c-1.1,0-2-0.9-2-2v-102c0-1.1,0.9-2,2-2h93c1.1,0,2,0.9,2,2V136.6z"/>
	<path fill="none" stroke="#333333" stroke-width="3" stroke-miterlimit="10" d="M471.8,137.1c0,1.1-0.9,2-2,2h-93c-1.1,0-2-0.9-2-2
		v-102c0-1.1,0.9-2,2-2h93c1.1,0,2,0.9,2,2V137.1z"/>
</g>
<g>
	<path fill="#FFFFFF" d="M360.3,136.6c0,1.1-0.9,2-2,2h-93c-1.1,0-2-0.9-2-2v-102c0-1.1,0.9-2,2-2h93c1.1,0,2,0.9,2,2V136.6z"/>
	<path fill="none" stroke="#333333" stroke-width="3" stroke-miterlimit="10" d="M360.8,137.1c0,1.1-0.9,2-2,2h-93c-1.1,0-2-0.9-2-2
		v-102c0-1.1,0.9-2,2-2h93c1.1,0,2,0.9,2,2V137.1z"/>
</g>
<g opacity="0.7">
	<path fill="#CCCCCC" d="M484.3,124.6c0,1.1-0.9,2-2,2h-230c-1.1,0-2-0.9-2-2v-77c0-1.1,0.9-2,2-2h230c1.1,0,2,0.9,2,2V124.6z"/>
</g>
<g>
	<path fill="#C6DD9F" d="M210.3,157.6c0,1.1-0.9,2-2,2H7.3c-1.1,0-2-0.9-2-2V6.6c0-1.1,0.9-2,2-2h201c1.1,0,2,0.9,2,2V157.6z"/>
	<path fill="none" stroke="#333333" stroke-width="3" stroke-miterlimit="10" d="M210.8,158.1c0,1.1-0.9,2-2,2H7.8c-1.1,0-2-0.9-2-2
		V7.1c0-1.1,0.9-2,2-2h201c1.1,0,2,0.9,2,2V158.1z"/>
</g>
<text transform="matrix(1 0 0 1 264.9214 168.2586)"><tspan x="0" y="0" fill="#333333" font-family="'KievitOT-Bold'" font-size="20px">Data service nodes in</tspan><tspan x="0" y="24" fill="#333333" font-family="'KievitOT-Bold'" font-size="20px">a Couchbase cluster</tspan></text>
<g>
	<g>
		<path fill="#C6DD9F" stroke="#333333" stroke-width="2" stroke-miterlimit="10" d="M342.3,90c0-3.6-13.7-6.5-30.5-6.5
			c-16.8,0-30.5,2.9-30.5,6.5v19.5c0,3.6,13.7,6.5,30.5,6.5c16.8,0,30.5-2.9,30.5-6.5V90z"/>
		<g>
			<ellipse fill="#C6DD9F" cx="311.9" cy="90" rx="30" ry="6.5"/>
			<path fill="#333333" d="M343,90.1c0,0,0,0.1-0.1,0.4c-0.1,0.5-0.4,1-0.8,1.4c-0.8,0.9-2.2,1.6-3.9,2.2c-3.4,1.2-8.4,1.9-14.4,2.3
				c-3,0.2-6.2,0.3-9.6,0.3c-3.4,0-7,0-10.8-0.2c-3.7-0.1-7.6-0.4-11.5-1c-2-0.3-3.9-0.7-5.9-1.3c-1-0.3-2-0.7-2.9-1.2
				c-0.5-0.3-1-0.6-1.4-1.1c-0.2-0.2-0.4-0.5-0.6-0.8c-0.1-0.2-0.1-0.4-0.2-0.5c0-0.1,0-0.2-0.1-0.3l0-0.2l0-0.1c0-0.1,0,0.1,0-0.2
				c0-0.1,0-0.2,0.1-0.4c0.1-0.2,0.1-0.5,0.2-0.6c0.2-0.3,0.4-0.6,0.6-0.8c0.4-0.5,0.9-0.8,1.4-1.1c1-0.6,1.9-1,2.9-1.3
				c1.9-0.7,3.9-1.1,5.9-1.5c3.9-0.8,7.8-1.2,11.5-1.4c3.7-0.2,7.4-0.4,10.8-0.3c3.4,0.1,6.7,0.3,9.7,0.6c6,0.6,11,1.6,14.4,2.8
				c1.7,0.6,3,1.4,3.9,2.3c0.4,0.4,0.7,1,0.8,1.3C343,89.8,343,90,343,90L343,90.1z M341,90c0,0,0.1-0.1-0.3-0.6
				c-0.4-0.5-1.5-1.2-3.1-1.7c-3.1-1.1-8-2.1-13.8-2.6c-2.9-0.3-6.1-0.4-9.5-0.5c-3.4,0-7,0-10.6,0.2c-3.7,0.2-7.5,0.6-11.3,1.3
				c-1.9,0.4-3.8,0.8-5.6,1.4c-0.9,0.3-1.8,0.7-2.5,1.1c-0.4,0.2-0.7,0.5-1,0.7c-0.1,0.1-0.2,0.3-0.3,0.4c0,0.1,0,0,0,0
				c0,0.1,0,0.2,0,0.3c0-0.2,0-0.1,0-0.1l0,0l0,0c0,0,0,0,0,0.1c0,0,0,0.1,0.1,0.1c0.1,0.1,0.1,0.2,0.3,0.4c0.2,0.3,0.6,0.5,1,0.8
				c0.8,0.5,1.6,0.8,2.5,1.2c1.8,0.7,3.7,1.2,5.6,1.6c3.8,0.9,7.6,1.4,11.3,1.7c7.4,0.6,14.4,0.4,20.3-0.4
				c5.9-0.7,10.7-1.9,13.8-3.1c1.5-0.6,2.6-1.3,3.1-1.8c0.2-0.3,0.2-0.4,0.3-0.4c0-0.2,0-0.3,0-0.3L341,90z"/>
		</g>
	</g>
	<g>
		<path fill="#C6DD9F" stroke="#333333" stroke-width="2" stroke-miterlimit="10" d="M342.3,62c0-3.6-13.7-6.5-30.5-6.5
			c-16.8,0-30.5,2.9-30.5,6.5v19.5c0,3.6,13.7,6.5,30.5,6.5c16.8,0,30.5-2.9,30.5-6.5V62z"/>
		<g>
			<ellipse fill="#C6DD9F" cx="311.9" cy="62" rx="30" ry="6.5"/>
			<path fill="#333333" d="M343,62.1c0,0,0,0.1-0.1,0.4c-0.1,0.5-0.4,1-0.8,1.4c-0.8,0.9-2.2,1.6-3.9,2.2c-3.4,1.2-8.4,1.9-14.4,2.3
				c-3,0.2-6.2,0.3-9.6,0.3c-3.4,0-7,0-10.8-0.2c-3.7-0.1-7.6-0.4-11.5-1c-2-0.3-3.9-0.7-5.9-1.3c-1-0.3-2-0.7-2.9-1.2
				c-0.5-0.3-1-0.6-1.4-1.1c-0.4-0.4-0.9-1.1-0.9-2l0-0.2l0-0.1c0-0.1,0-0.1,0-0.2c0.1-0.2,0.1-0.5,0.2-0.6c0.2-0.3,0.4-0.6,0.6-0.8
				c0.4-0.5,0.9-0.8,1.4-1.1c1-0.6,1.9-1,2.9-1.3c1.9-0.7,3.9-1.1,5.9-1.5c3.9-0.8,7.8-1.2,11.5-1.4c3.7-0.2,7.4-0.4,10.8-0.3
				c3.4,0.1,6.7,0.3,9.7,0.6c6,0.6,11,1.6,14.4,2.8c1.7,0.6,3,1.4,3.9,2.3c0.4,0.4,0.7,1,0.8,1.3C343,61.8,343,62,343,62L343,62.1z
				 M341,62c0,0,0.1-0.1-0.3-0.6c-0.4-0.5-1.5-1.2-3.1-1.7c-3.1-1.1-8-2.1-13.8-2.6c-2.9-0.3-6.1-0.4-9.5-0.5c-3.4,0-7,0-10.6,0.2
				c-3.7,0.2-7.5,0.6-11.3,1.3c-1.9,0.4-3.8,0.8-5.6,1.4c-0.9,0.3-1.8,0.7-2.5,1.1c-0.4,0.2-0.7,0.5-1,0.7c-0.1,0.1-0.2,0.3-0.3,0.4
				c0,0.1,0,0,0,0c0,0,0,0.1,0,0.2l0,0.1l0,0c0,0,0,0.1,0-0.1c0,0.1,0.1,0.4,0.3,0.6c0.2,0.3,0.6,0.5,1,0.8c0.8,0.5,1.6,0.8,2.5,1.2
				c1.8,0.7,3.7,1.2,5.6,1.6c3.8,0.9,7.6,1.4,11.3,1.7c7.4,0.6,14.4,0.4,20.3-0.4c5.9-0.7,10.7-1.9,13.8-3.1
				c1.5-0.6,2.6-1.3,3.1-1.8c0.2-0.3,0.2-0.4,0.3-0.4c0-0.2,0-0.3,0-0.3L341,62z"/>
		</g>
	</g>
</g>
<text transform="matrix(1 0 0 1 264.9213 17.8138)" fill="#333333" font-family="'KievitOT-Bold'" font-size="18px">Application-data bucket</text>
<g>
	<g>
		<path fill="#C6DD9F" stroke="#333333" stroke-width="2" stroke-miterlimit="10" d="M453.3,90c0-3.6-13.7-6.5-30.5-6.5
			c-16.8,0-30.5,2.9-30.5,6.5v19.5c0,3.6,13.7,6.5,30.5,6.5c16.8,0,30.5-2.9,30.5-6.5V90z"/>
		<g>
			<ellipse fill="#C6DD9F" cx="423.4" cy="90" rx="30" ry="6.5"/>
			<path fill="#333333" d="M454.5,90.1c0,0,0,0.1-0.1,0.4c-0.1,0.5-0.4,1-0.8,1.4c-0.8,0.9-2.2,1.6-3.9,2.2
				c-3.4,1.2-8.4,1.9-14.4,2.3c-3,0.2-6.2,0.3-9.6,0.3c-3.4,0-7,0-10.8-0.2c-3.7-0.1-7.6-0.4-11.5-1c-2-0.3-3.9-0.7-5.9-1.3
				c-1-0.3-2-0.7-2.9-1.2c-0.5-0.3-1-0.6-1.4-1.1c-0.2-0.2-0.4-0.5-0.6-0.8c-0.1-0.2-0.1-0.4-0.2-0.5c0-0.1,0-0.2-0.1-0.3l0-0.2
				l0-0.1c0-0.1,0,0.1,0-0.2c0-0.1,0-0.2,0.1-0.4c0.1-0.2,0.1-0.5,0.2-0.6c0.2-0.3,0.4-0.6,0.6-0.8c0.4-0.5,0.9-0.8,1.4-1.1
				c1-0.6,1.9-1,2.9-1.3c1.9-0.7,3.9-1.1,5.9-1.5c3.9-0.8,7.8-1.2,11.5-1.4c3.7-0.2,7.4-0.4,10.8-0.3c3.4,0.1,6.7,0.3,9.7,0.6
				c6,0.6,11,1.6,14.4,2.8c1.7,0.6,3,1.4,3.9,2.3c0.4,0.4,0.7,1,0.8,1.3c0.1,0.4,0.1,0.6,0.1,0.6L454.5,90.1z M452.5,90
				c0,0,0.1-0.1-0.3-0.6c-0.4-0.5-1.5-1.2-3.1-1.7c-3.1-1.1-8-2.1-13.8-2.6c-2.9-0.3-6.1-0.4-9.5-0.5c-3.4,0-7,0-10.6,0.2
				c-3.7,0.2-7.5,0.6-11.3,1.3c-1.9,0.4-3.8,0.8-5.6,1.4c-0.9,0.3-1.8,0.7-2.5,1.1c-0.4,0.2-0.7,0.5-1,0.7c-0.1,0.1-0.2,0.3-0.3,0.4
				c0,0.1,0,0,0,0c0,0.1,0,0.2,0,0.3c0-0.2,0-0.1,0-0.1l0,0l0,0c0,0,0,0,0,0.1c0,0,0,0.1,0.1,0.1c0.1,0.1,0.1,0.2,0.3,0.4
				c0.2,0.3,0.6,0.5,1,0.8c0.8,0.5,1.6,0.8,2.5,1.2c1.8,0.7,3.7,1.2,5.6,1.6c3.8,0.9,7.6,1.4,11.3,1.7c7.4,0.6,14.4,0.4,20.3-0.4
				c5.9-0.7,10.7-1.9,13.8-3.1c1.5-0.6,2.6-1.3,3.1-1.8c0.2-0.3,0.2-0.4,0.3-0.4c0-0.2,0-0.3,0-0.3L452.5,90z"/>
		</g>
	</g>
	<g>
		<path fill="#C6DD9F" stroke="#333333" stroke-width="2" stroke-miterlimit="10" d="M453.3,62c0-3.6-13.7-6.5-30.5-6.5
			c-16.8,0-30.5,2.9-30.5,6.5v19.5c0,3.6,13.7,6.5,30.5,6.5c16.8,0,30.5-2.9,30.5-6.5V62z"/>
		<g>
			<ellipse fill="#C6DD9F" cx="423.4" cy="62" rx="30" ry="6.5"/>
			<path fill="#333333" d="M454.5,62.1c0,0,0,0.1-0.1,0.4c-0.1,0.5-0.4,1-0.8,1.4c-0.8,0.9-2.2,1.6-3.9,2.2
				c-3.4,1.2-8.4,1.9-14.4,2.3c-3,0.2-6.2,0.3-9.6,0.3c-3.4,0-7,0-10.8-0.2c-3.7-0.1-7.6-0.4-11.5-1c-2-0.3-3.9-0.7-5.9-1.3
				c-1-0.3-2-0.7-2.9-1.2c-0.5-0.3-1-0.6-1.4-1.1c-0.4-0.4-0.9-1.1-0.9-2l0-0.2l0-0.1c0-0.1,0-0.1,0-0.2c0.1-0.2,0.1-0.5,0.2-0.6
				c0.2-0.3,0.4-0.6,0.6-0.8c0.4-0.5,0.9-0.8,1.4-1.1c1-0.6,1.9-1,2.9-1.3c1.9-0.7,3.9-1.1,5.9-1.5c3.9-0.8,7.8-1.2,11.5-1.4
				c3.7-0.2,7.4-0.4,10.8-0.3c3.4,0.1,6.7,0.3,9.7,0.6c6,0.6,11,1.6,14.4,2.8c1.7,0.6,3,1.4,3.9,2.3c0.4,0.4,0.7,1,0.8,1.3
				c0.1,0.4,0.1,0.6,0.1,0.6L454.5,62.1z M452.5,62c0,0,0.1-0.1-0.3-0.6c-0.4-0.5-1.5-1.2-3.1-1.7c-3.1-1.1-8-2.1-13.8-2.6
				c-2.9-0.3-6.1-0.4-9.5-0.5c-3.4,0-7,0-10.6,0.2c-3.7,0.2-7.5,0.6-11.3,1.3c-1.9,0.4-3.8,0.8-5.6,1.4c-0.9,0.3-1.8,0.7-2.5,1.1
				c-0.4,0.2-0.7,0.5-1,0.7c-0.1,0.1-0.2,0.3-0.3,0.4c0,0.1,0,0,0,0c0,0,0,0.1,0,0.2l0,0.1l0,0c0,0,0,0.1,0-0.1
				c0,0.1,0.1,0.4,0.3,0.6c0.2,0.3,0.6,0.5,1,0.8c0.8,0.5,1.6,0.8,2.5,1.2c1.8,0.7,3.7,1.2,5.6,1.6c3.8,0.9,7.6,1.4,11.3,1.7
				c7.4,0.6,14.4,0.4,20.3-0.4c5.9-0.7,10.7-1.9,13.8-3.1c1.5-0.6,2.6-1.3,3.1-1.8c0.2-0.3,0.2-0.4,0.3-0.4c0-0.2,0-0.3,0-0.3
				L452.5,62z"/>
		</g>
	</g>
</g>
<g>
	<g>
		<circle fill="#FF8900" cx="173.3" cy="58" r="18.8"/>
	</g>
	<text transform="matrix(1 0 0 1 166.9945 66.1651)" fill="#FFFFFF" font-family="'KievitOT-Bold'" font-size="36px">1</text>
</g>
<text transform="matrix(1 0 0 1 20.9573 33.9431)" fill="#333333" font-family="'KievitOT-Bold'" font-size="22px">Sync Gateway</text>
<g>
	<g>
		<line fill="none" stroke="#000000" stroke-width="2" stroke-miterlimit="10" x1="240.1" y1="58.8" x2="222" y2="58.8"/>
		<g>
			<polygon points="251.3,58.8 235.4,52.3 239.2,58.8 235.4,65.3 			"/>
		</g>
		<g>
			<polygon points="210.7,58.8 226.6,52.3 222.8,58.8 226.6,65.3 			"/>
		</g>
	</g>
</g>
<g>
	<g>
		<circle fill="#FF8900" cx="35.3" cy="116" r="18.8"/>
	</g>
	<text transform="matrix(1 0 0 1 25.9419 124.226)" fill="#FFFFFF" font-family="'KievitOT-Bold'" font-size="36px">2</text>
</g>
<g>
	<g>
		<path fill="#EBAAAB" d="M196.3,146.6c0,1.1-0.9,2-2,2h-95c-1.1,0-2-0.9-2-2v-56c0-1.1,0.9-2,2-2h95c1.1,0,2,0.9,2,2V146.6z"/>
		<path fill="none" stroke="#333333" stroke-width="2" stroke-miterlimit="10" d="M196.3,146.6c0,1.1-0.9,2-2,2h-95
			c-1.1,0-2-0.9-2-2v-56c0-1.1,0.9-2,2-2h95c1.1,0,2,0.9,2,2V146.6z"/>
	</g>
	<text transform="matrix(1 0 0 1 107.9071 112.7741)"><tspan x="0" y="0" fill="#333333" font-family="'KievitOT-Bold'" font-size="22px">Channel</tspan><tspan x="0" y="26.4" fill="#333333" font-family="'KievitOT-Bold'" font-size="22px">cache</tspan></text>
</g>
<g>
	<g>
		<g>
			<line fill="none" stroke="#00737D" stroke-width="2" stroke-miterlimit="10" x1="96.8" y1="125" x2="76.1" y2="125"/>
			<g>
				<polygon fill="#00737D" points="64.8,125 80.7,118.5 76.9,125 80.7,131.5 				"/>
			</g>
		</g>
	</g>
	<g>
		<g>
			<line fill="none" stroke="#451F95" stroke-width="2" stroke-miterlimit="10" x1="85.4" y1="109" x2="64.8" y2="109"/>
			<g>
				<polygon fill="#451F95" points="96.7,109 80.7,102.5 84.5,109 80.7,115.5 				"/>
			</g>
		</g>
	</g>
</g>
<g>
	<g>
		<circle fill="#FF8900" cx="368.3" cy="88.9" r="18.8"/>
	</g>
	<text transform="matrix(1 0 0 1 360.9716 94.1021)" fill="#FFFFFF" font-family="'KievitOT-Bold'" font-size="36px">3</text>
</g>
<g>
	<g>
		<line fill="none" stroke="#000000" stroke-width="2" stroke-miterlimit="10" x1="440.9" y1="22" x2="441.6" y2="23.4"/>
		
			<line fill="none" stroke="#000000" stroke-width="2" stroke-miterlimit="10" stroke-dasharray="2.8995,2.8995" x1="442.9" y1="26" x2="457.8" y2="55.8"/>
		<line fill="none" stroke="#000000" stroke-width="2" stroke-miterlimit="10" x1="458.4" y1="57.1" x2="459.1" y2="58.4"/>
	</g>
</g>
</svg>
