<?xml version="1.0" encoding="utf-8"?>
<!-- Generator: Adobe Illustrator 19.1.0, SVG Export Plug-In . SVG Version: 6.00 Build 0)  -->
<svg version="1.1" id="Layer_1" xmlns="http://www.w3.org/2000/svg" xmlns:xlink="http://www.w3.org/1999/xlink" x="0px" y="0px"
	 viewBox="0 0 456.5 422.5" enable-background="new 0 0 456.5 422.5" xml:space="preserve">
<g>
	<path fill="#DAD2EA" d="M205.1,212c0,1.1-0.9,2-2,2H9.1c-1.1,0-2-0.9-2-2V6c0-1.1,0.9-2,2-2h194c1.1,0,2,0.9,2,2V212z"/>
	<path fill="none" stroke="#333333" stroke-width="2" stroke-miterlimit="10" d="M205.1,212c0,1.1-0.9,2-2,2H9.1c-1.1,0-2-0.9-2-2V6
		c0-1.1,0.9-2,2-2h194c1.1,0,2,0.9,2,2V212z"/>
</g>
<g>
	<path fill="#EBAAAB" d="M67.1,72c0,1.1-0.9,2-2,2h-46c-1.1,0-2-0.9-2-2V46c0-1.1,0.9-2,2-2h46c1.1,0,2,0.9,2,2V72z"/>
	<path fill="none" stroke="#333333" stroke-width="2" stroke-miterlimit="10" d="M67.1,72c0,1.1-0.9,2-2,2h-46c-1.1,0-2-0.9-2-2V46
		c0-1.1,0.9-2,2-2h46c1.1,0,2,0.9,2,2V72z"/>
</g>
<text transform="matrix(1 0 0 1 23.2736 64.2939)" fill="#333333" font-family="'KievitOT-Bold'" font-size="18px">SG 1</text>
<g>
	<path fill="#C6DD9F" stroke="#333333" stroke-width="2" stroke-miterlimit="10" d="M188.1,46c0-4.4-13.7-8-30.5-8s-30.5,3.6-30.5,8
		v23.9c0,4.4,13.7,8,30.5,8s30.5-3.6,30.5-8V46z"/>
	<g>
		<ellipse fill="#C6DD9F" cx="157.6" cy="46" rx="30" ry="8"/>
		<path fill="#333333" d="M188.6,46.1c0,0,0,0.1,0,0.4c0,0.1-0.1,0.4-0.2,0.7c-0.1,0.2-0.2,0.5-0.4,0.7c-0.7,1-2,2-3.7,2.8
			c-1.7,0.8-3.8,1.4-6.3,1.9c-2.5,0.5-5.2,0.9-8.3,1.2c-3,0.3-6.3,0.4-9.8,0.5c-3.5,0-7.2,0-11-0.2c-3.8-0.2-7.7-0.6-11.7-1.4
			c-2-0.4-4-0.9-5.9-1.7c-1-0.4-1.9-0.9-2.8-1.6c-0.5-0.3-0.9-0.8-1.3-1.3c-0.4-0.5-0.7-1.2-0.7-2l0-0.5c0-0.2,0.1-0.4,0.1-0.6
			c0.1-0.4,0.3-0.7,0.5-0.9c0.4-0.5,0.8-1,1.2-1.3c0.9-0.7,1.9-1.2,2.8-1.7c1.9-0.9,3.9-1.5,5.9-2c4-1,7.9-1.5,11.7-1.8
			c3.8-0.3,7.5-0.4,11.1-0.3c3.5,0.1,6.8,0.3,9.9,0.7c6.1,0.7,11.2,2,14.5,3.6c1.7,0.8,3,1.8,3.6,2.8c0.2,0.2,0.3,0.5,0.4,0.7
			c0.1,0.2,0.1,0.5,0.2,0.6C188.6,45.8,188.6,46,188.6,46.1L188.6,46.1z M186.6,46c0,0,0.1-0.3-0.3-0.8c-0.3-0.6-1.3-1.4-2.8-2.1
			c-3-1.4-7.9-2.6-13.9-3.3c-3-0.3-6.2-0.5-9.7-0.6c-3.5,0-7.1,0-10.8,0.3c-3.7,0.3-7.6,0.8-11.4,1.7c-1.9,0.5-3.8,1-5.5,1.8
			c-0.9,0.4-1.7,0.8-2.4,1.4c-0.3,0.3-0.6,0.6-0.8,0.9c-0.1,0.1-0.2,0.3-0.2,0.4c0,0.1,0,0.1-0.1,0.1l0,0.2l0,0.1l0,0c0,0,0,0.1,0,0
			c0,0.5,0.4,1.2,1.1,1.8c0.7,0.6,1.5,1,2.4,1.5c1.7,0.8,3.6,1.4,5.5,2c3.8,1,7.7,1.7,11.4,2.1c7.5,0.7,14.7,0.5,20.7-0.5
			c6-0.9,10.9-2.3,13.9-3.8c1.5-0.8,2.5-1.6,2.8-2.2c0.1-0.1,0.1-0.3,0.2-0.4c0-0.1,0-0.1,0.1-0.2C186.6,46,186.6,45.9,186.6,46
			L186.6,46z"/>
	</g>
</g>
<text transform="matrix(1 0 0 1 139.4003 71.4376)" fill="#333333" font-family="'KievitOT-Bold'" font-size="18px">DB A</text>
<g>
	<path fill="#EBAAAB" d="M67.1,124c0,1.1-0.9,2-2,2h-46c-1.1,0-2-0.9-2-2V98c0-1.1,0.9-2,2-2h46c1.1,0,2,0.9,2,2V124z"/>
	<path fill="none" stroke="#333333" stroke-width="2" stroke-miterlimit="10" d="M67.1,124c0,1.1-0.9,2-2,2h-46c-1.1,0-2-0.9-2-2V98
		c0-1.1,0.9-2,2-2h46c1.1,0,2,0.9,2,2V124z"/>
</g>
<text transform="matrix(1 0 0 1 23.2736 115.8772)" fill="#333333" font-family="'KievitOT-Bold'" font-size="18px">SG 2</text>
<g>
	<path fill="#C6DD9F" stroke="#333333" stroke-width="2" stroke-miterlimit="10" d="M188.1,97.6c0-4.4-13.7-8-30.5-8
		s-30.5,3.6-30.5,8v23.9c0,4.4,13.7,8,30.5,8s30.5-3.6,30.5-8V97.6z"/>
	<g>
		<ellipse fill="#C6DD9F" cx="157.6" cy="97.6" rx="30" ry="8"/>
		<path fill="#333333" d="M188.6,97.7c0,0,0,0.1,0,0.4c0,0.1-0.1,0.4-0.2,0.7c-0.1,0.2-0.2,0.5-0.4,0.7c-0.7,1-2,2-3.7,2.8
			c-1.7,0.8-3.8,1.4-6.3,1.9c-2.5,0.5-5.2,0.9-8.3,1.2c-3,0.3-6.3,0.4-9.8,0.5c-3.5,0-7.2,0-11-0.2c-3.8-0.2-7.7-0.6-11.7-1.4
			c-2-0.4-4-0.9-5.9-1.7c-1-0.4-1.9-0.9-2.8-1.6c-0.5-0.3-0.9-0.8-1.3-1.3c-0.2-0.3-0.3-0.6-0.5-0.9c-0.1-0.2-0.1-0.3-0.1-0.5l0-0.3
			l0-0.1l0-0.1c0-0.1,0,0,0-0.2l0-0.4c0-0.2,0.1-0.4,0.1-0.6c0.1-0.4,0.3-0.7,0.5-0.9c0.4-0.5,0.8-1,1.2-1.3
			c0.9-0.7,1.9-1.2,2.8-1.7c1.9-0.9,3.9-1.5,5.9-2c4-1,7.9-1.5,11.7-1.8c3.8-0.3,7.5-0.4,11.1-0.3c3.5,0.1,6.8,0.3,9.9,0.7
			c6.1,0.7,11.2,2,14.5,3.6c1.7,0.8,3,1.8,3.6,2.8c0.2,0.2,0.3,0.5,0.4,0.7c0.1,0.2,0.1,0.5,0.2,0.6
			C188.6,97.4,188.6,97.6,188.6,97.7L188.6,97.7z M186.6,97.6c0,0,0.1-0.3-0.3-0.8c-0.3-0.6-1.3-1.4-2.8-2.1
			c-3-1.4-7.9-2.6-13.9-3.3c-3-0.3-6.2-0.5-9.7-0.6c-3.5,0-7.1,0-10.8,0.3c-3.7,0.3-7.6,0.8-11.4,1.7c-1.9,0.5-3.8,1-5.5,1.8
			c-0.9,0.4-1.7,0.8-2.4,1.4c-0.3,0.3-0.6,0.6-0.8,0.9c-0.1,0.1-0.2,0.3-0.2,0.4c0,0.1,0,0.1-0.1,0.1l0,0.4c0-0.2,0,0,0-0.1l0,0
			l0,0.1l0,0.1l0.1,0.2c0.1,0.1,0.1,0.3,0.2,0.5c0.2,0.3,0.5,0.6,0.8,0.9c0.7,0.6,1.5,1,2.4,1.5c1.7,0.8,3.6,1.4,5.5,2
			c3.8,1,7.7,1.7,11.4,2.1c7.5,0.7,14.7,0.5,20.7-0.5c6-0.9,10.9-2.3,13.9-3.8c1.5-0.8,2.5-1.6,2.8-2.2c0.1-0.1,0.1-0.3,0.2-0.4
			c0-0.1,0-0.1,0.1-0.2C186.6,97.6,186.6,97.5,186.6,97.6L186.6,97.6z"/>
	</g>
</g>
<text transform="matrix(1 0 0 1 139.4003 123.0209)" fill="#333333" font-family="'KievitOT-Bold'" font-size="18px">DB B</text>
<g>
	<path fill="#EBAAAB" d="M67.1,175c0,1.1-0.9,2-2,2h-46c-1.1,0-2-0.9-2-2v-26c0-1.1,0.9-2,2-2h46c1.1,0,2,0.9,2,2V175z"/>
	<path fill="none" stroke="#333333" stroke-width="2" stroke-miterlimit="10" d="M67.1,175c0,1.1-0.9,2-2,2h-46c-1.1,0-2-0.9-2-2
		v-26c0-1.1,0.9-2,2-2h46c1.1,0,2,0.9,2,2V175z"/>
</g>
<text transform="matrix(1 0 0 1 23.2736 167.4606)" fill="#333333" font-family="'KievitOT-Bold'" font-size="18px">SG 3</text>
<g>
	<path fill="#C6DD9F" stroke="#333333" stroke-width="2" stroke-miterlimit="10" d="M188.1,149.2c0-4.4-13.7-8-30.5-8
		s-30.5,3.6-30.5,8v23.9c0,4.4,13.7,8,30.5,8s30.5-3.6,30.5-8V149.2z"/>
	<g>
		<ellipse fill="#C6DD9F" cx="157.6" cy="149.2" rx="30" ry="8"/>
		<path fill="#333333" d="M188.6,149.3c0,0,0,0.1,0,0.4c0,0.1-0.1,0.4-0.2,0.7c-0.1,0.2-0.2,0.5-0.4,0.7c-0.7,1-2,2-3.7,2.8
			c-1.7,0.8-3.8,1.4-6.3,1.9c-2.5,0.5-5.2,0.9-8.3,1.2c-3,0.3-6.3,0.4-9.8,0.5c-3.5,0-7.2,0-11-0.2c-3.8-0.2-7.7-0.6-11.7-1.4
			c-2-0.4-4-0.9-5.9-1.7c-1-0.4-1.9-0.9-2.8-1.6c-0.5-0.3-0.9-0.8-1.3-1.3c-0.2-0.3-0.3-0.6-0.5-0.9c-0.1-0.2-0.1-0.3-0.1-0.5l0-0.3
			l0-0.1l0-0.1c0-0.1,0,0,0-0.2l0-0.4c0-0.2,0.1-0.4,0.1-0.6c0.1-0.4,0.3-0.7,0.5-0.9c0.4-0.5,0.8-1,1.2-1.3
			c0.9-0.7,1.9-1.2,2.8-1.7c1.9-0.9,3.9-1.5,5.9-2c4-1,7.9-1.5,11.7-1.8c3.8-0.3,7.5-0.4,11.1-0.3c3.5,0.1,6.8,0.3,9.9,0.7
			c6.1,0.7,11.2,2,14.5,3.6c1.7,0.8,3,1.8,3.6,2.8c0.2,0.2,0.3,0.5,0.4,0.7c0.1,0.2,0.1,0.5,0.2,0.6
			C188.6,149,188.6,149.2,188.6,149.3L188.6,149.3z M186.6,149.2c0,0,0.1-0.3-0.3-0.8c-0.3-0.6-1.3-1.4-2.8-2.1
			c-3-1.4-7.9-2.6-13.9-3.3c-3-0.3-6.2-0.5-9.7-0.6c-3.5,0-7.1,0-10.8,0.3c-3.7,0.3-7.6,0.8-11.4,1.7c-1.9,0.5-3.8,1-5.5,1.8
			c-0.9,0.4-1.7,0.8-2.4,1.4c-0.3,0.3-0.6,0.6-0.8,0.9c-0.1,0.1-0.2,0.3-0.2,0.4c0,0.1,0,0.1-0.1,0.1l0,0.4c0-0.2,0,0,0-0.1l0,0
			l0,0.1l0,0.1l0.1,0.2c0.1,0.1,0.1,0.3,0.2,0.5c0.2,0.3,0.5,0.6,0.8,0.9c0.7,0.6,1.5,1,2.4,1.5c1.7,0.8,3.6,1.4,5.5,2
			c3.8,1,7.7,1.7,11.4,2.1c7.5,0.7,14.7,0.5,20.7-0.5c6-0.9,10.9-2.3,13.9-3.8c1.5-0.8,2.5-1.6,2.8-2.2c0.1-0.1,0.1-0.3,0.2-0.4
			c0-0.1,0-0.1,0.1-0.2C186.6,149.2,186.6,149.1,186.6,149.2L186.6,149.2z"/>
	</g>
</g>
<text transform="matrix(1 0 0 1 139.4003 174.6042)" fill="#333333" font-family="'KievitOT-Bold'" font-size="18px">DB C</text>
<line opacity="0.97" fill="none" stroke="#000000" stroke-width="2" stroke-miterlimit="10" x1="127.4" y1="59.2" x2="68.4" y2="59.2"/>
<line opacity="0.97" fill="none" stroke="#000000" stroke-width="2" stroke-miterlimit="10" x1="127.4" y1="111.6" x2="68.4" y2="111.6"/>
<line opacity="0.97" fill="none" stroke="#000000" stroke-width="2" stroke-miterlimit="10" x1="126.3" y1="161.9" x2="67.3" y2="161.9"/>
<line opacity="0.97" fill="none" stroke="#000000" stroke-width="2" stroke-miterlimit="10" x1="125.6" y1="60" x2="67.7" y2="112.2"/>
<line opacity="0.97" fill="none" stroke="#000000" stroke-width="2" stroke-miterlimit="10" x1="126.9" y1="112.8" x2="66.3" y2="160.7"/>
<line opacity="0.97" fill="none" stroke="#000000" stroke-width="2" stroke-miterlimit="10" x1="67.9" y1="59.6" x2="126.8" y2="162.2"/>
<g>
	<path fill="#99E3E5" d="M424.1,212c0,1.1-0.9,2-2,2h-194c-1.1,0-2-0.9-2-2V6c0-1.1,0.9-2,2-2h194c1.1,0,2,0.9,2,2V212z"/>
	<path fill="none" stroke="#333333" stroke-width="2" stroke-miterlimit="10" d="M424.1,212c0,1.1-0.9,2-2,2h-194c-1.1,0-2-0.9-2-2
		V6c0-1.1,0.9-2,2-2h194c1.1,0,2,0.9,2,2V212z"/>
</g>
<g>
	<path fill="#EBAAAB" d="M289.1,72c0,1.1-0.9,2-2,2h-46c-1.1,0-2-0.9-2-2V46c0-1.1,0.9-2,2-2h46c1.1,0,2,0.9,2,2V72z"/>
	<path fill="none" stroke="#333333" stroke-width="2" stroke-miterlimit="10" d="M289.1,72c0,1.1-0.9,2-2,2h-46c-1.1,0-2-0.9-2-2V46
		c0-1.1,0.9-2,2-2h46c1.1,0,2,0.9,2,2V72z"/>
</g>
<text transform="matrix(1 0 0 1 245.8508 64.2939)" fill="#333333" font-family="'KievitOT-Bold'" font-size="18px">SG 4</text>
<path fill="#C6DD9F" stroke="#333333" stroke-width="2" stroke-miterlimit="10" d="M411.1,46c0-4.4-13.7-8-30.5-8
	c-16.8,0-30.5,3.6-30.5,8v23.9c0,4.4,13.7,8,30.5,8c16.8,0,30.5-3.6,30.5-8V46z"/>
<g>
	<ellipse fill="#C6DD9F" cx="380.2" cy="46" rx="30" ry="8"/>
	<path fill="#333333" d="M411.2,46.1c0,0,0,0.1,0,0.4c0,0.1-0.1,0.4-0.2,0.7c-0.1,0.2-0.2,0.5-0.4,0.7c-0.7,1-2,2-3.7,2.8
		c-1.7,0.8-3.8,1.4-6.3,1.9c-2.5,0.5-5.2,0.9-8.3,1.2c-3,0.3-6.3,0.4-9.8,0.5c-3.5,0-7.2,0-11-0.2c-3.8-0.2-7.7-0.6-11.7-1.4
		c-2-0.4-4-0.9-5.9-1.7c-1-0.4-1.9-0.9-2.8-1.6c-0.5-0.3-0.9-0.8-1.3-1.3c-0.4-0.5-0.7-1.2-0.7-2l0-0.5c0-0.2,0.1-0.4,0.1-0.6
		c0.1-0.4,0.3-0.7,0.5-0.9c0.4-0.5,0.8-1,1.2-1.3c0.9-0.7,1.9-1.2,2.8-1.7c1.9-0.9,3.9-1.5,5.9-2c4-1,7.9-1.5,11.7-1.8
		c3.8-0.3,7.5-0.4,11.1-0.3c3.5,0.1,6.8,0.3,9.9,0.7c6.1,0.7,11.2,2,14.5,3.6c1.7,0.8,3,1.8,3.6,2.8c0.2,0.2,0.3,0.5,0.4,0.7
		c0.1,0.2,0.1,0.5,0.2,0.6C411.2,45.8,411.2,46,411.2,46.1L411.2,46.1z M409.2,46c0,0,0.1-0.3-0.3-0.8c-0.3-0.6-1.3-1.4-2.8-2.1
		c-3-1.4-7.9-2.6-13.9-3.3c-3-0.3-6.2-0.5-9.7-0.6c-3.5,0-7.1,0-10.8,0.3c-3.7,0.3-7.6,0.8-11.4,1.7c-1.9,0.5-3.8,1-5.5,1.8
		c-0.9,0.4-1.7,0.8-2.4,1.4c-0.3,0.3-0.6,0.6-0.8,0.9c-0.1,0.1-0.2,0.3-0.2,0.4c0,0.1,0,0.1-0.1,0.1l0,0.2l0,0.1l0,0c0,0,0,0.1,0,0
		c0,0.5,0.4,1.2,1.1,1.8c0.7,0.6,1.5,1,2.4,1.5c1.7,0.8,3.6,1.4,5.5,2c3.8,1,7.7,1.7,11.4,2.1c7.5,0.7,14.7,0.5,20.7-0.5
		c6-0.9,10.9-2.3,13.9-3.8c1.5-0.8,2.5-1.6,2.8-2.2c0.1-0.1,0.1-0.3,0.2-0.4c0-0.1,0-0.1,0.1-0.2C409.2,46,409.2,45.9,409.2,46
		L409.2,46z"/>
</g>
<text transform="matrix(1 0 0 1 361.9775 71.4376)" fill="#333333" font-family="'KievitOT-Bold'" font-size="18px">DB D</text>
<g>
	<path fill="#EBAAAB" d="M289.1,124c0,1.1-0.9,2-2,2h-46c-1.1,0-2-0.9-2-2V98c0-1.1,0.9-2,2-2h46c1.1,0,2,0.9,2,2V124z"/>
	<path fill="none" stroke="#333333" stroke-width="2" stroke-miterlimit="10" d="M289.1,124c0,1.1-0.9,2-2,2h-46c-1.1,0-2-0.9-2-2
		V98c0-1.1,0.9-2,2-2h46c1.1,0,2,0.9,2,2V124z"/>
</g>
<text transform="matrix(1 0 0 1 245.8508 115.8772)" fill="#333333" font-family="'KievitOT-Bold'" font-size="18px">SG 5</text>
<path fill="#C6DD9F" stroke="#333333" stroke-width="2" stroke-miterlimit="10" d="M411.1,97.6c0-4.4-13.7-8-30.5-8
	c-16.8,0-30.5,3.6-30.5,8v23.9c0,4.4,13.7,8,30.5,8c16.8,0,30.5-3.6,30.5-8V97.6z"/>
<g>
	<ellipse fill="#C6DD9F" cx="380.2" cy="97.6" rx="30" ry="8"/>
	<path fill="#333333" d="M411.2,97.7c0,0,0,0.1,0,0.4c0,0.1-0.1,0.4-0.2,0.7c-0.1,0.2-0.2,0.5-0.4,0.7c-0.7,1-2,2-3.7,2.8
		c-1.7,0.8-3.8,1.4-6.3,1.9c-2.5,0.5-5.2,0.9-8.3,1.2c-3,0.3-6.3,0.4-9.8,0.5c-3.5,0-7.2,0-11-0.2c-3.8-0.2-7.7-0.6-11.7-1.4
		c-2-0.4-4-0.9-5.9-1.7c-1-0.4-1.9-0.9-2.8-1.6c-0.5-0.3-0.9-0.8-1.3-1.3c-0.4-0.5-0.7-1.2-0.7-2l0-0.5c0-0.2,0.1-0.4,0.1-0.6
		c0.1-0.4,0.3-0.7,0.5-0.9c0.4-0.5,0.8-1,1.2-1.3c0.9-0.7,1.9-1.2,2.8-1.7c1.9-0.9,3.9-1.5,5.9-2c4-1,7.9-1.5,11.7-1.8
		c3.8-0.3,7.5-0.4,11.1-0.3c3.5,0.1,6.8,0.3,9.9,0.7c6.1,0.7,11.2,2,14.5,3.6c1.7,0.8,3,1.8,3.6,2.8c0.2,0.2,0.3,0.5,0.4,0.7
		c0.1,0.2,0.1,0.5,0.2,0.6C411.2,97.4,411.2,97.6,411.2,97.7L411.2,97.7z M409.2,97.6c0,0,0.1-0.3-0.3-0.8c-0.3-0.6-1.3-1.4-2.8-2.1
		c-3-1.4-7.9-2.6-13.9-3.3c-3-0.3-6.2-0.5-9.7-0.6c-3.5,0-7.1,0-10.8,0.3c-3.7,0.3-7.6,0.8-11.4,1.7c-1.9,0.5-3.8,1-5.5,1.8
		c-0.9,0.4-1.7,0.8-2.4,1.4c-0.3,0.3-0.6,0.6-0.8,0.9c-0.1,0.1-0.2,0.3-0.2,0.4c0,0.1,0,0.1-0.1,0.1l0,0.2l0,0.1l0,0c0,0,0,0.1,0,0
		c0,0.5,0.4,1.2,1.1,1.8c0.7,0.6,1.5,1,2.4,1.5c1.7,0.8,3.6,1.4,5.5,2c3.8,1,7.7,1.7,11.4,2.1c7.5,0.7,14.7,0.5,20.7-0.5
		c6-0.9,10.9-2.3,13.9-3.8c1.5-0.8,2.5-1.6,2.8-2.2c0.1-0.1,0.1-0.3,0.2-0.4c0-0.1,0-0.1,0.1-0.2C409.2,97.6,409.2,97.5,409.2,97.6
		L409.2,97.6z"/>
</g>
<text transform="matrix(1 0 0 1 361.9775 123.0209)" fill="#333333" font-family="'KievitOT-Bold'" font-size="18px">DB E</text>
<g>
	<path fill="#EBAAAB" d="M289.1,175c0,1.1-0.9,2-2,2h-46c-1.1,0-2-0.9-2-2v-26c0-1.1,0.9-2,2-2h46c1.1,0,2,0.9,2,2V175z"/>
	<path fill="none" stroke="#333333" stroke-width="2" stroke-miterlimit="10" d="M289.1,175c0,1.1-0.9,2-2,2h-46c-1.1,0-2-0.9-2-2
		v-26c0-1.1,0.9-2,2-2h46c1.1,0,2,0.9,2,2V175z"/>
</g>
<text transform="matrix(1 0 0 1 245.8508 167.4606)" fill="#333333" font-family="'KievitOT-Bold'" font-size="18px">SG 6</text>
<line opacity="0.97" fill="none" stroke="#000000" stroke-width="2" stroke-miterlimit="10" x1="289.4" y1="59.2" x2="348.4" y2="59.2"/>
<line opacity="0.97" fill="none" stroke="#000000" stroke-width="2" stroke-miterlimit="10" x1="289.4" y1="111.6" x2="348.4" y2="111.6"/>
<line opacity="0.97" fill="none" stroke="#000000" stroke-width="2" stroke-miterlimit="10" x1="291.1" y1="60" x2="349" y2="112.2"/>
<line opacity="0.97" fill="none" stroke="#000000" stroke-width="2" stroke-miterlimit="10" x1="348.8" y1="59.6" x2="290" y2="162.2"/>
<g>
	<path fill="#FFFFFF" d="M205.1,403c0,1.1-0.9,2-2,2H9.1c-1.1,0-2-0.9-2-2V255c0-1.1,0.9-2,2-2h194c1.1,0,2,0.9,2,2V403z"/>
	<path fill="none" stroke="#7F7F7F" stroke-width="2" stroke-miterlimit="10" stroke-dasharray="4.0046,4.0046" d="M205.1,403
		c0,1.1-0.9,2-2,2H9.1c-1.1,0-2-0.9-2-2V255c0-1.1,0.9-2,2-2h194c1.1,0,2,0.9,2,2V403z"/>
</g>
<g>
	<path fill="#FFFFFF" d="M68.1,321c0,1.1-0.9,2-2,2h-46c-1.1,0-2-0.9-2-2v-26c0-1.1,0.9-2,2-2h46c1.1,0,2,0.9,2,2V321z"/>
	<path fill="none" stroke="#7F7F7F" stroke-width="2" stroke-miterlimit="10" d="M68.1,321c0,1.1-0.9,2-2,2h-46c-1.1,0-2-0.9-2-2
		v-26c0-1.1,0.9-2,2-2h46c1.1,0,2,0.9,2,2V321z"/>
</g>
<text transform="matrix(1 0 0 1 24.8508 313.2939)" fill="#7F7F7F" font-family="'KievitOT-Bold'" font-size="18px">SG 7</text>
<path fill="#FFFFFF" stroke="#7F7F7F" stroke-width="2" stroke-miterlimit="10" d="M190.1,295c0-4.4-13.7-8-30.5-8s-30.5,3.6-30.5,8
	v23.9c0,4.4,13.7,8,30.5,8s30.5-3.6,30.5-8V295z"/>
<g>
	<ellipse fill="#FFFFFF" cx="159.2" cy="295" rx="30" ry="8"/>
	<path fill="#7F7F7F" d="M190.2,295.1c0,0,0,0.1,0,0.4c0,0.1-0.1,0.4-0.2,0.7c-0.1,0.2-0.2,0.5-0.4,0.7c-0.7,1-2,2-3.7,2.8
		c-1.7,0.8-3.8,1.4-6.3,1.9c-2.5,0.5-5.2,0.9-8.3,1.2c-3,0.3-6.3,0.4-9.8,0.5c-3.5,0-7.2,0-11-0.2c-3.8-0.2-7.7-0.6-11.7-1.4
		c-2-0.4-4-0.9-5.9-1.7c-1-0.4-1.9-0.9-2.8-1.6c-0.5-0.3-0.9-0.8-1.3-1.3c-0.2-0.3-0.3-0.6-0.5-0.9c-0.1-0.2-0.1-0.3-0.1-0.5l0-0.3
		l0-0.1l0-0.1c0-0.1,0,0,0-0.2l0-0.4c0-0.2,0.1-0.4,0.1-0.6c0.1-0.4,0.3-0.7,0.5-0.9c0.4-0.5,0.8-1,1.2-1.3c0.9-0.7,1.9-1.2,2.8-1.7
		c1.9-0.9,3.9-1.5,5.9-2c4-1,7.9-1.5,11.7-1.8c3.8-0.3,7.5-0.4,11.1-0.3c3.5,0.1,6.8,0.3,9.9,0.7c6.1,0.7,11.2,2,14.5,3.6
		c1.7,0.8,3,1.8,3.6,2.8c0.2,0.2,0.3,0.5,0.4,0.7c0.1,0.2,0.1,0.5,0.2,0.6C190.2,294.8,190.2,295,190.2,295.1L190.2,295.1z
		 M188.2,295c0,0,0.1-0.3-0.3-0.8c-0.3-0.6-1.3-1.4-2.8-2.1c-3-1.4-7.9-2.6-13.9-3.3c-3-0.3-6.2-0.5-9.7-0.6c-3.5,0-7.1,0-10.8,0.3
		c-3.7,0.3-7.6,0.8-11.4,1.7c-1.9,0.5-3.8,1-5.5,1.8c-0.9,0.4-1.7,0.8-2.4,1.4c-0.3,0.3-0.6,0.6-0.8,0.9c-0.1,0.1-0.2,0.3-0.2,0.4
		c0,0.1,0,0.1-0.1,0.1l0,0.4c0-0.2,0,0,0-0.1l0,0l0,0.1l0,0.1l0.1,0.2c0.1,0.1,0.1,0.3,0.2,0.5c0.2,0.3,0.5,0.6,0.8,0.9
		c0.7,0.6,1.5,1,2.4,1.5c1.7,0.8,3.6,1.4,5.5,2c3.8,1,7.7,1.7,11.4,2.1c7.5,0.7,14.7,0.5,20.7-0.5c6-0.9,10.9-2.3,13.9-3.8
		c1.5-0.8,2.5-1.6,2.8-2.2c0.1-0.1,0.1-0.3,0.2-0.4c0-0.1,0-0.1,0.1-0.2C188.2,295,188.2,294.9,188.2,295L188.2,295z"/>
</g>
<text transform="matrix(1 0 0 1 140.9775 320.4376)" fill="#7F7F7F" font-family="'KievitOT-Bold'" font-size="18px">DB F</text>
<g>
	<path fill="#FFFFFF" d="M68.1,373c0,1.1-0.9,2-2,2h-46c-1.1,0-2-0.9-2-2v-26c0-1.1,0.9-2,2-2h46c1.1,0,2,0.9,2,2V373z"/>
	<path fill="none" stroke="#7F7F7F" stroke-width="2" stroke-miterlimit="10" d="M68.1,373c0,1.1-0.9,2-2,2h-46c-1.1,0-2-0.9-2-2
		v-26c0-1.1,0.9-2,2-2h46c1.1,0,2,0.9,2,2V373z"/>
</g>
<text transform="matrix(1 0 0 1 24.8508 364.8772)" fill="#7F7F7F" font-family="'KievitOT-Bold'" font-size="18px">SG 7</text>
<path fill="#FFFFFF" stroke="#7F7F7F" stroke-width="2" stroke-miterlimit="10" d="M190.1,346.6c0-4.4-13.7-8-30.5-8
	s-30.5,3.6-30.5,8v23.9c0,4.4,13.7,8,30.5,8s30.5-3.6,30.5-8V346.6z"/>
<g>
	<ellipse fill="#FFFFFF" cx="159.2" cy="346.6" rx="30" ry="8"/>
	<path fill="#7F7F7F" d="M190.2,346.7c0,0,0,0.1,0,0.4c0,0.1-0.1,0.4-0.2,0.7c-0.1,0.2-0.2,0.5-0.4,0.7c-0.7,1-2,2-3.7,2.8
		c-1.7,0.8-3.8,1.4-6.3,1.9c-2.5,0.5-5.2,0.9-8.3,1.2c-3,0.3-6.3,0.4-9.8,0.5c-3.5,0-7.2,0-11-0.2c-3.8-0.2-7.7-0.6-11.7-1.4
		c-2-0.4-4-0.9-5.9-1.7c-1-0.4-1.9-0.9-2.8-1.6c-0.5-0.3-0.9-0.8-1.3-1.3c-0.2-0.3-0.3-0.6-0.5-0.9c-0.1-0.2-0.1-0.3-0.1-0.5l0-0.3
		l0-0.1l0-0.1c0-0.1,0,0,0-0.2l0-0.4c0-0.2,0.1-0.4,0.1-0.6c0.1-0.4,0.3-0.7,0.5-0.9c0.4-0.5,0.8-1,1.2-1.3c0.9-0.7,1.9-1.2,2.8-1.7
		c1.9-0.9,3.9-1.5,5.9-2c4-1,7.9-1.5,11.7-1.8c3.8-0.3,7.5-0.4,11.1-0.3c3.5,0.1,6.8,0.3,9.9,0.7c6.1,0.7,11.2,2,14.5,3.6
		c1.7,0.8,3,1.8,3.6,2.8c0.2,0.2,0.3,0.5,0.4,0.7c0.1,0.2,0.1,0.5,0.2,0.6C190.2,346.4,190.2,346.6,190.2,346.7L190.2,346.7z
		 M188.2,346.6c0,0,0.1-0.3-0.3-0.8c-0.3-0.6-1.3-1.4-2.8-2.1c-3-1.4-7.9-2.6-13.9-3.3c-3-0.3-6.2-0.5-9.7-0.6
		c-3.5,0-7.1,0-10.8,0.3c-3.7,0.3-7.6,0.8-11.4,1.7c-1.9,0.5-3.8,1-5.5,1.8c-0.9,0.4-1.7,0.8-2.4,1.4c-0.3,0.3-0.6,0.6-0.8,0.9
		c-0.1,0.1-0.2,0.3-0.2,0.4c0,0.1,0,0.1-0.1,0.1l0,0.4c0-0.2,0,0,0-0.1l0,0l0,0.1l0,0.1l0.1,0.2c0.1,0.1,0.1,0.3,0.2,0.5
		c0.2,0.3,0.5,0.6,0.8,0.9c0.7,0.6,1.5,1,2.4,1.5c1.7,0.8,3.6,1.4,5.5,2c3.8,1,7.7,1.7,11.4,2.1c7.5,0.7,14.7,0.5,20.7-0.5
		c6-0.9,10.9-2.3,13.9-3.8c1.5-0.8,2.5-1.6,2.8-2.2c0.1-0.1,0.1-0.3,0.2-0.4c0-0.1,0-0.1,0.1-0.2
		C188.2,346.6,188.2,346.5,188.2,346.6L188.2,346.6z"/>
</g>
<text transform="matrix(1 0 0 1 140.9775 372.0209)" fill="#7F7F7F" font-family="'KievitOT-Bold'" font-size="18px">DB G</text>
<line opacity="0.97" fill="none" stroke="#7F7F7F" stroke-width="2" stroke-miterlimit="10" x1="69.4" y1="308.2" x2="128.4" y2="308.2"/>
<line opacity="0.97" fill="none" stroke="#7F7F7F" stroke-width="2" stroke-miterlimit="10" x1="68.4" y1="360.6" x2="127.4" y2="360.6"/>
<line opacity="0.97" fill="none" stroke="#7F7F7F" stroke-width="2" stroke-miterlimit="10" x1="70.1" y1="309" x2="128" y2="361.2"/>
<line opacity="0.97" fill="none" stroke="#000000" stroke-width="2" stroke-miterlimit="10" x1="346.1" y1="60" x2="288.2" y2="112.2"/>
<line opacity="0.97" fill="none" stroke="#000000" stroke-width="2" stroke-miterlimit="10" x1="348.1" y1="112.3" x2="290.2" y2="164.5"/>
<line opacity="0.97" fill="none" stroke="#7F7F7F" stroke-width="2" stroke-miterlimit="10" x1="126.6" y1="309" x2="68.6" y2="361.2"/>
<text transform="matrix(1 0 0 1 15.4395 28.1208)" fill="#333333" font-family="'KievitOT-Bold'" font-size="18px">Channel-index</text>
<text transform="matrix(1 0 0 1 241.2196 28.1209)" fill="#333333" font-family="'KievitOT-Bold'" font-size="18px">Channel caches</text>
<text transform="matrix(1 0 0 1 16.9101 276.477)" fill="#7F7F7F" font-family="'KievitOT-Bold'" font-size="18px">Channel-index</text>
<text transform="matrix(1 0 0 1 15.4396 202.3618)" fill="#333333" font-family="'KievitOT-Bold'" font-size="14px">Intersecting set</text>
<text transform="matrix(1 0 0 1 241.2194 202.3618)" fill="#333333" font-family="'KievitOT-Bold'" font-size="14px">Intersecting set</text>
<text transform="matrix(1 0 0 1 248.2196 256.425)"><tspan x="0" y="0" fill="#333333" font-family="'KievitOT-Bold'" font-size="14px">Disjoint sets: </tspan><tspan x="82.2" y="0" fill="#333333" font-family="'KievitOT-Regular'" font-size="14px">Having both</tspan><tspan x="0" y="16.8" fill="#333333" font-family="'KievitOT-Regular'" font-size="14px">one distributed channel-index</tspan><tspan x="0" y="33.6" fill="#333333" font-family="'KievitOT-Regular'" font-size="14px">deployment and one or more</tspan><tspan x="0" y="50.4" fill="#333333" font-family="'KievitOT-Regular'" font-size="14px">channel-cache deployments</tspan><tspan x="0" y="67.2" fill="#333333" font-family="'KievitOT-Regular'" font-size="14px"> is possible if the sets are disjoint.</tspan></text>
<text transform="matrix(1 0 0 1 248.2196 365.4559)"><tspan x="0" y="0" fill="#333333" font-family="'KievitOT-Bold'" font-size="14px">No disjoint set: </tspan><tspan x="95.1" y="0" fill="#333333" font-family="'KievitOT-Regular'" font-size="14px">All Sync Gateway</tspan><tspan x="0" y="16.8" fill="#333333" font-family="'KievitOT-Regular'" font-size="14px">instances and databases that use</tspan><tspan x="0" y="33.6" fill="#333333" font-family="'KievitOT-Regular'" font-size="14px">the distributed channel index</tspan><tspan x="0" y="50.4" fill="#333333" font-family="'KievitOT-Regular'" font-size="14px">must be in a single intersecting set.</tspan></text>
<line opacity="0.97" fill="none" stroke="#000000" stroke-width="2" stroke-miterlimit="10" x1="173.7" y1="213.8" x2="240.9" y2="253.5"/>
<line fill="none" stroke="#000000" stroke-width="2" stroke-miterlimit="10" x1="240.8" y1="212.9" x2="240.8" y2="253.6"/>
<line fill="none" stroke="#000000" stroke-width="2" stroke-miterlimit="10" x1="202.8" y1="361.5" x2="240.8" y2="361.5"/>
<g>
	
		<line opacity="0.5" fill="none" stroke="#CC2A2E" stroke-width="6" stroke-miterlimit="10" x1="47.7" y1="238.3" x2="149.4" y2="415.6"/>
	
		<line opacity="0.5" fill="none" stroke="#CC2A2E" stroke-width="6" stroke-miterlimit="10" x1="149.4" y1="238.3" x2="47.7" y2="415.6"/>
</g>
<text transform="matrix(1 0 0 1 15.4396 396.1419)" fill="#7F7F7F" font-family="'KievitOT-Bold'" font-size="14px">Intersecting set</text>
<g>
	<g>
		<circle fill="#FF8900" cx="96.6" cy="85.1" r="18.8"/>
	</g>
	<text transform="matrix(1 0 0 1 90.228 93.3128)" fill="#FFFFFF" font-family="'KievitOT-Bold'" font-size="36px">1</text>
</g>
<g>
	<g>
		<circle fill="#FF8900" cx="214" cy="136.8" r="18.8"/>
	</g>
	<text transform="matrix(1 0 0 1 204.7075 144.9415)" fill="#FFFFFF" font-family="'KievitOT-Bold'" font-size="36px">2</text>
</g>
<g>
	<g>
		<circle fill="#FF8900" cx="176.4" cy="257.2" r="18.8"/>
	</g>
	<text transform="matrix(1 0 0 1 169.0408 262.3354)" fill="#FFFFFF" font-family="'KievitOT-Bold'" font-size="36px">3</text>
</g>
</svg>
