<?xml version="1.0" encoding="utf-8"?>
<!-- Generator: Adobe Illustrator 19.1.0, SVG Export Plug-In . SVG Version: 6.00 Build 0)  -->
<svg version="1.1" id="Layer_1" xmlns="http://www.w3.org/2000/svg" xmlns:xlink="http://www.w3.org/1999/xlink" x="0px" y="0px"
	 viewBox="0 0 516 318.5" enable-background="new 0 0 516 318.5" xml:space="preserve">
<g>
	<path fill="#FFFFFF" d="M281,233c0,1.1-0.9,2-2,2h-93c-1.1,0-2-0.9-2-2V89c0-1.1,0.9-2,2-2h93c1.1,0,2,0.9,2,2V233z"/>
	<path fill="none" stroke="#333333" stroke-width="3" stroke-miterlimit="10" d="M281.5,232.5c0,1.1-0.9,2-2,2h-93c-1.1,0-2-0.9-2-2
		v-144c0-1.1,0.9-2,2-2h93c1.1,0,2,0.9,2,2V232.5z"/>
</g>
<g>
	<path fill="#FFFFFF" d="M170,233c0,1.1-0.9,2-2,2H75c-1.1,0-2-0.9-2-2V89c0-1.1,0.9-2,2-2h93c1.1,0,2,0.9,2,2V233z"/>
	<path fill="none" stroke="#333333" stroke-width="3" stroke-miterlimit="10" d="M169.5,232.5c0,1.1-0.9,2-2,2h-93c-1.1,0-2-0.9-2-2
		v-144c0-1.1,0.9-2,2-2h93c1.1,0,2,0.9,2,2V232.5z"/>
</g>
<g>
	<path fill="#FFFFFF" d="M393,233c0,1.1-0.9,2-2,2h-93c-1.1,0-2-0.9-2-2V89c0-1.1,0.9-2,2-2h93c1.1,0,2,0.9,2,2V233z"/>
	<path fill="none" stroke="#333333" stroke-width="3" stroke-miterlimit="10" d="M393.5,232.5c0,1.1-0.9,2-2,2h-93c-1.1,0-2-0.9-2-2
		v-144c0-1.1,0.9-2,2-2h93c1.1,0,2,0.9,2,2V232.5z"/>
</g>
<g>
	<path fill="#FFFFFF" d="M504,233c0,1.1-0.9,2-2,2h-93c-1.1,0-2-0.9-2-2V89c0-1.1,0.9-2,2-2h93c1.1,0,2,0.9,2,2V233z"/>
	<path fill="none" stroke="#333333" stroke-width="3" stroke-miterlimit="10" d="M503.5,232.5c0,1.1-0.9,2-2,2h-93c-1.1,0-2-0.9-2-2
		v-144c0-1.1,0.9-2,2-2h93c1.1,0,2,0.9,2,2V232.5z"/>
</g>
<g opacity="0.7">
	<path fill="#CCCCCC" d="M501,222c0,1.1-0.9,2-2,2H6c-1.1,0-2-0.9-2-2V97c0-1.1,0.9-2,2-2h493c1.1,0,2,0.9,2,2V222z"/>
</g>
<g>
	<g>
		<path fill="#DAD2EA" d="M217.8,56.4c0,1.4-0.3,2.5-0.7,2.5h-69.5c-0.4,0-0.7-1.1-0.7-2.5v-49c0-1.4,0.3-2.5,0.7-2.5h69.5
			c0.4,0,0.7,1.1,0.7,2.5V56.4z"/>
		<path fill="#DAD2EA" d="M217.8,56.4c0,1.4-0.3,2.5-0.7,2.5h-69.5c-0.4,0-0.7-1.1-0.7-2.5v-49c0-1.4,0.3-2.5,0.7-2.5h69.5
			c0.4,0,0.7,1.1,0.7,2.5V56.4z"/>
	</g>
	<g>
		<path fill="#99DEF3" d="M288.6,56.4c0,1.4-0.3,2.5-0.7,2.5h-70.5c-0.4,0-0.7-1.1-0.7-2.5v-49c0-1.4,0.3-2.5,0.7-2.5h70.5
			c0.4,0,0.7,1.1,0.7,2.5V56.4z"/>
		<path fill="#99DEF3" d="M288.6,56.4c0,1.4-0.3,2.5-0.7,2.5h-70.5c-0.4,0-0.7-1.1-0.7-2.5v-49c0-1.4,0.3-2.5,0.7-2.5h70.5
			c0.4,0,0.7,1.1,0.7,2.5V56.4z"/>
	</g>
	<g>
		<path fill="none" stroke="#333333" stroke-width="3" stroke-miterlimit="10" d="M289.5,57.5c0,1.1-0.9,2-2,2h-138
			c-1.1,0-2-0.9-2-2v-51c0-1.1,0.9-2,2-2h138c1.1,0,2,0.9,2,2V57.5z"/>
	</g>
	<text transform="matrix(1 0 0 1 155.5752 26.4279)"><tspan x="0" y="0" fill="#333333" font-family="'KievitOT-Bold'" font-size="21px">Sync Gateway</tspan><tspan x="0" y="25.2" fill="#333333" font-family="'KievitOT-Bold'" font-size="21px">CI Writer     1</tspan></text>
</g>
<g>
	<path fill="#FFE7A8" stroke="#333333" stroke-width="2" stroke-miterlimit="10" d="M263.7,192.9c0-3.6-13.7-6.5-30.5-6.5
		s-30.5,2.9-30.5,6.5v19.5c0,3.6,13.7,6.5,30.5,6.5s30.5-2.9,30.5-6.5V192.9z"/>
	<g>
		<ellipse fill="#FFE7A8" cx="232.7" cy="192.9" rx="30" ry="6.5"/>
		<path fill="#333333" d="M263.7,193c0,0,0,0.1-0.1,0.4c-0.1,0.5-0.4,1-0.8,1.4c-0.8,0.9-2.2,1.6-3.9,2.2c-3.4,1.2-8.4,1.9-14.4,2.3
			c-3,0.2-6.2,0.3-9.6,0.3c-3.4,0-7,0-10.8-0.2c-3.7-0.1-7.6-0.4-11.5-1c-2-0.3-3.9-0.7-5.9-1.3c-1-0.3-2-0.7-2.9-1.2
			c-0.5-0.3-1-0.6-1.4-1.1c-0.4-0.4-0.9-1.1-0.9-2l0-0.2l0-0.1c0-0.1,0-0.1,0-0.2c0.1-0.2,0.1-0.5,0.2-0.6c0.2-0.3,0.4-0.6,0.6-0.8
			c0.4-0.5,0.9-0.8,1.4-1.1c1-0.6,1.9-1,2.9-1.3c1.9-0.7,3.9-1.1,5.9-1.5c3.9-0.8,7.8-1.2,11.5-1.4c3.7-0.2,7.4-0.4,10.8-0.3
			c3.4,0.1,6.7,0.3,9.7,0.6c6,0.6,11,1.6,14.4,2.8c1.7,0.6,3,1.4,3.9,2.3c0.4,0.4,0.7,1,0.8,1.3c0.1,0.4,0.1,0.6,0.1,0.6L263.7,193z
			 M261.7,192.9c0,0,0.1-0.1-0.3-0.6c-0.4-0.5-1.5-1.2-3.1-1.7c-3.1-1.1-8-2.1-13.8-2.6c-2.9-0.3-6.1-0.4-9.5-0.5
			c-3.4,0-7,0-10.6,0.2c-3.7,0.2-7.5,0.6-11.3,1.3c-1.9,0.4-3.8,0.8-5.6,1.4c-0.9,0.3-1.8,0.7-2.5,1.1c-0.4,0.2-0.7,0.5-1,0.7
			c-0.1,0.1-0.2,0.3-0.3,0.4c0,0.1,0,0,0,0c0,0,0,0.1,0,0.2l0,0.1l0,0c0,0,0,0.1,0-0.1c0,0.1,0.1,0.4,0.3,0.6c0.2,0.3,0.6,0.5,1,0.8
			c0.8,0.5,1.6,0.8,2.5,1.2c1.8,0.7,3.7,1.2,5.6,1.6c3.8,0.9,7.6,1.4,11.3,1.7c7.4,0.6,14.4,0.4,20.3-0.4c5.9-0.7,10.7-1.9,13.8-3.1
			c1.5-0.6,2.6-1.3,3.1-1.8c0.2-0.3,0.2-0.4,0.3-0.4c0-0.2,0-0.3,0-0.3L261.7,192.9z"/>
	</g>
</g>
<g>
	<path fill="#FFE7A8" stroke="#333333" stroke-width="2" stroke-miterlimit="10" d="M263.7,165.2c0-3.6-13.7-6.5-30.5-6.5
		s-30.5,2.9-30.5,6.5v19.5c0,3.6,13.7,6.5,30.5,6.5s30.5-2.9,30.5-6.5V165.2z"/>
	<g>
		<ellipse fill="#FFE7A8" cx="232.7" cy="165.2" rx="30" ry="6.5"/>
		<path fill="#333333" d="M263.7,165.3c0,0,0,0.1-0.1,0.4c-0.1,0.5-0.4,1-0.8,1.4c-0.8,0.9-2.2,1.6-3.9,2.2
			c-3.4,1.2-8.4,1.9-14.4,2.3c-3,0.2-6.2,0.3-9.6,0.3c-3.4,0-7,0-10.8-0.2c-3.7-0.1-7.6-0.4-11.5-1c-2-0.3-3.9-0.7-5.9-1.3
			c-1-0.3-2-0.7-2.9-1.2c-0.5-0.3-1-0.6-1.4-1.1c-0.4-0.4-0.9-1.1-0.9-2l0-0.2l0-0.1c0-0.1,0-0.1,0-0.2c0.1-0.2,0.1-0.5,0.2-0.6
			c0.2-0.3,0.4-0.6,0.6-0.8c0.4-0.5,0.9-0.8,1.4-1.1c1-0.6,1.9-1,2.9-1.3c1.9-0.7,3.9-1.1,5.9-1.5c3.9-0.8,7.8-1.2,11.5-1.4
			c3.7-0.2,7.4-0.4,10.8-0.3c3.4,0.1,6.7,0.3,9.7,0.6c6,0.6,11,1.6,14.4,2.8c1.7,0.6,3,1.4,3.9,2.3c0.4,0.4,0.7,1,0.8,1.3
			c0.1,0.4,0.1,0.6,0.1,0.6L263.7,165.3z M261.7,165.2c0,0,0.1-0.1-0.3-0.6c-0.4-0.5-1.5-1.2-3.1-1.7c-3.1-1.1-8-2.1-13.8-2.6
			c-2.9-0.3-6.1-0.4-9.5-0.5c-3.4,0-7,0-10.6,0.2c-3.7,0.2-7.5,0.6-11.3,1.3c-1.9,0.4-3.8,0.8-5.6,1.4c-0.9,0.3-1.8,0.7-2.5,1.1
			c-0.4,0.2-0.7,0.5-1,0.7c-0.1,0.1-0.2,0.3-0.3,0.4c0,0.1,0,0,0,0c0,0,0,0.1,0,0.2l0,0.1l0,0c0,0,0,0.1,0-0.1
			c0,0.1,0.1,0.4,0.3,0.6c0.2,0.3,0.6,0.5,1,0.8c0.8,0.5,1.6,0.8,2.5,1.2c1.8,0.7,3.7,1.2,5.6,1.6c3.8,0.9,7.6,1.4,11.3,1.7
			c7.4,0.6,14.4,0.4,20.3-0.4c5.9-0.7,10.7-1.9,13.8-3.1c1.5-0.6,2.6-1.3,3.1-1.8c0.2-0.3,0.2-0.4,0.3-0.4c0-0.2,0-0.3,0-0.3
			L261.7,165.2z"/>
	</g>
</g>
<g>
	<path fill="#99DEF3" stroke="#333333" stroke-width="2" stroke-miterlimit="10" d="M263.7,137.5c0-3.6-13.7-6.5-30.5-6.5
		s-30.5,2.9-30.5,6.5V157c0,3.6,13.7,6.5,30.5,6.5s30.5-2.9,30.5-6.5V137.5z"/>
	<g>
		<ellipse fill="#99DEF3" cx="232.7" cy="137.5" rx="30" ry="6.5"/>
		<path fill="#333333" d="M263.7,137.7c0,0,0,0.1-0.1,0.4c-0.1,0.5-0.4,1-0.8,1.4c-0.8,0.9-2.2,1.6-3.9,2.2
			c-3.4,1.2-8.4,1.9-14.4,2.3c-3,0.2-6.2,0.3-9.6,0.3c-3.4,0-7,0-10.8-0.2c-3.7-0.1-7.6-0.4-11.5-1c-2-0.3-3.9-0.7-5.9-1.3
			c-1-0.3-2-0.7-2.9-1.2c-0.5-0.3-1-0.6-1.4-1.1c-0.4-0.4-0.9-1.1-0.9-2l0-0.2l0-0.1c0-0.1,0-0.1,0-0.2c0.1-0.2,0.1-0.5,0.2-0.6
			c0.2-0.3,0.4-0.6,0.6-0.8c0.4-0.5,0.9-0.8,1.4-1.1c1-0.6,1.9-1,2.9-1.3c1.9-0.7,3.9-1.1,5.9-1.5c3.9-0.8,7.8-1.2,11.5-1.4
			c3.7-0.2,7.4-0.4,10.8-0.3c3.4,0.1,6.7,0.3,9.7,0.6c6,0.6,11,1.6,14.4,2.8c1.7,0.6,3,1.4,3.9,2.3c0.4,0.4,0.7,1,0.8,1.3
			c0.1,0.4,0.1,0.6,0.1,0.6L263.7,137.7z M261.7,137.5c0,0,0.1-0.1-0.3-0.6c-0.4-0.5-1.5-1.2-3.1-1.7c-3.1-1.1-8-2.1-13.8-2.6
			c-2.9-0.3-6.1-0.4-9.5-0.5c-3.4,0-7,0-10.6,0.2c-3.7,0.2-7.5,0.6-11.3,1.3c-1.9,0.4-3.8,0.8-5.6,1.4c-0.9,0.3-1.8,0.7-2.5,1.1
			c-0.4,0.2-0.7,0.5-1,0.7c-0.1,0.1-0.2,0.3-0.3,0.4c0,0.1,0,0,0,0c0,0,0,0.1,0,0.2l0,0.1l0,0c0,0,0,0.1,0-0.1
			c0,0.1,0.1,0.4,0.3,0.6c0.2,0.3,0.6,0.5,1,0.8c0.8,0.5,1.6,0.8,2.5,1.2c1.8,0.7,3.7,1.2,5.6,1.6c3.8,0.9,7.6,1.4,11.3,1.7
			c7.4,0.6,14.4,0.4,20.3-0.4c5.9-0.7,10.7-1.9,13.8-3.1c1.5-0.6,2.6-1.3,3.1-1.8c0.2-0.3,0.2-0.4,0.3-0.4c0-0.2,0-0.3,0-0.3
			L261.7,137.5z"/>
	</g>
</g>
<g>
	<path fill="#99DEF3" stroke="#333333" stroke-width="2" stroke-miterlimit="10" d="M263.7,109.9c0-3.6-13.7-6.5-30.5-6.5
		s-30.5,2.9-30.5,6.5v19.5c0,3.6,13.7,6.5,30.5,6.5s30.5-2.9,30.5-6.5V109.9z"/>
	<g>
		<ellipse fill="#99DEF3" cx="232.7" cy="109.9" rx="30" ry="6.5"/>
		<path fill="#333333" d="M263.7,110c0,0,0,0.1-0.1,0.4c-0.1,0.5-0.4,1-0.8,1.4c-0.8,0.9-2.2,1.6-3.9,2.2c-3.4,1.2-8.4,1.9-14.4,2.3
			c-3,0.2-6.2,0.3-9.6,0.3c-3.4,0-7,0-10.8-0.2c-3.7-0.1-7.6-0.4-11.5-1c-2-0.3-3.9-0.7-5.9-1.3c-1-0.3-2-0.7-2.9-1.2
			c-0.5-0.3-1-0.6-1.4-1.1c-0.2-0.2-0.4-0.5-0.6-0.8c-0.1-0.2-0.1-0.4-0.2-0.5c0-0.1,0-0.2-0.1-0.3l0-0.2l0-0.1c0-0.1,0,0.1,0-0.2
			c0-0.1,0-0.2,0.1-0.4c0.1-0.2,0.1-0.5,0.2-0.6c0.2-0.3,0.4-0.6,0.6-0.8c0.4-0.5,0.9-0.8,1.4-1.1c1-0.6,1.9-1,2.9-1.3
			c1.9-0.7,3.9-1.1,5.9-1.5c3.9-0.8,7.8-1.2,11.5-1.4c3.7-0.2,7.4-0.4,10.8-0.3c3.4,0.1,6.7,0.3,9.7,0.6c6,0.6,11,1.6,14.4,2.8
			c1.7,0.6,3,1.4,3.9,2.3c0.4,0.4,0.7,1,0.8,1.3c0.1,0.4,0.1,0.6,0.1,0.6L263.7,110z M261.7,109.9c0,0,0.1-0.1-0.3-0.6
			c-0.4-0.5-1.5-1.2-3.1-1.7c-3.1-1.1-8-2.1-13.8-2.6c-2.9-0.3-6.1-0.4-9.5-0.5c-3.4,0-7,0-10.6,0.2c-3.7,0.2-7.5,0.6-11.3,1.3
			c-1.9,0.4-3.8,0.8-5.6,1.4c-0.9,0.3-1.8,0.7-2.5,1.1c-0.4,0.2-0.7,0.5-1,0.7c-0.1,0.1-0.2,0.3-0.3,0.4c0,0.1,0,0,0,0
			c0,0.1,0,0.2,0,0.3c0-0.2,0-0.1,0-0.1l0,0l0,0c0,0,0,0,0,0.1c0,0,0,0.1,0.1,0.1c0.1,0.1,0.1,0.2,0.3,0.4c0.2,0.3,0.6,0.5,1,0.8
			c0.8,0.5,1.6,0.8,2.5,1.2c1.8,0.7,3.7,1.2,5.6,1.6c3.8,0.9,7.6,1.4,11.3,1.7c7.4,0.6,14.4,0.4,20.3-0.4c5.9-0.7,10.7-1.9,13.8-3.1
			c1.5-0.6,2.6-1.3,3.1-1.8c0.2-0.3,0.2-0.4,0.3-0.4c0-0.2,0-0.3,0-0.3L261.7,109.9z"/>
	</g>
</g>
<g>
	<path fill="#99E3E5" stroke="#333333" stroke-width="2" stroke-miterlimit="10" d="M151.7,192.9c0-3.6-13.7-6.5-30.5-6.5
		s-30.5,2.9-30.5,6.5v19.5c0,3.6,13.7,6.5,30.5,6.5s30.5-2.9,30.5-6.5V192.9z"/>
	<g>
		<ellipse fill="#99E3E5" cx="121.2" cy="192.9" rx="30" ry="6.5"/>
		<path fill="#333333" d="M152.3,193c0,0,0,0.1-0.1,0.4c-0.1,0.5-0.4,1-0.8,1.4c-0.8,0.9-2.2,1.6-3.9,2.2c-3.4,1.2-8.4,1.9-14.4,2.3
			c-3,0.2-6.2,0.3-9.6,0.3c-3.4,0-7,0-10.8-0.2c-3.7-0.1-7.6-0.4-11.5-1c-2-0.3-3.9-0.7-5.9-1.3c-1-0.3-2-0.7-2.9-1.2
			c-0.5-0.3-1-0.6-1.4-1.1c-0.2-0.2-0.4-0.5-0.6-0.8c-0.1-0.2-0.1-0.4-0.2-0.5c0-0.1,0-0.2-0.1-0.3l0-0.2l0-0.1c0-0.1,0,0.1,0-0.2
			c0-0.1,0-0.2,0.1-0.4c0.1-0.2,0.1-0.5,0.2-0.6c0.2-0.3,0.4-0.6,0.6-0.8c0.4-0.5,0.9-0.8,1.4-1.1c1-0.6,1.9-1,2.9-1.3
			c1.9-0.7,3.9-1.1,5.9-1.5c3.9-0.8,7.8-1.2,11.5-1.4c3.7-0.2,7.4-0.4,10.8-0.3c3.4,0.1,6.7,0.3,9.7,0.6c6,0.6,11,1.6,14.4,2.8
			c1.7,0.6,3,1.4,3.9,2.3c0.4,0.4,0.7,1,0.8,1.3c0.1,0.4,0.1,0.6,0.1,0.6L152.3,193z M150.3,192.9c0,0,0.1-0.1-0.3-0.6
			c-0.4-0.5-1.5-1.2-3.1-1.7c-3.1-1.1-8-2.1-13.8-2.6c-2.9-0.3-6.1-0.4-9.5-0.5c-3.4,0-7,0-10.6,0.2c-3.7,0.2-7.5,0.6-11.3,1.3
			c-1.9,0.4-3.8,0.8-5.6,1.4c-0.9,0.3-1.8,0.7-2.5,1.1c-0.4,0.2-0.7,0.5-1,0.7c-0.1,0.1-0.2,0.3-0.3,0.4c0,0.1,0,0,0,0
			c0,0.1,0,0.2,0,0.3c0-0.2,0-0.1,0-0.1l0,0l0,0c0,0,0,0,0,0.1c0,0,0,0.1,0.1,0.1c0.1,0.1,0.1,0.2,0.3,0.4c0.2,0.3,0.6,0.5,1,0.8
			c0.8,0.5,1.6,0.8,2.5,1.2c1.8,0.7,3.7,1.2,5.6,1.6c3.8,0.9,7.6,1.4,11.3,1.7c7.4,0.6,14.4,0.4,20.3-0.4c5.9-0.7,10.7-1.9,13.8-3.1
			c1.5-0.6,2.6-1.3,3.1-1.8c0.2-0.3,0.2-0.4,0.3-0.4c0-0.2,0-0.3,0-0.3L150.3,192.9z"/>
	</g>
</g>
<g>
	<path fill="#99E3E5" stroke="#333333" stroke-width="2" stroke-miterlimit="10" d="M151.7,165.2c0-3.6-13.7-6.5-30.5-6.5
		s-30.5,2.9-30.5,6.5v19.5c0,3.6,13.7,6.5,30.5,6.5s30.5-2.9,30.5-6.5V165.2z"/>
	<g>
		<ellipse fill="#99E3E5" cx="121.2" cy="165.2" rx="30" ry="6.5"/>
		<path fill="#333333" d="M152.3,165.3c0,0,0,0.1-0.1,0.4c-0.1,0.5-0.4,1-0.8,1.4c-0.8,0.9-2.2,1.6-3.9,2.2
			c-3.4,1.2-8.4,1.9-14.4,2.3c-3,0.2-6.2,0.3-9.6,0.3c-3.4,0-7,0-10.8-0.2c-3.7-0.1-7.6-0.4-11.5-1c-2-0.3-3.9-0.7-5.9-1.3
			c-1-0.3-2-0.7-2.9-1.2c-0.5-0.3-1-0.6-1.4-1.1c-0.4-0.4-0.9-1.1-0.9-2l0-0.2l0-0.1c0-0.1,0-0.1,0-0.2c0.1-0.2,0.1-0.5,0.2-0.6
			c0.2-0.3,0.4-0.6,0.6-0.8c0.4-0.5,0.9-0.8,1.4-1.1c1-0.6,1.9-1,2.9-1.3c1.9-0.7,3.9-1.1,5.9-1.5c3.9-0.8,7.8-1.2,11.5-1.4
			c3.7-0.2,7.4-0.4,10.8-0.3c3.4,0.1,6.7,0.3,9.7,0.6c6,0.6,11,1.6,14.4,2.8c1.7,0.6,3,1.4,3.9,2.3c0.4,0.4,0.7,1,0.8,1.3
			c0.1,0.4,0.1,0.6,0.1,0.6L152.3,165.3z M150.3,165.2c0,0,0.1-0.1-0.3-0.6c-0.4-0.5-1.5-1.2-3.1-1.7c-3.1-1.1-8-2.1-13.8-2.6
			c-2.9-0.3-6.1-0.4-9.5-0.5c-3.4,0-7,0-10.6,0.2c-3.7,0.2-7.5,0.6-11.3,1.3c-1.9,0.4-3.8,0.8-5.6,1.4c-0.9,0.3-1.8,0.7-2.5,1.1
			c-0.4,0.2-0.7,0.5-1,0.7c-0.1,0.1-0.2,0.3-0.3,0.4c0,0.1,0,0,0,0c0,0,0,0.1,0,0.2l0,0.1l0,0c0,0,0,0.1,0-0.1
			c0,0.1,0.1,0.4,0.3,0.6c0.2,0.3,0.6,0.5,1,0.8c0.8,0.5,1.6,0.8,2.5,1.2c1.8,0.7,3.7,1.2,5.6,1.6c3.8,0.9,7.6,1.4,11.3,1.7
			c7.4,0.6,14.4,0.4,20.3-0.4c5.9-0.7,10.7-1.9,13.8-3.1c1.5-0.6,2.6-1.3,3.1-1.8c0.2-0.3,0.2-0.4,0.3-0.4c0-0.2,0-0.3,0-0.3
			L150.3,165.2z"/>
	</g>
</g>
<g>
	<path fill="#DAD2EA" stroke="#333333" stroke-width="2" stroke-miterlimit="10" d="M152,137.5c0-3.6-13.7-6.5-30.5-6.5
		S91,133.9,91,137.5V157c0,3.6,13.7,6.5,30.5,6.5s30.5-2.9,30.5-6.5V137.5z"/>
	<g>
		<ellipse fill="#DAD2EA" cx="121.2" cy="137.5" rx="30" ry="6.5"/>
		<path fill="#333333" d="M152.3,137.7c0,0,0,0.1-0.1,0.4c-0.1,0.5-0.4,1-0.8,1.4c-0.8,0.9-2.2,1.6-3.9,2.2
			c-3.4,1.2-8.4,1.9-14.4,2.3c-3,0.2-6.2,0.3-9.6,0.3c-3.4,0-7,0-10.8-0.2c-3.7-0.1-7.6-0.4-11.5-1c-2-0.3-3.9-0.7-5.9-1.3
			c-1-0.3-2-0.7-2.9-1.2c-0.5-0.3-1-0.6-1.4-1.1c-0.4-0.4-0.9-1.1-0.9-2l0-0.2l0-0.1c0-0.1,0-0.1,0-0.2c0.1-0.2,0.1-0.5,0.2-0.6
			c0.2-0.3,0.4-0.6,0.6-0.8c0.4-0.5,0.9-0.8,1.4-1.1c1-0.6,1.9-1,2.9-1.3c1.9-0.7,3.9-1.1,5.9-1.5c3.9-0.8,7.8-1.2,11.5-1.4
			c3.7-0.2,7.4-0.4,10.8-0.3c3.4,0.1,6.7,0.3,9.7,0.6c6,0.6,11,1.6,14.4,2.8c1.7,0.6,3,1.4,3.9,2.3c0.4,0.4,0.7,1,0.8,1.3
			c0.1,0.4,0.1,0.6,0.1,0.6L152.3,137.7z M150.3,137.5c0,0,0.1-0.1-0.3-0.6c-0.4-0.5-1.5-1.2-3.1-1.7c-3.1-1.1-8-2.1-13.8-2.6
			c-2.9-0.3-6.1-0.4-9.5-0.5c-3.4,0-7,0-10.6,0.2c-3.7,0.2-7.5,0.6-11.3,1.3c-1.9,0.4-3.8,0.8-5.6,1.4c-0.9,0.3-1.8,0.7-2.5,1.1
			c-0.4,0.2-0.7,0.5-1,0.7c-0.1,0.1-0.2,0.3-0.3,0.4c0,0.1,0,0,0,0c0,0,0,0.1,0,0.2l0,0.1l0,0c0,0,0,0.1,0-0.1
			c0,0.1,0.1,0.4,0.3,0.6c0.2,0.3,0.6,0.5,1,0.8c0.8,0.5,1.6,0.8,2.5,1.2c1.8,0.7,3.7,1.2,5.6,1.6c3.8,0.9,7.6,1.4,11.3,1.7
			c7.4,0.6,14.4,0.4,20.3-0.4c5.9-0.7,10.7-1.9,13.8-3.1c1.5-0.6,2.6-1.3,3.1-1.8c0.2-0.3,0.2-0.4,0.3-0.4c0-0.2,0-0.3,0-0.3
			L150.3,137.5z"/>
	</g>
</g>
<g>
	<path fill="#DAD2EA" stroke="#333333" stroke-width="2" stroke-miterlimit="10" d="M152,109.9c0-3.6-13.7-6.5-30.5-6.5
		S91,106.3,91,109.9v19.5c0,3.6,13.7,6.5,30.5,6.5s30.5-2.9,30.5-6.5V109.9z"/>
	<g>
		<ellipse fill="#DAD2EA" cx="121.2" cy="109.9" rx="30" ry="6.5"/>
		<path fill="#333333" d="M152.3,110c0,0,0,0.1-0.1,0.4c-0.1,0.5-0.4,1-0.8,1.4c-0.8,0.9-2.2,1.6-3.9,2.2c-3.4,1.2-8.4,1.9-14.4,2.3
			c-3,0.2-6.2,0.3-9.6,0.3c-3.4,0-7,0-10.8-0.2c-3.7-0.1-7.6-0.4-11.5-1c-2-0.3-3.9-0.7-5.9-1.3c-1-0.3-2-0.7-2.9-1.2
			c-0.5-0.3-1-0.6-1.4-1.1c-0.2-0.2-0.4-0.5-0.6-0.8c-0.1-0.2-0.1-0.4-0.2-0.5c0-0.1,0-0.2-0.1-0.3l0-0.2l0-0.1c0-0.1,0,0.1,0-0.2
			c0-0.1,0-0.2,0.1-0.4c0.1-0.2,0.1-0.5,0.2-0.6c0.2-0.3,0.4-0.6,0.6-0.8c0.4-0.5,0.9-0.8,1.4-1.1c1-0.6,1.9-1,2.9-1.3
			c1.9-0.7,3.9-1.1,5.9-1.5c3.9-0.8,7.8-1.2,11.5-1.4c3.7-0.2,7.4-0.4,10.8-0.3c3.4,0.1,6.7,0.3,9.7,0.6c6,0.6,11,1.6,14.4,2.8
			c1.7,0.6,3,1.4,3.9,2.3c0.4,0.4,0.7,1,0.8,1.3c0.1,0.4,0.1,0.6,0.1,0.6L152.3,110z M150.3,109.9c0,0,0.1-0.1-0.3-0.6
			c-0.4-0.5-1.5-1.2-3.1-1.7c-3.1-1.1-8-2.1-13.8-2.6c-2.9-0.3-6.1-0.4-9.5-0.5c-3.4,0-7,0-10.6,0.2c-3.7,0.2-7.5,0.6-11.3,1.3
			c-1.9,0.4-3.8,0.8-5.6,1.4c-0.9,0.3-1.8,0.7-2.5,1.1c-0.4,0.2-0.7,0.5-1,0.7c-0.1,0.1-0.2,0.3-0.3,0.4c0,0.1,0,0,0,0
			c0,0.1,0,0.2,0,0.3c0-0.2,0-0.1,0-0.1l0,0l0,0c0,0,0,0,0,0.1c0,0,0,0.1,0.1,0.1c0.1,0.1,0.1,0.2,0.3,0.4c0.2,0.3,0.6,0.5,1,0.8
			c0.8,0.5,1.6,0.8,2.5,1.2c1.8,0.7,3.7,1.2,5.6,1.6c3.8,0.9,7.6,1.4,11.3,1.7c7.4,0.6,14.4,0.4,20.3-0.4c5.9-0.7,10.7-1.9,13.8-3.1
			c1.5-0.6,2.6-1.3,3.1-1.8c0.2-0.3,0.2-0.4,0.3-0.4c0-0.2,0-0.3,0-0.3L150.3,109.9z"/>
	</g>
</g>
<g>
	<text transform="matrix(1 0 0 1 106.381 130.6392)" fill="#333333" font-family="'KievitOT-Bold'" font-size="18px">M 0</text>
	<text transform="matrix(1 0 0 1 106.3807 158.3059)" fill="#333333" font-family="'KievitOT-Bold'" font-size="18px">M 1</text>
	<text transform="matrix(1 0 0 1 106.3807 212.0211)" fill="#333333" font-family="'KievitOT-Bold'" font-size="18px">M 3</text>
	<text transform="matrix(1 0 0 1 106.381 184.6877)" fill="#333333" font-family="'KievitOT-Bold'" font-size="18px">M 2</text>
</g>
<g>
	<text transform="matrix(1 0 0 1 217.8254 130.6391)" fill="#333333" font-family="'KievitOT-Bold'" font-size="18px">M 4</text>
	<text transform="matrix(1 0 0 1 217.8251 158.3058)" fill="#333333" font-family="'KievitOT-Bold'" font-size="18px">M 5</text>
	<text transform="matrix(1 0 0 1 217.8251 212.0211)" fill="#333333" font-family="'KievitOT-Bold'" font-size="18px">M 7</text>
	<text transform="matrix(1 0 0 1 217.8254 184.6876)" fill="#333333" font-family="'KievitOT-Bold'" font-size="18px">M 6</text>
</g>
<g>
	<path fill="#C6DD9F" stroke="#333333" stroke-width="2" stroke-miterlimit="10" d="M374.7,192.9c0-3.6-13.7-6.5-30.5-6.5
		c-16.8,0-30.5,2.9-30.5,6.5v19.5c0,3.6,13.7,6.5,30.5,6.5c16.8,0,30.5-2.9,30.5-6.5V192.9z"/>
	<g>
		<ellipse fill="#C6DD9F" cx="344.6" cy="192.9" rx="30" ry="6.5"/>
		<path fill="#333333" d="M375.6,193c0,0,0,0.1-0.1,0.4c-0.1,0.5-0.4,1-0.8,1.4c-0.8,0.9-2.2,1.6-3.9,2.2c-3.4,1.2-8.4,1.9-14.4,2.3
			c-3,0.2-6.2,0.3-9.6,0.3c-3.4,0-7,0-10.8-0.2c-3.7-0.1-7.6-0.4-11.5-1c-2-0.3-3.9-0.7-5.9-1.3c-1-0.3-2-0.7-2.9-1.2
			c-0.5-0.3-1-0.6-1.4-1.1c-0.2-0.2-0.4-0.5-0.6-0.8c-0.1-0.2-0.1-0.4-0.2-0.5c0-0.1,0-0.2-0.1-0.3l0-0.2l0-0.1c0-0.1,0,0.1,0-0.2
			c0-0.1,0-0.2,0.1-0.4c0.1-0.2,0.1-0.5,0.2-0.6c0.2-0.3,0.4-0.6,0.6-0.8c0.4-0.5,0.9-0.8,1.4-1.1c1-0.6,1.9-1,2.9-1.3
			c1.9-0.7,3.9-1.1,5.9-1.5c3.9-0.8,7.8-1.2,11.5-1.4c3.7-0.2,7.4-0.4,10.8-0.3c3.4,0.1,6.7,0.3,9.7,0.6c6,0.6,11,1.6,14.4,2.8
			c1.7,0.6,3,1.4,3.9,2.3c0.4,0.4,0.7,1,0.8,1.3c0.1,0.4,0.1,0.6,0.1,0.6L375.6,193z M373.7,192.9c0,0,0.1-0.1-0.3-0.6
			c-0.4-0.5-1.5-1.2-3.1-1.7c-3.1-1.1-8-2.1-13.8-2.6c-2.9-0.3-6.1-0.4-9.5-0.5c-3.4,0-7,0-10.6,0.2c-3.7,0.2-7.5,0.6-11.3,1.3
			c-1.9,0.4-3.8,0.8-5.6,1.4c-0.9,0.3-1.8,0.7-2.5,1.1c-0.4,0.2-0.7,0.5-1,0.7c-0.1,0.1-0.2,0.3-0.3,0.4c0,0.1,0,0,0,0
			c0,0.1,0,0.2,0,0.3c0-0.2,0-0.1,0-0.1l0,0l0,0c0,0,0,0,0,0.1c0,0,0,0.1,0.1,0.1c0.1,0.1,0.1,0.2,0.3,0.4c0.2,0.3,0.6,0.5,1,0.8
			c0.8,0.5,1.6,0.8,2.5,1.2c1.8,0.7,3.7,1.2,5.6,1.6c3.8,0.9,7.6,1.4,11.3,1.7c7.4,0.6,14.4,0.4,20.3-0.4c5.9-0.7,10.7-1.9,13.8-3.1
			c1.5-0.6,2.6-1.3,3.1-1.8c0.2-0.3,0.2-0.4,0.3-0.4c0-0.2,0-0.3,0-0.3L373.7,192.9z"/>
	</g>
</g>
<g>
	<path fill="#C6DD9F" stroke="#333333" stroke-width="2" stroke-miterlimit="10" d="M374.7,165.2c0-3.6-13.7-6.5-30.5-6.5
		c-16.8,0-30.5,2.9-30.5,6.5v19.5c0,3.6,13.7,6.5,30.5,6.5c16.8,0,30.5-2.9,30.5-6.5V165.2z"/>
	<g>
		<ellipse fill="#C6DD9F" cx="344.6" cy="165.2" rx="30" ry="6.5"/>
		<path fill="#333333" d="M375.6,165.3c0,0,0,0.1-0.1,0.4c-0.1,0.5-0.4,1-0.8,1.4c-0.8,0.9-2.2,1.6-3.9,2.2
			c-3.4,1.2-8.4,1.9-14.4,2.3c-3,0.2-6.2,0.3-9.6,0.3c-3.4,0-7,0-10.8-0.2c-3.7-0.1-7.6-0.4-11.5-1c-2-0.3-3.9-0.7-5.9-1.3
			c-1-0.3-2-0.7-2.9-1.2c-0.5-0.3-1-0.6-1.4-1.1c-0.2-0.2-0.4-0.5-0.6-0.8c-0.1-0.2-0.1-0.4-0.2-0.5c0-0.1,0-0.2-0.1-0.3l0-0.2
			l0-0.1c0-0.1,0,0.1,0-0.2c0-0.1,0-0.2,0.1-0.4c0.1-0.2,0.1-0.5,0.2-0.6c0.2-0.3,0.4-0.6,0.6-0.8c0.4-0.5,0.9-0.8,1.4-1.1
			c1-0.6,1.9-1,2.9-1.3c1.9-0.7,3.9-1.1,5.9-1.5c3.9-0.8,7.8-1.2,11.5-1.4c3.7-0.2,7.4-0.4,10.8-0.3c3.4,0.1,6.7,0.3,9.7,0.6
			c6,0.6,11,1.6,14.4,2.8c1.7,0.6,3,1.4,3.9,2.3c0.4,0.4,0.7,1,0.8,1.3c0.1,0.4,0.1,0.6,0.1,0.6L375.6,165.3z M373.7,165.2
			c0,0,0.1-0.1-0.3-0.6c-0.4-0.5-1.5-1.2-3.1-1.7c-3.1-1.1-8-2.1-13.8-2.6c-2.9-0.3-6.1-0.4-9.5-0.5c-3.4,0-7,0-10.6,0.2
			c-3.7,0.2-7.5,0.6-11.3,1.3c-1.9,0.4-3.8,0.8-5.6,1.4c-0.9,0.3-1.8,0.7-2.5,1.1c-0.4,0.2-0.7,0.5-1,0.7c-0.1,0.1-0.2,0.3-0.3,0.4
			c0,0.1,0,0,0,0c0,0.1,0,0.2,0,0.3c0-0.2,0-0.1,0-0.1l0,0l0,0c0,0,0,0,0,0.1c0,0,0,0.1,0.1,0.1c0.1,0.1,0.1,0.2,0.3,0.4
			c0.2,0.3,0.6,0.5,1,0.8c0.8,0.5,1.6,0.8,2.5,1.2c1.8,0.7,3.7,1.2,5.6,1.6c3.8,0.9,7.6,1.4,11.3,1.7c7.4,0.6,14.4,0.4,20.3-0.4
			c5.9-0.7,10.7-1.9,13.8-3.1c1.5-0.6,2.6-1.3,3.1-1.8c0.2-0.3,0.2-0.4,0.3-0.4c0-0.2,0-0.3,0-0.3L373.7,165.2z"/>
	</g>
</g>
<g>
	<path fill="#EBAAAB" stroke="#333333" stroke-width="2" stroke-miterlimit="10" d="M374.7,137.5c0-3.6-13.7-6.5-30.5-6.5
		c-16.8,0-30.5,2.9-30.5,6.5V157c0,3.6,13.7,6.5,30.5,6.5c16.8,0,30.5-2.9,30.5-6.5V137.5z"/>
	<g>
		<ellipse fill="#EBAAAB" cx="344.6" cy="137.5" rx="30" ry="6.5"/>
		<path fill="#333333" d="M375.6,137.7c0,0,0,0.1-0.1,0.4c-0.1,0.5-0.4,1-0.8,1.4c-0.8,0.9-2.2,1.6-3.9,2.2
			c-3.4,1.2-8.4,1.9-14.4,2.3c-3,0.2-6.2,0.3-9.6,0.3c-3.4,0-7,0-10.8-0.2c-3.7-0.1-7.6-0.4-11.5-1c-2-0.3-3.9-0.7-5.9-1.3
			c-1-0.3-2-0.7-2.9-1.2c-0.5-0.3-1-0.6-1.4-1.1c-0.2-0.2-0.4-0.5-0.6-0.8c-0.1-0.2-0.1-0.4-0.2-0.5c0-0.1,0-0.2-0.1-0.3l0-0.2
			l0-0.1c0-0.1,0,0.1,0-0.2c0-0.1,0-0.2,0.1-0.4c0.1-0.2,0.1-0.5,0.2-0.6c0.2-0.3,0.4-0.6,0.6-0.8c0.4-0.5,0.9-0.8,1.4-1.1
			c1-0.6,1.9-1,2.9-1.3c1.9-0.7,3.9-1.1,5.9-1.5c3.9-0.8,7.8-1.2,11.5-1.4c3.7-0.2,7.4-0.4,10.8-0.3c3.4,0.1,6.7,0.3,9.7,0.6
			c6,0.6,11,1.6,14.4,2.8c1.7,0.6,3,1.4,3.9,2.3c0.4,0.4,0.7,1,0.8,1.3c0.1,0.4,0.1,0.6,0.1,0.6L375.6,137.7z M373.7,137.5
			c0,0,0.1-0.1-0.3-0.6c-0.4-0.5-1.5-1.2-3.1-1.7c-3.1-1.1-8-2.1-13.8-2.6c-2.9-0.3-6.1-0.4-9.5-0.5c-3.4,0-7,0-10.6,0.2
			c-3.7,0.2-7.5,0.6-11.3,1.3c-1.9,0.4-3.8,0.8-5.6,1.4c-0.9,0.3-1.8,0.7-2.5,1.1c-0.4,0.2-0.7,0.5-1,0.7c-0.1,0.1-0.2,0.3-0.3,0.4
			c0,0.1,0,0,0,0c0,0.1,0,0.2,0,0.3c0-0.2,0-0.1,0-0.1l0,0l0,0c0,0,0,0,0,0.1c0,0,0,0.1,0.1,0.1c0.1,0.1,0.1,0.2,0.3,0.4
			c0.2,0.3,0.6,0.5,1,0.8c0.8,0.5,1.6,0.8,2.5,1.2c1.8,0.7,3.7,1.2,5.6,1.6c3.8,0.9,7.6,1.4,11.3,1.7c7.4,0.6,14.4,0.4,20.3-0.4
			c5.9-0.7,10.7-1.9,13.8-3.1c1.5-0.6,2.6-1.3,3.1-1.8c0.2-0.3,0.2-0.4,0.3-0.4c0-0.2,0-0.3,0-0.3L373.7,137.5z"/>
	</g>
</g>
<g>
	<path fill="#EBAAAB" stroke="#333333" stroke-width="2" stroke-miterlimit="10" d="M374.7,109.9c0-3.6-13.7-6.5-30.5-6.5
		c-16.8,0-30.5,2.9-30.5,6.5v19.5c0,3.6,13.7,6.5,30.5,6.5c16.8,0,30.5-2.9,30.5-6.5V109.9z"/>
	<g>
		<ellipse fill="#EBAAAB" cx="344.6" cy="109.9" rx="30" ry="6.5"/>
		<path fill="#333333" d="M375.6,110c0,0,0,0.1-0.1,0.4c-0.1,0.5-0.4,1-0.8,1.4c-0.8,0.9-2.2,1.6-3.9,2.2c-3.4,1.2-8.4,1.9-14.4,2.3
			c-3,0.2-6.2,0.3-9.6,0.3c-3.4,0-7,0-10.8-0.2c-3.7-0.1-7.6-0.4-11.5-1c-2-0.3-3.9-0.7-5.9-1.3c-1-0.3-2-0.7-2.9-1.2
			c-0.5-0.3-1-0.6-1.4-1.1c-0.2-0.2-0.4-0.5-0.6-0.8c-0.1-0.2-0.1-0.4-0.2-0.5c0-0.1,0-0.2-0.1-0.3l0-0.2l0-0.1c0-0.1,0,0.1,0-0.2
			c0-0.1,0-0.2,0.1-0.4c0.1-0.2,0.1-0.5,0.2-0.6c0.2-0.3,0.4-0.6,0.6-0.8c0.4-0.5,0.9-0.8,1.4-1.1c1-0.6,1.9-1,2.9-1.3
			c1.9-0.7,3.9-1.1,5.9-1.5c3.9-0.8,7.8-1.2,11.5-1.4c3.7-0.2,7.4-0.4,10.8-0.3c3.4,0.1,6.7,0.3,9.7,0.6c6,0.6,11,1.6,14.4,2.8
			c1.7,0.6,3,1.4,3.9,2.3c0.4,0.4,0.7,1,0.8,1.3c0.1,0.4,0.1,0.6,0.1,0.6L375.6,110z M373.7,109.9c0,0,0.1-0.1-0.3-0.6
			c-0.4-0.5-1.5-1.2-3.1-1.7c-3.1-1.1-8-2.1-13.8-2.6c-2.9-0.3-6.1-0.4-9.5-0.5c-3.4,0-7,0-10.6,0.2c-3.7,0.2-7.5,0.6-11.3,1.3
			c-1.9,0.4-3.8,0.8-5.6,1.4c-0.9,0.3-1.8,0.7-2.5,1.1c-0.4,0.2-0.7,0.5-1,0.7c-0.1,0.1-0.2,0.3-0.3,0.4c0,0.1,0,0,0,0
			c0,0.1,0,0.2,0,0.3c0-0.2,0-0.1,0-0.1l0,0l0,0c0,0,0,0,0,0.1c0,0,0,0.1,0.1,0.1c0.1,0.1,0.1,0.2,0.3,0.4c0.2,0.3,0.6,0.5,1,0.8
			c0.8,0.5,1.6,0.8,2.5,1.2c1.8,0.7,3.7,1.2,5.6,1.6c3.8,0.9,7.6,1.4,11.3,1.7c7.4,0.6,14.4,0.4,20.3-0.4c5.9-0.7,10.7-1.9,13.8-3.1
			c1.5-0.6,2.6-1.3,3.1-1.8c0.2-0.3,0.2-0.4,0.3-0.4c0-0.2,0-0.3,0-0.3L373.7,109.9z"/>
	</g>
</g>
<g>
	<path fill="#FFFFFF" stroke="#333333" stroke-width="2" stroke-miterlimit="10" d="M485.7,192.9c0-3.6-13.7-6.5-30.5-6.5
		c-16.8,0-30.5,2.9-30.5,6.5v19.5c0,3.6,13.7,6.5,30.5,6.5c16.8,0,30.5-2.9,30.5-6.5V192.9z"/>
	<g>
		<ellipse fill="#FFFFFF" cx="455.3" cy="192.9" rx="30" ry="6.5"/>
		<path fill="#333333" d="M486.3,193c0,0,0,0.1-0.1,0.4c-0.1,0.5-0.4,1-0.8,1.4c-0.8,0.9-2.2,1.6-3.9,2.2c-3.4,1.2-8.4,1.9-14.4,2.3
			c-3,0.2-6.2,0.3-9.6,0.3c-3.4,0-7,0-10.8-0.2c-3.7-0.1-7.6-0.4-11.5-1c-2-0.3-3.9-0.7-5.9-1.3c-1-0.3-2-0.7-2.9-1.2
			c-0.5-0.3-1-0.6-1.4-1.1c-0.2-0.2-0.4-0.5-0.6-0.8c-0.1-0.2-0.1-0.4-0.2-0.5c0-0.1,0-0.2-0.1-0.3l0-0.2l0-0.1c0-0.1,0,0.1,0-0.2
			c0-0.1,0-0.2,0.1-0.4c0.1-0.2,0.1-0.5,0.2-0.6c0.2-0.3,0.4-0.6,0.6-0.8c0.4-0.5,0.9-0.8,1.4-1.1c1-0.6,1.9-1,2.9-1.3
			c1.9-0.7,3.9-1.1,5.9-1.5c3.9-0.8,7.8-1.2,11.5-1.4c3.7-0.2,7.4-0.4,10.8-0.3c3.4,0.1,6.7,0.3,9.7,0.6c6,0.6,11,1.6,14.4,2.8
			c1.7,0.6,3,1.4,3.9,2.3c0.4,0.4,0.7,1,0.8,1.3c0.1,0.4,0.1,0.6,0.1,0.6L486.3,193z M484.3,192.9c0,0,0.1-0.1-0.3-0.6
			c-0.4-0.5-1.5-1.2-3.1-1.7c-3.1-1.1-8-2.1-13.8-2.6c-2.9-0.3-6.1-0.4-9.5-0.5c-3.4,0-7,0-10.6,0.2c-3.7,0.2-7.5,0.6-11.3,1.3
			c-1.9,0.4-3.8,0.8-5.6,1.4c-0.9,0.3-1.8,0.7-2.5,1.1c-0.4,0.2-0.7,0.5-1,0.7c-0.1,0.1-0.2,0.3-0.3,0.4c0,0.1,0,0,0,0
			c0,0.1,0,0.2,0,0.3c0-0.2,0-0.1,0-0.1l0,0l0,0c0,0,0,0,0,0.1c0,0,0,0.1,0.1,0.1c0.1,0.1,0.1,0.2,0.3,0.4c0.2,0.3,0.6,0.5,1,0.8
			c0.8,0.5,1.6,0.8,2.5,1.2c1.8,0.7,3.7,1.2,5.6,1.6c3.8,0.9,7.6,1.4,11.3,1.7c7.4,0.6,14.4,0.4,20.3-0.4c5.9-0.7,10.7-1.9,13.8-3.1
			c1.5-0.6,2.6-1.3,3.1-1.8c0.2-0.3,0.2-0.4,0.3-0.4c0-0.2,0-0.3,0-0.3L484.3,192.9z"/>
	</g>
</g>
<g>
	<path fill="#FFFFFF" stroke="#333333" stroke-width="2" stroke-miterlimit="10" d="M485.7,165.2c0-3.6-13.7-6.5-30.5-6.5
		c-16.8,0-30.5,2.9-30.5,6.5v19.5c0,3.6,13.7,6.5,30.5,6.5c16.8,0,30.5-2.9,30.5-6.5V165.2z"/>
	<g>
		<ellipse fill="#FFFFFF" cx="455.3" cy="165.2" rx="30" ry="6.5"/>
		<path fill="#333333" d="M486.3,165.3c0,0,0,0.1-0.1,0.4c-0.1,0.5-0.4,1-0.8,1.4c-0.8,0.9-2.2,1.6-3.9,2.2
			c-3.4,1.2-8.4,1.9-14.4,2.3c-3,0.2-6.2,0.3-9.6,0.3c-3.4,0-7,0-10.8-0.2c-3.7-0.1-7.6-0.4-11.5-1c-2-0.3-3.9-0.7-5.9-1.3
			c-1-0.3-2-0.7-2.9-1.2c-0.5-0.3-1-0.6-1.4-1.1c-0.4-0.4-0.9-1.1-0.9-2l0-0.2l0-0.1c0-0.1,0-0.1,0-0.2c0.1-0.2,0.1-0.5,0.2-0.6
			c0.2-0.3,0.4-0.6,0.6-0.8c0.4-0.5,0.9-0.8,1.4-1.1c1-0.6,1.9-1,2.9-1.3c1.9-0.7,3.9-1.1,5.9-1.5c3.9-0.8,7.8-1.2,11.5-1.4
			c3.7-0.2,7.4-0.4,10.8-0.3c3.4,0.1,6.7,0.3,9.7,0.6c6,0.6,11,1.6,14.4,2.8c1.7,0.6,3,1.4,3.9,2.3c0.4,0.4,0.7,1,0.8,1.3
			c0.1,0.4,0.1,0.6,0.1,0.6L486.3,165.3z M484.3,165.2c0,0,0.1-0.1-0.3-0.6c-0.4-0.5-1.5-1.2-3.1-1.7c-3.1-1.1-8-2.1-13.8-2.6
			c-2.9-0.3-6.1-0.4-9.5-0.5c-3.4,0-7,0-10.6,0.2c-3.7,0.2-7.5,0.6-11.3,1.3c-1.9,0.4-3.8,0.8-5.6,1.4c-0.9,0.3-1.8,0.7-2.5,1.1
			c-0.4,0.2-0.7,0.5-1,0.7c-0.1,0.1-0.2,0.3-0.3,0.4c0,0.1,0,0,0,0c0,0,0,0.1,0,0.2l0,0.1l0,0c0,0,0,0.1,0-0.1
			c0,0.1,0.1,0.4,0.3,0.6c0.2,0.3,0.6,0.5,1,0.8c0.8,0.5,1.6,0.8,2.5,1.2c1.8,0.7,3.7,1.2,5.6,1.6c3.8,0.9,7.6,1.4,11.3,1.7
			c7.4,0.6,14.4,0.4,20.3-0.4c5.9-0.7,10.7-1.9,13.8-3.1c1.5-0.6,2.6-1.3,3.1-1.8c0.2-0.3,0.2-0.4,0.3-0.4c0-0.2,0-0.3,0-0.3
			L484.3,165.2z"/>
	</g>
</g>
<g>
	<path fill="#CCCCCC" stroke="#333333" stroke-width="2" stroke-miterlimit="10" d="M485.7,137.5c0-3.6-13.7-6.5-30.5-6.5
		c-16.8,0-30.5,2.9-30.5,6.5V157c0,3.6,13.7,6.5,30.5,6.5c16.8,0,30.5-2.9,30.5-6.5V137.5z"/>
	<g>
		<ellipse fill="#CCCCCC" cx="455.3" cy="137.5" rx="30" ry="6.5"/>
		<path fill="#333333" d="M486.3,137.7c0,0,0,0.1-0.1,0.4c-0.1,0.5-0.4,1-0.8,1.4c-0.8,0.9-2.2,1.6-3.9,2.2
			c-3.4,1.2-8.4,1.9-14.4,2.3c-3,0.2-6.2,0.3-9.6,0.3c-3.4,0-7,0-10.8-0.2c-3.7-0.1-7.6-0.4-11.5-1c-2-0.3-3.9-0.7-5.9-1.3
			c-1-0.3-2-0.7-2.9-1.2c-0.5-0.3-1-0.6-1.4-1.1c-0.4-0.4-0.9-1.1-0.9-2l0-0.2l0-0.1c0-0.1,0-0.1,0-0.2c0.1-0.2,0.1-0.5,0.2-0.6
			c0.2-0.3,0.4-0.6,0.6-0.8c0.4-0.5,0.9-0.8,1.4-1.1c1-0.6,1.9-1,2.9-1.3c1.9-0.7,3.9-1.1,5.9-1.5c3.9-0.8,7.8-1.2,11.5-1.4
			c3.7-0.2,7.4-0.4,10.8-0.3c3.4,0.1,6.7,0.3,9.7,0.6c6,0.6,11,1.6,14.4,2.8c1.7,0.6,3,1.4,3.9,2.3c0.4,0.4,0.7,1,0.8,1.3
			c0.1,0.4,0.1,0.6,0.1,0.6L486.3,137.7z M484.3,137.5c0,0,0.1-0.1-0.3-0.6c-0.4-0.5-1.5-1.2-3.1-1.7c-3.1-1.1-8-2.1-13.8-2.6
			c-2.9-0.3-6.1-0.4-9.5-0.5c-3.4,0-7,0-10.6,0.2c-3.7,0.2-7.5,0.6-11.3,1.3c-1.9,0.4-3.8,0.8-5.6,1.4c-0.9,0.3-1.8,0.7-2.5,1.1
			c-0.4,0.2-0.7,0.5-1,0.7c-0.1,0.1-0.2,0.3-0.3,0.4c0,0.1,0,0,0,0c0,0,0,0.1,0,0.2l0,0.1l0,0c0,0,0,0.1,0-0.1
			c0,0.1,0.1,0.4,0.3,0.6c0.2,0.3,0.6,0.5,1,0.8c0.8,0.5,1.6,0.8,2.5,1.2c1.8,0.7,3.7,1.2,5.6,1.6c3.8,0.9,7.6,1.4,11.3,1.7
			c7.4,0.6,14.4,0.4,20.3-0.4c5.9-0.7,10.7-1.9,13.8-3.1c1.5-0.6,2.6-1.3,3.1-1.8c0.2-0.3,0.2-0.4,0.3-0.4c0-0.2,0-0.3,0-0.3
			L484.3,137.5z"/>
	</g>
</g>
<g>
	<path fill="#CCCCCC" stroke="#333333" stroke-width="2" stroke-miterlimit="10" d="M485.7,109.9c0-3.6-13.7-6.5-30.5-6.5
		c-16.8,0-30.5,2.9-30.5,6.5v19.5c0,3.6,13.7,6.5,30.5,6.5c16.8,0,30.5-2.9,30.5-6.5V109.9z"/>
	<g>
		<ellipse fill="#CCCCCC" cx="455.3" cy="109.9" rx="30" ry="6.5"/>
		<path fill="#333333" d="M486.3,110c0,0,0,0.1-0.1,0.4c-0.1,0.5-0.4,1-0.8,1.4c-0.8,0.9-2.2,1.6-3.9,2.2c-3.4,1.2-8.4,1.9-14.4,2.3
			c-3,0.2-6.2,0.3-9.6,0.3c-3.4,0-7,0-10.8-0.2c-3.7-0.1-7.6-0.4-11.5-1c-2-0.3-3.9-0.7-5.9-1.3c-1-0.3-2-0.7-2.9-1.2
			c-0.5-0.3-1-0.6-1.4-1.1c-0.2-0.2-0.4-0.5-0.6-0.8c-0.1-0.2-0.1-0.4-0.2-0.5c0-0.1,0-0.2-0.1-0.3l0-0.2l0-0.1c0-0.1,0,0.1,0-0.2
			c0-0.1,0-0.2,0.1-0.4c0.1-0.2,0.1-0.5,0.2-0.6c0.2-0.3,0.4-0.6,0.6-0.8c0.4-0.5,0.9-0.8,1.4-1.1c1-0.6,1.9-1,2.9-1.3
			c1.9-0.7,3.9-1.1,5.9-1.5c3.9-0.8,7.8-1.2,11.5-1.4c3.7-0.2,7.4-0.4,10.8-0.3c3.4,0.1,6.7,0.3,9.7,0.6c6,0.6,11,1.6,14.4,2.8
			c1.7,0.6,3,1.4,3.9,2.3c0.4,0.4,0.7,1,0.8,1.3c0.1,0.4,0.1,0.6,0.1,0.6L486.3,110z M484.3,109.9c0,0,0.1-0.1-0.3-0.6
			c-0.4-0.5-1.5-1.2-3.1-1.7c-3.1-1.1-8-2.1-13.8-2.6c-2.9-0.3-6.1-0.4-9.5-0.5c-3.4,0-7,0-10.6,0.2c-3.7,0.2-7.5,0.6-11.3,1.3
			c-1.9,0.4-3.8,0.8-5.6,1.4c-0.9,0.3-1.8,0.7-2.5,1.1c-0.4,0.2-0.7,0.5-1,0.7c-0.1,0.1-0.2,0.3-0.3,0.4c0,0.1,0,0,0,0
			c0,0.1,0,0.2,0,0.3c0-0.2,0-0.1,0-0.1l0,0l0,0c0,0,0,0,0,0.1c0,0,0,0.1,0.1,0.1c0.1,0.1,0.1,0.2,0.3,0.4c0.2,0.3,0.6,0.5,1,0.8
			c0.8,0.5,1.6,0.8,2.5,1.2c1.8,0.7,3.7,1.2,5.6,1.6c3.8,0.9,7.6,1.4,11.3,1.7c7.4,0.6,14.4,0.4,20.3-0.4c5.9-0.7,10.7-1.9,13.8-3.1
			c1.5-0.6,2.6-1.3,3.1-1.8c0.2-0.3,0.2-0.4,0.3-0.4c0-0.2,0-0.3,0-0.3L484.3,109.9z"/>
	</g>
</g>
<g>
	<text transform="matrix(1 0 0 1 329.7721 130.6392)" fill="#333333" font-family="'KievitOT-Bold'" font-size="18px">M 8</text>
	<text transform="matrix(1 0 0 1 329.7718 158.3059)" fill="#333333" font-family="'KievitOT-Bold'" font-size="18px">M 9</text>
	<text transform="matrix(1 0 0 1 329.7718 212.0211)" fill="#333333" font-family="'KievitOT-Bold'" font-size="18px">M 11</text>
	<text transform="matrix(1 0 0 1 329.7721 184.6877)" fill="#333333" font-family="'KievitOT-Bold'" font-size="18px">M 10</text>
</g>
<g>
	<text transform="matrix(1 0 0 1 440.2721 130.6391)" fill="#333333" font-family="'KievitOT-Bold'" font-size="18px">M 12</text>
	<text transform="matrix(1 0 0 1 440.2718 158.3058)" fill="#333333" font-family="'KievitOT-Bold'" font-size="18px">M 13</text>
	<text transform="matrix(1 0 0 1 440.2718 212.0211)" fill="#333333" font-family="'KievitOT-Bold'" font-size="18px">M 15</text>
	<text transform="matrix(1 0 0 1 440.2721 184.6876)" fill="#333333" font-family="'KievitOT-Bold'" font-size="18px">M 14</text>
</g>
<g>
	<g>
		<line fill="none" stroke="#00B9BE" stroke-width="2" stroke-miterlimit="10" x1="81.2" y1="248.5" x2="81.2" y2="162"/>
		<g>
			<polygon fill="#00B9BE" points="81.2,259.8 87.7,243.9 81.2,247.7 74.7,243.9 			"/>
		</g>
	</g>
</g>
<g>
	<g>
		<line fill="none" stroke="#FFC425" stroke-width="2" stroke-miterlimit="10" x1="193.1" y1="248.5" x2="193.1" y2="162"/>
		<g>
			<polygon fill="#FFC425" points="193.1,259.8 199.6,243.9 193.1,247.7 186.6,243.9 			"/>
		</g>
	</g>
</g>
<g>
	<g>
		<line fill="none" stroke="#71AB0F" stroke-width="2" stroke-miterlimit="10" x1="305.8" y1="248.5" x2="305.8" y2="162"/>
		<g>
			<polygon fill="#71AB0F" points="305.8,259.8 312.3,243.9 305.8,247.7 299.3,243.9 			"/>
		</g>
	</g>
</g>
<g>
	<g>
		<line fill="none" stroke="#333333" stroke-width="2" stroke-miterlimit="10" x1="415.7" y1="248.5" x2="415.7" y2="162"/>
		<g>
			<polygon fill="#333333" points="415.7,259.8 422.2,243.9 415.7,247.7 409.2,243.9 			"/>
		</g>
	</g>
</g>
<g>
	<g>
		<line fill="none" stroke="#A28FCA" stroke-width="2" stroke-miterlimit="10" x1="160" y1="158.3" x2="160" y2="71.8"/>
		<g>
			<polygon fill="#A28FCA" points="160,60.5 166.5,76.5 160,72.7 153.5,76.5 			"/>
		</g>
	</g>
</g>
<g>
	<g>
		<line fill="none" stroke="#00ACE0" stroke-width="2" stroke-miterlimit="10" x1="272" y1="158.3" x2="272" y2="71.8"/>
		<g>
			<polygon fill="#00ACE0" points="272,60.5 278.5,76.5 272,72.7 265.5,76.5 			"/>
		</g>
	</g>
</g>
<g>
	<g>
		<line fill="none" stroke="#CC2A2E" stroke-width="2" stroke-miterlimit="10" x1="384" y1="158.3" x2="384" y2="71.8"/>
		<g>
			<polygon fill="#CC2A2E" points="384,60.5 390.5,76.5 384,72.7 377.5,76.5 			"/>
		</g>
	</g>
</g>
<g>
	<g>
		<line fill="none" stroke="#7F7F7F" stroke-width="2" stroke-miterlimit="10" x1="495.3" y1="158.3" x2="495.3" y2="71.8"/>
		<g>
			<polygon fill="#7F7F7F" points="495.3,60.5 501.8,76.5 495.3,72.7 488.8,76.5 			"/>
		</g>
	</g>
</g>
<g>
	<g>
		<path fill="#CCCCCC" d="M510.6,56.4c0,1.4-0.3,2.5-0.7,2.5h-70.5c-0.4,0-0.7-1.1-0.7-2.5v-49c0-1.4,0.3-2.5,0.7-2.5h70.5
			c0.4,0,0.7,1.1,0.7,2.5V56.4z"/>
		<path fill="#CCCCCC" d="M510.6,56.4c0,1.4-0.3,2.5-0.7,2.5h-70.5c-0.4,0-0.7-1.1-0.7-2.5v-49c0-1.4,0.3-2.5,0.7-2.5h70.5
			c0.4,0,0.7,1.1,0.7,2.5V56.4z"/>
	</g>
	<g>
		<path fill="#EBAAAB" d="M439.8,56.4c0,1.4-0.3,2.5-0.7,2.5h-69.5c-0.4,0-0.7-1.1-0.7-2.5v-49c0-1.4,0.3-2.5,0.7-2.5h69.5
			c0.4,0,0.7,1.1,0.7,2.5V56.4z"/>
		<path fill="#EBAAAB" d="M439.8,56.4c0,1.4-0.3,2.5-0.7,2.5h-69.5c-0.4,0-0.7-1.1-0.7-2.5v-49c0-1.4,0.3-2.5,0.7-2.5h69.5
			c0.4,0,0.7,1.1,0.7,2.5V56.4z"/>
	</g>
	<text transform="matrix(1 0 0 1 377.5752 26.4279)"><tspan x="0" y="0" fill="#333333" font-family="'KievitOT-Bold'" font-size="21px">Sync Gateway</tspan><tspan x="0" y="25.2" fill="#333333" font-family="'KievitOT-Bold'" font-size="21px">CI Writer     2</tspan></text>
	<g>
		<path fill="none" stroke="#333333" stroke-width="3" stroke-miterlimit="10" d="M511.5,57.5c0,1.1-0.9,2-2,2h-138
			c-1.1,0-2-0.9-2-2v-51c0-1.1,0.9-2,2-2h138c1.1,0,2,0.9,2,2V57.5z"/>
	</g>
</g>
<g>
	<g>
		<path fill="#FFE7A8" d="M208.6,312.4c0,1.4-0.3,2.5-0.7,2.5h-70.5c-0.4,0-0.7-1.1-0.7-2.5v-49c0-1.4,0.3-2.5,0.7-2.5h70.5
			c0.4,0,0.7,1.1,0.7,2.5V312.4z"/>
		<path fill="#FFE7A8" d="M208.6,312.4c0,1.4-0.3,2.5-0.7,2.5h-70.5c-0.4,0-0.7-1.1-0.7-2.5v-49c0-1.4,0.3-2.5,0.7-2.5h70.5
			c0.4,0,0.7,1.1,0.7,2.5V312.4z"/>
	</g>
	<g>
		<path fill="#99E3E5" d="M137.8,312.4c0,1.4-0.3,2.5-0.7,2.5H67.7c-0.4,0-0.7-1.1-0.7-2.5v-49c0-1.4,0.3-2.5,0.7-2.5h69.5
			c0.4,0,0.7,1.1,0.7,2.5V312.4z"/>
		<path fill="#99E3E5" d="M137.8,312.4c0,1.4-0.3,2.5-0.7,2.5H67.7c-0.4,0-0.7-1.1-0.7-2.5v-49c0-1.4,0.3-2.5,0.7-2.5h69.5
			c0.4,0,0.7,1.1,0.7,2.5V312.4z"/>
	</g>
	<text transform="matrix(1 0 0 1 75.5752 282.4279)"><tspan x="0" y="0" fill="#333333" font-family="'KievitOT-Bold'" font-size="21px">Sync Gateway</tspan><tspan x="0" y="25.2" fill="#333333" font-family="'KievitOT-Bold'" font-size="21px">CI Writer     3</tspan></text>
	<g>
		<path fill="none" stroke="#333333" stroke-width="3" stroke-miterlimit="10" d="M209.5,313.5c0,1.1-0.9,2-2,2h-138
			c-1.1,0-2-0.9-2-2v-51c0-1.1,0.9-2,2-2h138c1.1,0,2,0.9,2,2V313.5z"/>
	</g>
</g>
<g>
	<g>
		<path fill="#FFFFFF" d="M431.6,312.4c0,1.4-0.3,2.5-0.7,2.5h-70.5c-0.4,0-0.7-1.1-0.7-2.5v-49c0-1.4,0.3-2.5,0.7-2.5h70.5
			c0.4,0,0.7,1.1,0.7,2.5V312.4z"/>
		<path fill="#FFFFFF" d="M431.6,312.4c0,1.4-0.3,2.5-0.7,2.5h-70.5c-0.4,0-0.7-1.1-0.7-2.5v-49c0-1.4,0.3-2.5,0.7-2.5h70.5
			c0.4,0,0.7,1.1,0.7,2.5V312.4z"/>
	</g>
	<g>
		<path fill="#C6DD9F" d="M360.8,312.4c0,1.4-0.3,2.5-0.7,2.5h-69.5c-0.4,0-0.7-1.1-0.7-2.5v-49c0-1.4,0.3-2.5,0.7-2.5h69.5
			c0.4,0,0.7,1.1,0.7,2.5V312.4z"/>
		<path fill="#C6DD9F" d="M360.8,312.4c0,1.4-0.3,2.5-0.7,2.5h-69.5c-0.4,0-0.7-1.1-0.7-2.5v-49c0-1.4,0.3-2.5,0.7-2.5h69.5
			c0.4,0,0.7,1.1,0.7,2.5V312.4z"/>
	</g>
	<text transform="matrix(1 0 0 1 298.5752 282.4279)"><tspan x="0" y="0" fill="#333333" font-family="'KievitOT-Bold'" font-size="21px">Sync Gateway</tspan><tspan x="0" y="25.2" fill="#333333" font-family="'KievitOT-Bold'" font-size="21px">CI Writer     4</tspan></text>
	<g>
		<path fill="none" stroke="#333333" stroke-width="3" stroke-miterlimit="10" d="M432.5,313.5c0,1.1-0.9,2-2,2h-138
			c-1.1,0-2-0.9-2-2v-51c0-1.1,0.9-2,2-2h138c1.1,0,2,0.9,2,2V313.5z"/>
	</g>
</g>
<g>
	<g>
		<circle fill="#FF8900" cx="72.5" cy="94.1" r="18.8"/>
	</g>
	<text transform="matrix(1 0 0 1 66.1635 102.3242)" fill="#FFFFFF" font-family="'KievitOT-Bold'" font-size="36px">1</text>
</g>
<g>
	<g>
		<circle fill="#FF8900" cx="330.7" cy="31.5" r="18.8"/>
	</g>
	<text transform="matrix(1 0 0 1 321.3579 39.6913)" fill="#FFFFFF" font-family="'KievitOT-Bold'" font-size="36px">2</text>
</g>
<text transform="matrix(1 0 0 1 12.6935 117.5991)"><tspan x="0" y="0" fill="#333333" font-family="'KievitOT-Bold'" font-size="18px">App</tspan><tspan x="0" y="21.6" fill="#333333" font-family="'KievitOT-Bold'" font-size="18px">data</tspan><tspan x="0" y="43.2" fill="#333333" font-family="'KievitOT-Bold'" font-size="18px">bucket</tspan></text>
</svg>
