<?xml version="1.0" encoding="utf-8"?>
<!-- Generator: Adobe Illustrator 19.1.0, SVG Export Plug-In . SVG Version: 6.00 Build 0)  -->
<svg version="1.1" id="Layer_1" xmlns="http://www.w3.org/2000/svg" xmlns:xlink="http://www.w3.org/1999/xlink" x="0px" y="0px"
	 viewBox="0 0 515.3 344.7" enable-background="new 0 0 515.3 344.7" xml:space="preserve">
<g>
	<path fill="#FFFFFF" d="M281,245.7c0,1.1-0.9,2-2,2h-93c-1.1,0-2-0.9-2-2v-144c0-1.1,0.9-2,2-2h93c1.1,0,2,0.9,2,2V245.7z"/>
	<path fill="none" stroke="#333333" stroke-width="3" stroke-miterlimit="10" d="M281.5,245.2c0,1.1-0.9,2-2,2h-93c-1.1,0-2-0.9-2-2
		v-144c0-1.1,0.9-2,2-2h93c1.1,0,2,0.9,2,2V245.2z"/>
</g>
<g>
	<path fill="#FFFFFF" d="M170,245.7c0,1.1-0.9,2-2,2H75c-1.1,0-2-0.9-2-2v-144c0-1.1,0.9-2,2-2h93c1.1,0,2,0.9,2,2V245.7z"/>
	<path fill="none" stroke="#333333" stroke-width="3" stroke-miterlimit="10" d="M169.5,245.2c0,1.1-0.9,2-2,2h-93c-1.1,0-2-0.9-2-2
		v-144c0-1.1,0.9-2,2-2h93c1.1,0,2,0.9,2,2V245.2z"/>
</g>
<g>
	<path fill="#FFFFFF" d="M393,245.7c0,1.1-0.9,2-2,2h-93c-1.1,0-2-0.9-2-2v-144c0-1.1,0.9-2,2-2h93c1.1,0,2,0.9,2,2V245.7z"/>
	<path fill="none" stroke="#333333" stroke-width="3" stroke-miterlimit="10" d="M393.5,245.2c0,1.1-0.9,2-2,2h-93c-1.1,0-2-0.9-2-2
		v-144c0-1.1,0.9-2,2-2h93c1.1,0,2,0.9,2,2V245.2z"/>
</g>
<g>
	<path fill="#FFFFFF" d="M504,245.7c0,1.1-0.9,2-2,2h-93c-1.1,0-2-0.9-2-2v-144c0-1.1,0.9-2,2-2h93c1.1,0,2,0.9,2,2V245.7z"/>
	<path fill="none" stroke="#333333" stroke-width="3" stroke-miterlimit="10" d="M503.5,245.2c0,1.1-0.9,2-2,2h-93c-1.1,0-2-0.9-2-2
		v-144c0-1.1,0.9-2,2-2h93c1.1,0,2,0.9,2,2V245.2z"/>
</g>
<g opacity="0.7">
	<path fill="#CCCCCC" d="M501,234.7c0,1.1-0.9,2-2,2H6c-1.1,0-2-0.9-2-2v-125c0-1.1,0.9-2,2-2h493c1.1,0,2,0.9,2,2V234.7z"/>
</g>
<g>
	<path fill="#DAD2EA" d="M163.4,336.9c0,1.4-0.2,2.5-0.5,2.5h-50.3c-0.3,0-0.5-1.1-0.5-2.5v-49c0-1.4,0.2-2.5,0.5-2.5h50.3
		c0.3,0,0.5,1.1,0.5,2.5V336.9z"/>
	<path fill="#DAD2EA" d="M163.4,336.9c0,1.4-0.2,2.5-0.5,2.5h-50.3c-0.3,0-0.5-1.1-0.5-2.5v-49c0-1.4,0.2-2.5,0.5-2.5h50.3
		c0.3,0,0.5,1.1,0.5,2.5V336.9z"/>
</g>
<g>
	<path fill="#FFE7A8" d="M208.6,336.8c0,1.4-0.2,2.5-0.4,2.5h-44.9c-0.2,0-0.4-1.1-0.4-2.5v-49c0-1.4,0.2-2.5,0.4-2.5h44.9
		c0.2,0,0.4,1.1,0.4,2.5V336.8z"/>
	<path fill="#FFE7A8" d="M208.6,336.8c0,1.4-0.2,2.5-0.4,2.5h-44.9c-0.2,0-0.4-1.1-0.4-2.5v-49c0-1.4,0.2-2.5,0.4-2.5h44.9
		c0.2,0,0.4,1.1,0.4,2.5V336.8z"/>
</g>
<g>
	<path fill="#99E3E5" d="M113,336.8c0,1.4-0.2,2.5-0.4,2.5H67.5c-0.2,0-0.4-1.1-0.4-2.5v-49c0-1.4,0.2-2.5,0.4-2.5h45.1
		c0.2,0,0.4,1.1,0.4,2.5V336.8z"/>
	<path fill="#99E3E5" d="M113,336.8c0,1.4-0.2,2.5-0.4,2.5H67.5c-0.2,0-0.4-1.1-0.4-2.5v-49c0-1.4,0.2-2.5,0.4-2.5h45.1
		c0.2,0,0.4,1.1,0.4,2.5V336.8z"/>
</g>
<g>
	<path fill="#EBAAAB" d="M465.4,56.9c0,1.4-0.2,2.5-0.5,2.5h-50.3c-0.3,0-0.5-1.1-0.5-2.5v-49c0-1.4,0.2-2.5,0.5-2.5h50.3
		c0.3,0,0.5,1.1,0.5,2.5V56.9z"/>
	<path fill="#EBAAAB" d="M465.4,56.9c0,1.4-0.2,2.5-0.5,2.5h-50.3c-0.3,0-0.5-1.1-0.5-2.5v-49c0-1.4,0.2-2.5,0.5-2.5h50.3
		c0.3,0,0.5,1.1,0.5,2.5V56.9z"/>
</g>
<g>
	<path fill="#CCCCCC" d="M510.6,56.8c0,1.4-0.2,2.5-0.4,2.5h-44.9c-0.2,0-0.4-1.1-0.4-2.5v-49c0-1.4,0.2-2.5,0.4-2.5h44.9
		c0.2,0,0.4,1.1,0.4,2.5V56.8z"/>
	<path fill="#CCCCCC" d="M510.6,56.8c0,1.4-0.2,2.5-0.4,2.5h-44.9c-0.2,0-0.4-1.1-0.4-2.5v-49c0-1.4,0.2-2.5,0.4-2.5h44.9
		c0.2,0,0.4,1.1,0.4,2.5V56.8z"/>
</g>
<g>
	<path fill="#99DEF3" d="M415,56.8c0,1.4-0.2,2.5-0.4,2.5h-45.1c-0.2,0-0.4-1.1-0.4-2.5v-49c0-1.4,0.2-2.5,0.4-2.5h45.1
		c0.2,0,0.4,1.1,0.4,2.5V56.8z"/>
	<path fill="#99DEF3" d="M415,56.8c0,1.4-0.2,2.5-0.4,2.5h-45.1c-0.2,0-0.4-1.1-0.4-2.5v-49c0-1.4,0.2-2.5,0.4-2.5h45.1
		c0.2,0,0.4,1.1,0.4,2.5V56.8z"/>
</g>
<text transform="matrix(1 0 0 1 75.1574 306.6182)"><tspan x="0" y="0" fill="#333333" font-family="'KievitOT-Bold'" font-size="21px">Sync Gateway</tspan><tspan x="0" y="25.2" fill="#333333" font-family="'KievitOT-Bold'" font-size="21px">CI Writer     3</tspan></text>
<text transform="matrix(1 0 0 1 377.1574 26.6182)"><tspan x="0" y="0" fill="#333333" font-family="'KievitOT-Bold'" font-size="21px">Sync Gateway</tspan><tspan x="0" y="25.2" fill="#333333" font-family="'KievitOT-Bold'" font-size="21px">CI Writer     2</tspan></text>
<g>
	<path fill="none" stroke="#333333" stroke-width="3" stroke-miterlimit="10" d="M511.5,58.2c0,1.1-0.9,2-2,2h-138c-1.1,0-2-0.9-2-2
		v-51c0-1.1,0.9-2,2-2h138c1.1,0,2,0.9,2,2V58.2z"/>
</g>
<text transform="matrix(1 0 0 1 155.5752 27.0946)"><tspan x="0" y="0" fill="#CCCCCC" font-family="'KievitOT-Bold'" font-size="21px">Sync Gateway</tspan><tspan x="0" y="25.2" fill="#CCCCCC" font-family="'KievitOT-Bold'" font-size="21px">CI Writer     1</tspan></text>
<g>
	<path fill="none" stroke="#CCCCCC" stroke-width="3" stroke-miterlimit="10" stroke-dasharray="3.9764,3.9764" d="M289.5,58.2
		c0,1.1-0.9,2-2,2h-138c-1.1,0-2-0.9-2-2v-51c0-1.1,0.9-2,2-2h138c1.1,0,2,0.9,2,2V58.2z"/>
</g>
<g>
	<path fill="#FFE7A8" stroke="#333333" stroke-width="2" stroke-miterlimit="10" d="M263.7,205.5c0-3.6-13.7-6.5-30.5-6.5
		s-30.5,2.9-30.5,6.5V225c0,3.6,13.7,6.5,30.5,6.5s30.5-2.9,30.5-6.5V205.5z"/>
	<g>
		<ellipse fill="#FFE7A8" cx="232.7" cy="205.5" rx="30" ry="6.5"/>
		<path fill="#333333" d="M263.7,205.7c0,0,0,0.1-0.1,0.4c-0.1,0.5-0.4,1-0.8,1.4c-0.8,0.9-2.2,1.6-3.9,2.2
			c-3.4,1.2-8.4,1.9-14.4,2.3c-3,0.2-6.2,0.3-9.6,0.3c-3.4,0-7,0-10.8-0.2c-3.7-0.1-7.6-0.4-11.5-1c-2-0.3-3.9-0.7-5.9-1.3
			c-1-0.3-2-0.7-2.9-1.2c-0.5-0.3-1-0.6-1.4-1.1c-0.4-0.4-0.9-1.1-0.9-2l0-0.2l0-0.1c0-0.1,0-0.1,0-0.2c0.1-0.2,0.1-0.5,0.2-0.6
			c0.2-0.3,0.4-0.6,0.6-0.8c0.4-0.5,0.9-0.8,1.4-1.1c1-0.6,1.9-1,2.9-1.3c1.9-0.7,3.9-1.1,5.9-1.5c3.9-0.8,7.8-1.2,11.5-1.4
			c3.7-0.2,7.4-0.4,10.8-0.3c3.4,0.1,6.7,0.3,9.7,0.6c6,0.6,11,1.6,14.4,2.8c1.7,0.6,3,1.4,3.9,2.3c0.4,0.4,0.7,1,0.8,1.3
			c0.1,0.4,0.1,0.6,0.1,0.6L263.7,205.7z M261.7,205.5c0,0,0.1-0.1-0.3-0.6c-0.4-0.5-1.5-1.2-3.1-1.7c-3.1-1.1-8-2.1-13.8-2.6
			c-2.9-0.3-6.1-0.4-9.5-0.5c-3.4,0-7,0-10.6,0.2c-3.7,0.2-7.5,0.6-11.3,1.3c-1.9,0.4-3.8,0.8-5.6,1.4c-0.9,0.3-1.8,0.7-2.5,1.1
			c-0.4,0.2-0.7,0.5-1,0.7c-0.1,0.1-0.2,0.3-0.3,0.4c0,0.1,0,0,0,0c0,0,0,0.1,0,0.2l0,0.1l0,0c0,0,0,0.1,0-0.1
			c0,0.1,0.1,0.4,0.3,0.6c0.2,0.3,0.6,0.5,1,0.8c0.8,0.5,1.6,0.8,2.5,1.2c1.8,0.7,3.7,1.2,5.6,1.6c3.8,0.9,7.6,1.4,11.3,1.7
			c7.4,0.6,14.4,0.4,20.3-0.4c5.9-0.7,10.7-1.9,13.8-3.1c1.5-0.6,2.6-1.3,3.1-1.8c0.2-0.3,0.2-0.4,0.3-0.4c0-0.2,0-0.3,0-0.3
			L261.7,205.5z"/>
	</g>
</g>
<g>
	<path fill="#FFE7A8" stroke="#333333" stroke-width="2" stroke-miterlimit="10" d="M263.7,177.9c0-3.6-13.7-6.5-30.5-6.5
		s-30.5,2.9-30.5,6.5v19.5c0,3.6,13.7,6.5,30.5,6.5s30.5-2.9,30.5-6.5V177.9z"/>
	<g>
		<ellipse fill="#FFE7A8" cx="232.7" cy="177.9" rx="30" ry="6.5"/>
		<path fill="#333333" d="M263.7,178c0,0,0,0.1-0.1,0.4c-0.1,0.5-0.4,1-0.8,1.4c-0.8,0.9-2.2,1.6-3.9,2.2c-3.4,1.2-8.4,1.9-14.4,2.3
			c-3,0.2-6.2,0.3-9.6,0.3c-3.4,0-7,0-10.8-0.2c-3.7-0.1-7.6-0.4-11.5-1c-2-0.3-3.9-0.7-5.9-1.3c-1-0.3-2-0.7-2.9-1.2
			c-0.5-0.3-1-0.6-1.4-1.1c-0.4-0.4-0.9-1.1-0.9-2l0-0.2l0-0.1c0-0.1,0-0.1,0-0.2c0.1-0.2,0.1-0.5,0.2-0.6c0.2-0.3,0.4-0.6,0.6-0.8
			c0.4-0.5,0.9-0.8,1.4-1.1c1-0.6,1.9-1,2.9-1.3c1.9-0.7,3.9-1.1,5.9-1.5c3.9-0.8,7.8-1.2,11.5-1.4c3.7-0.2,7.4-0.4,10.8-0.3
			c3.4,0.1,6.7,0.3,9.7,0.6c6,0.6,11,1.6,14.4,2.8c1.7,0.6,3,1.4,3.9,2.3c0.4,0.4,0.7,1,0.8,1.3c0.1,0.4,0.1,0.6,0.1,0.6L263.7,178z
			 M261.7,177.9c0,0,0.1-0.1-0.3-0.6c-0.4-0.5-1.5-1.2-3.1-1.7c-3.1-1.1-8-2.1-13.8-2.6c-2.9-0.3-6.1-0.4-9.5-0.5
			c-3.4,0-7,0-10.6,0.2c-3.7,0.2-7.5,0.6-11.3,1.3c-1.9,0.4-3.8,0.8-5.6,1.4c-0.9,0.3-1.8,0.7-2.5,1.1c-0.4,0.2-0.7,0.5-1,0.7
			c-0.1,0.1-0.2,0.3-0.3,0.4c0,0.1,0,0,0,0c0,0,0,0.1,0,0.2l0,0.1l0,0c0,0,0,0.1,0-0.1c0,0.1,0.1,0.4,0.3,0.6c0.2,0.3,0.6,0.5,1,0.8
			c0.8,0.5,1.6,0.8,2.5,1.2c1.8,0.7,3.7,1.2,5.6,1.6c3.8,0.9,7.6,1.4,11.3,1.7c7.4,0.6,14.4,0.4,20.3-0.4c5.9-0.7,10.7-1.9,13.8-3.1
			c1.5-0.6,2.6-1.3,3.1-1.8c0.2-0.3,0.2-0.4,0.3-0.4c0-0.2,0-0.3,0-0.3L261.7,177.9z"/>
	</g>
</g>
<g>
	<path fill="#99DEF3" stroke="#333333" stroke-width="2" stroke-miterlimit="10" d="M263.7,150.2c0-3.6-13.7-6.5-30.5-6.5
		s-30.5,2.9-30.5,6.5v19.5c0,3.6,13.7,6.5,30.5,6.5s30.5-2.9,30.5-6.5V150.2z"/>
	<g>
		<ellipse fill="#99DEF3" cx="232.7" cy="150.2" rx="30" ry="6.5"/>
		<path fill="#333333" d="M263.7,150.3c0,0,0,0.1-0.1,0.4c-0.1,0.5-0.4,1-0.8,1.4c-0.8,0.9-2.2,1.6-3.9,2.2
			c-3.4,1.2-8.4,1.9-14.4,2.3c-3,0.2-6.2,0.3-9.6,0.3c-3.4,0-7,0-10.8-0.2c-3.7-0.1-7.6-0.4-11.5-1c-2-0.3-3.9-0.7-5.9-1.3
			c-1-0.3-2-0.7-2.9-1.2c-0.5-0.3-1-0.6-1.4-1.1c-0.4-0.4-0.9-1.1-0.9-2l0-0.2l0-0.1c0-0.1,0-0.1,0-0.2c0.1-0.2,0.1-0.5,0.2-0.6
			c0.2-0.3,0.4-0.6,0.6-0.8c0.4-0.5,0.9-0.8,1.4-1.1c1-0.6,1.9-1,2.9-1.3c1.9-0.7,3.9-1.1,5.9-1.5c3.9-0.8,7.8-1.2,11.5-1.4
			c3.7-0.2,7.4-0.4,10.8-0.3c3.4,0.1,6.7,0.3,9.7,0.6c6,0.6,11,1.6,14.4,2.8c1.7,0.6,3,1.4,3.9,2.3c0.4,0.4,0.7,1,0.8,1.3
			c0.1,0.4,0.1,0.6,0.1,0.6L263.7,150.3z M261.7,150.2c0,0,0.1-0.1-0.3-0.6c-0.4-0.5-1.5-1.2-3.1-1.7c-3.1-1.1-8-2.1-13.8-2.6
			c-2.9-0.3-6.1-0.4-9.5-0.5c-3.4,0-7,0-10.6,0.2c-3.7,0.2-7.5,0.6-11.3,1.3c-1.9,0.4-3.8,0.8-5.6,1.4c-0.9,0.3-1.8,0.7-2.5,1.1
			c-0.4,0.2-0.7,0.5-1,0.7c-0.1,0.1-0.2,0.3-0.3,0.4c0,0.1,0,0,0,0c0,0,0,0.1,0,0.2l0,0.1l0,0c0,0,0,0.1,0-0.1
			c0,0.1,0.1,0.4,0.3,0.6c0.2,0.3,0.6,0.5,1,0.8c0.8,0.5,1.6,0.8,2.5,1.2c1.8,0.7,3.7,1.2,5.6,1.6c3.8,0.9,7.6,1.4,11.3,1.7
			c7.4,0.6,14.4,0.4,20.3-0.4c5.9-0.7,10.7-1.9,13.8-3.1c1.5-0.6,2.6-1.3,3.1-1.8c0.2-0.3,0.2-0.4,0.3-0.4c0-0.2,0-0.3,0-0.3
			L261.7,150.2z"/>
	</g>
</g>
<g>
	<path fill="#99DEF3" stroke="#333333" stroke-width="2" stroke-miterlimit="10" d="M263.7,122.5c0-3.6-13.7-6.5-30.5-6.5
		s-30.5,2.9-30.5,6.5V142c0,3.6,13.7,6.5,30.5,6.5s30.5-2.9,30.5-6.5V122.5z"/>
	<g>
		<ellipse fill="#99DEF3" cx="232.7" cy="122.5" rx="30" ry="6.5"/>
		<path fill="#333333" d="M263.7,122.7c0,0,0,0.1-0.1,0.4c-0.1,0.5-0.4,1-0.8,1.4c-0.8,0.9-2.2,1.6-3.9,2.2
			c-3.4,1.2-8.4,1.9-14.4,2.3c-3,0.2-6.2,0.3-9.6,0.3c-3.4,0-7,0-10.8-0.2c-3.7-0.1-7.6-0.4-11.5-1c-2-0.3-3.9-0.7-5.9-1.3
			c-1-0.3-2-0.7-2.9-1.2c-0.5-0.3-1-0.6-1.4-1.1c-0.2-0.2-0.4-0.5-0.6-0.8c-0.1-0.2-0.1-0.4-0.2-0.5c0-0.1,0-0.2-0.1-0.3l0-0.2
			l0-0.1c0-0.1,0,0.1,0-0.2c0-0.1,0-0.2,0.1-0.4c0.1-0.2,0.1-0.5,0.2-0.6c0.2-0.3,0.4-0.6,0.6-0.8c0.4-0.5,0.9-0.8,1.4-1.1
			c1-0.6,1.9-1,2.9-1.3c1.9-0.7,3.9-1.1,5.9-1.5c3.9-0.8,7.8-1.2,11.5-1.4c3.7-0.2,7.4-0.4,10.8-0.3c3.4,0.1,6.7,0.3,9.7,0.6
			c6,0.6,11,1.6,14.4,2.8c1.7,0.6,3,1.4,3.9,2.3c0.4,0.4,0.7,1,0.8,1.3c0.1,0.4,0.1,0.6,0.1,0.6L263.7,122.7z M261.7,122.5
			c0,0,0.1-0.1-0.3-0.6c-0.4-0.5-1.5-1.2-3.1-1.7c-3.1-1.1-8-2.1-13.8-2.6c-2.9-0.3-6.1-0.4-9.5-0.5c-3.4,0-7,0-10.6,0.2
			c-3.7,0.2-7.5,0.6-11.3,1.3c-1.9,0.4-3.8,0.8-5.6,1.4c-0.9,0.3-1.8,0.7-2.5,1.1c-0.4,0.2-0.7,0.5-1,0.7c-0.1,0.1-0.2,0.3-0.3,0.4
			c0,0.1,0,0,0,0c0,0.1,0,0.2,0,0.3c0-0.2,0-0.1,0-0.1l0,0l0,0c0,0,0,0,0,0.1c0,0,0,0.1,0.1,0.1c0.1,0.1,0.1,0.2,0.3,0.4
			c0.2,0.3,0.6,0.5,1,0.8c0.8,0.5,1.6,0.8,2.5,1.2c1.8,0.7,3.7,1.2,5.6,1.6c3.8,0.9,7.6,1.4,11.3,1.7c7.4,0.6,14.4,0.4,20.3-0.4
			c5.9-0.7,10.7-1.9,13.8-3.1c1.5-0.6,2.6-1.3,3.1-1.8c0.2-0.3,0.2-0.4,0.3-0.4c0-0.2,0-0.3,0-0.3L261.7,122.5z"/>
	</g>
</g>
<g>
	<path fill="#99E3E5" stroke="#333333" stroke-width="2" stroke-miterlimit="10" d="M151.7,205.5c0-3.6-13.7-6.5-30.5-6.5
		s-30.5,2.9-30.5,6.5V225c0,3.6,13.7,6.5,30.5,6.5s30.5-2.9,30.5-6.5V205.5z"/>
	<g>
		<ellipse fill="#99E3E5" cx="121.2" cy="205.5" rx="30" ry="6.5"/>
		<path fill="#333333" d="M152.3,205.7c0,0,0,0.1-0.1,0.4c-0.1,0.5-0.4,1-0.8,1.4c-0.8,0.9-2.2,1.6-3.9,2.2
			c-3.4,1.2-8.4,1.9-14.4,2.3c-3,0.2-6.2,0.3-9.6,0.3c-3.4,0-7,0-10.8-0.2c-3.7-0.1-7.6-0.4-11.5-1c-2-0.3-3.9-0.7-5.9-1.3
			c-1-0.3-2-0.7-2.9-1.2c-0.5-0.3-1-0.6-1.4-1.1c-0.2-0.2-0.4-0.5-0.6-0.8c-0.1-0.2-0.1-0.4-0.2-0.5c0-0.1,0-0.2-0.1-0.3l0-0.2
			l0-0.1c0-0.1,0,0.1,0-0.2c0-0.1,0-0.2,0.1-0.4c0.1-0.2,0.1-0.5,0.2-0.6c0.2-0.3,0.4-0.6,0.6-0.8c0.4-0.5,0.9-0.8,1.4-1.1
			c1-0.6,1.9-1,2.9-1.3c1.9-0.7,3.9-1.1,5.9-1.5c3.9-0.8,7.8-1.2,11.5-1.4c3.7-0.2,7.4-0.4,10.8-0.3c3.4,0.1,6.7,0.3,9.7,0.6
			c6,0.6,11,1.6,14.4,2.8c1.7,0.6,3,1.4,3.9,2.3c0.4,0.4,0.7,1,0.8,1.3c0.1,0.4,0.1,0.6,0.1,0.6L152.3,205.7z M150.3,205.5
			c0,0,0.1-0.1-0.3-0.6c-0.4-0.5-1.5-1.2-3.1-1.7c-3.1-1.1-8-2.1-13.8-2.6c-2.9-0.3-6.1-0.4-9.5-0.5c-3.4,0-7,0-10.6,0.2
			c-3.7,0.2-7.5,0.6-11.3,1.3c-1.9,0.4-3.8,0.8-5.6,1.4c-0.9,0.3-1.8,0.7-2.5,1.1c-0.4,0.2-0.7,0.5-1,0.7c-0.1,0.1-0.2,0.3-0.3,0.4
			c0,0.1,0,0,0,0c0,0.1,0,0.2,0,0.3c0-0.2,0-0.1,0-0.1l0,0l0,0c0,0,0,0,0,0.1c0,0,0,0.1,0.1,0.1c0.1,0.1,0.1,0.2,0.3,0.4
			c0.2,0.3,0.6,0.5,1,0.8c0.8,0.5,1.6,0.8,2.5,1.2c1.8,0.7,3.7,1.2,5.6,1.6c3.8,0.9,7.6,1.4,11.3,1.7c7.4,0.6,14.4,0.4,20.3-0.4
			c5.9-0.7,10.7-1.9,13.8-3.1c1.5-0.6,2.6-1.3,3.1-1.8c0.2-0.3,0.2-0.4,0.3-0.4c0-0.2,0-0.3,0-0.3L150.3,205.5z"/>
	</g>
</g>
<g>
	<path fill="#99E3E5" stroke="#333333" stroke-width="2" stroke-miterlimit="10" d="M151.7,177.9c0-3.6-13.7-6.5-30.5-6.5
		s-30.5,2.9-30.5,6.5v19.5c0,3.6,13.7,6.5,30.5,6.5s30.5-2.9,30.5-6.5V177.9z"/>
	<g>
		<ellipse fill="#99E3E5" cx="121.2" cy="177.9" rx="30" ry="6.5"/>
		<path fill="#333333" d="M152.3,178c0,0,0,0.1-0.1,0.4c-0.1,0.5-0.4,1-0.8,1.4c-0.8,0.9-2.2,1.6-3.9,2.2c-3.4,1.2-8.4,1.9-14.4,2.3
			c-3,0.2-6.2,0.3-9.6,0.3c-3.4,0-7,0-10.8-0.2c-3.7-0.1-7.6-0.4-11.5-1c-2-0.3-3.9-0.7-5.9-1.3c-1-0.3-2-0.7-2.9-1.2
			c-0.5-0.3-1-0.6-1.4-1.1c-0.4-0.4-0.9-1.1-0.9-2l0-0.2l0-0.1c0-0.1,0-0.1,0-0.2c0.1-0.2,0.1-0.5,0.2-0.6c0.2-0.3,0.4-0.6,0.6-0.8
			c0.4-0.5,0.9-0.8,1.4-1.1c1-0.6,1.9-1,2.9-1.3c1.9-0.7,3.9-1.1,5.9-1.5c3.9-0.8,7.8-1.2,11.5-1.4c3.7-0.2,7.4-0.4,10.8-0.3
			c3.4,0.1,6.7,0.3,9.7,0.6c6,0.6,11,1.6,14.4,2.8c1.7,0.6,3,1.4,3.9,2.3c0.4,0.4,0.7,1,0.8,1.3c0.1,0.4,0.1,0.6,0.1,0.6L152.3,178z
			 M150.3,177.9c0,0,0.1-0.1-0.3-0.6c-0.4-0.5-1.5-1.2-3.1-1.7c-3.1-1.1-8-2.1-13.8-2.6c-2.9-0.3-6.1-0.4-9.5-0.5
			c-3.4,0-7,0-10.6,0.2c-3.7,0.2-7.5,0.6-11.3,1.3c-1.9,0.4-3.8,0.8-5.6,1.4c-0.9,0.3-1.8,0.7-2.5,1.1c-0.4,0.2-0.7,0.5-1,0.7
			c-0.1,0.1-0.2,0.3-0.3,0.4c0,0.1,0,0,0,0c0,0,0,0.1,0,0.2l0,0.1l0,0c0,0,0,0.1,0-0.1c0,0.1,0.1,0.4,0.3,0.6c0.2,0.3,0.6,0.5,1,0.8
			c0.8,0.5,1.6,0.8,2.5,1.2c1.8,0.7,3.7,1.2,5.6,1.6c3.8,0.9,7.6,1.4,11.3,1.7c7.4,0.6,14.4,0.4,20.3-0.4c5.9-0.7,10.7-1.9,13.8-3.1
			c1.5-0.6,2.6-1.3,3.1-1.8c0.2-0.3,0.2-0.4,0.3-0.4c0-0.2,0-0.3,0-0.3L150.3,177.9z"/>
	</g>
</g>
<g>
	<path fill="#DAD2EA" stroke="#333333" stroke-width="2" stroke-miterlimit="10" d="M152,150.2c0-3.6-13.7-6.5-30.5-6.5
		S91,146.6,91,150.2v19.5c0,3.6,13.7,6.5,30.5,6.5s30.5-2.9,30.5-6.5V150.2z"/>
	<g>
		<ellipse fill="#DAD2EA" cx="121.2" cy="150.2" rx="30" ry="6.5"/>
		<path fill="#333333" d="M152.3,150.3c0,0,0,0.1-0.1,0.4c-0.1,0.5-0.4,1-0.8,1.4c-0.8,0.9-2.2,1.6-3.9,2.2
			c-3.4,1.2-8.4,1.9-14.4,2.3c-3,0.2-6.2,0.3-9.6,0.3c-3.4,0-7,0-10.8-0.2c-3.7-0.1-7.6-0.4-11.5-1c-2-0.3-3.9-0.7-5.9-1.3
			c-1-0.3-2-0.7-2.9-1.2c-0.5-0.3-1-0.6-1.4-1.1c-0.4-0.4-0.9-1.1-0.9-2l0-0.2l0-0.1c0-0.1,0-0.1,0-0.2c0.1-0.2,0.1-0.5,0.2-0.6
			c0.2-0.3,0.4-0.6,0.6-0.8c0.4-0.5,0.9-0.8,1.4-1.1c1-0.6,1.9-1,2.9-1.3c1.9-0.7,3.9-1.1,5.9-1.5c3.9-0.8,7.8-1.2,11.5-1.4
			c3.7-0.2,7.4-0.4,10.8-0.3c3.4,0.1,6.7,0.3,9.7,0.6c6,0.6,11,1.6,14.4,2.8c1.7,0.6,3,1.4,3.9,2.3c0.4,0.4,0.7,1,0.8,1.3
			c0.1,0.4,0.1,0.6,0.1,0.6L152.3,150.3z M150.3,150.2c0,0,0.1-0.1-0.3-0.6c-0.4-0.5-1.5-1.2-3.1-1.7c-3.1-1.1-8-2.1-13.8-2.6
			c-2.9-0.3-6.1-0.4-9.5-0.5c-3.4,0-7,0-10.6,0.2c-3.7,0.2-7.5,0.6-11.3,1.3c-1.9,0.4-3.8,0.8-5.6,1.4c-0.9,0.3-1.8,0.7-2.5,1.1
			c-0.4,0.2-0.7,0.5-1,0.7c-0.1,0.1-0.2,0.3-0.3,0.4c0,0.1,0,0,0,0c0,0,0,0.1,0,0.2l0,0.1l0,0c0,0,0,0.1,0-0.1
			c0,0.1,0.1,0.4,0.3,0.6c0.2,0.3,0.6,0.5,1,0.8c0.8,0.5,1.6,0.8,2.5,1.2c1.8,0.7,3.7,1.2,5.6,1.6c3.8,0.9,7.6,1.4,11.3,1.7
			c7.4,0.6,14.4,0.4,20.3-0.4c5.9-0.7,10.7-1.9,13.8-3.1c1.5-0.6,2.6-1.3,3.1-1.8c0.2-0.3,0.2-0.4,0.3-0.4c0-0.2,0-0.3,0-0.3
			L150.3,150.2z"/>
	</g>
</g>
<g>
	<path fill="#DAD2EA" stroke="#333333" stroke-width="2" stroke-miterlimit="10" d="M152,122.5c0-3.6-13.7-6.5-30.5-6.5
		S91,118.9,91,122.5V142c0,3.6,13.7,6.5,30.5,6.5s30.5-2.9,30.5-6.5V122.5z"/>
	<g>
		<ellipse fill="#DAD2EA" cx="121.2" cy="122.5" rx="30" ry="6.5"/>
		<path fill="#333333" d="M152.3,122.7c0,0,0,0.1-0.1,0.4c-0.1,0.5-0.4,1-0.8,1.4c-0.8,0.9-2.2,1.6-3.9,2.2
			c-3.4,1.2-8.4,1.9-14.4,2.3c-3,0.2-6.2,0.3-9.6,0.3c-3.4,0-7,0-10.8-0.2c-3.7-0.1-7.6-0.4-11.5-1c-2-0.3-3.9-0.7-5.9-1.3
			c-1-0.3-2-0.7-2.9-1.2c-0.5-0.3-1-0.6-1.4-1.1c-0.2-0.2-0.4-0.5-0.6-0.8c-0.1-0.2-0.1-0.4-0.2-0.5c0-0.1,0-0.2-0.1-0.3l0-0.2
			l0-0.1c0-0.1,0,0.1,0-0.2c0-0.1,0-0.2,0.1-0.4c0.1-0.2,0.1-0.5,0.2-0.6c0.2-0.3,0.4-0.6,0.6-0.8c0.4-0.5,0.9-0.8,1.4-1.1
			c1-0.6,1.9-1,2.9-1.3c1.9-0.7,3.9-1.1,5.9-1.5c3.9-0.8,7.8-1.2,11.5-1.4c3.7-0.2,7.4-0.4,10.8-0.3c3.4,0.1,6.7,0.3,9.7,0.6
			c6,0.6,11,1.6,14.4,2.8c1.7,0.6,3,1.4,3.9,2.3c0.4,0.4,0.7,1,0.8,1.3c0.1,0.4,0.1,0.6,0.1,0.6L152.3,122.7z M150.3,122.5
			c0,0,0.1-0.1-0.3-0.6c-0.4-0.5-1.5-1.2-3.1-1.7c-3.1-1.1-8-2.1-13.8-2.6c-2.9-0.3-6.1-0.4-9.5-0.5c-3.4,0-7,0-10.6,0.2
			c-3.7,0.2-7.5,0.6-11.3,1.3c-1.9,0.4-3.8,0.8-5.6,1.4c-0.9,0.3-1.8,0.7-2.5,1.1c-0.4,0.2-0.7,0.5-1,0.7c-0.1,0.1-0.2,0.3-0.3,0.4
			c0,0.1,0,0,0,0c0,0.1,0,0.2,0,0.3c0-0.2,0-0.1,0-0.1l0,0l0,0c0,0,0,0,0,0.1c0,0,0,0.1,0.1,0.1c0.1,0.1,0.1,0.2,0.3,0.4
			c0.2,0.3,0.6,0.5,1,0.8c0.8,0.5,1.6,0.8,2.5,1.2c1.8,0.7,3.7,1.2,5.6,1.6c3.8,0.9,7.6,1.4,11.3,1.7c7.4,0.6,14.4,0.4,20.3-0.4
			c5.9-0.7,10.7-1.9,13.8-3.1c1.5-0.6,2.6-1.3,3.1-1.8c0.2-0.3,0.2-0.4,0.3-0.4c0-0.2,0-0.3,0-0.3L150.3,122.5z"/>
	</g>
</g>
<g>
	<text transform="matrix(1 0 0 1 106.381 143.3058)" fill="#333333" font-family="'KievitOT-Bold'" font-size="18px">M 0</text>
	<text transform="matrix(1 0 0 1 106.3807 170.9725)" fill="#333333" font-family="'KievitOT-Bold'" font-size="18px">M 1</text>
	<text transform="matrix(1 0 0 1 106.3807 224.6878)" fill="#333333" font-family="'KievitOT-Bold'" font-size="18px">M 3</text>
	<text transform="matrix(1 0 0 1 106.381 197.3543)" fill="#333333" font-family="'KievitOT-Bold'" font-size="18px">M 2</text>
</g>
<g>
	<text transform="matrix(1 0 0 1 217.8254 143.3058)" fill="#333333" font-family="'KievitOT-Bold'" font-size="18px">M 4</text>
	<text transform="matrix(1 0 0 1 217.8251 170.9725)" fill="#333333" font-family="'KievitOT-Bold'" font-size="18px">M 5</text>
	<text transform="matrix(1 0 0 1 217.8251 224.6878)" fill="#333333" font-family="'KievitOT-Bold'" font-size="18px">M 7</text>
	<text transform="matrix(1 0 0 1 217.8254 197.3543)" fill="#333333" font-family="'KievitOT-Bold'" font-size="18px">M 6</text>
</g>
<g>
	<path fill="#C6DD9F" stroke="#333333" stroke-width="2" stroke-miterlimit="10" d="M374.7,205.5c0-3.6-13.7-6.5-30.5-6.5
		c-16.8,0-30.5,2.9-30.5,6.5V225c0,3.6,13.7,6.5,30.5,6.5c16.8,0,30.5-2.9,30.5-6.5V205.5z"/>
	<g>
		<ellipse fill="#C6DD9F" cx="344.6" cy="205.5" rx="30" ry="6.5"/>
		<path fill="#333333" d="M375.6,205.7c0,0,0,0.1-0.1,0.4c-0.1,0.5-0.4,1-0.8,1.4c-0.8,0.9-2.2,1.6-3.9,2.2
			c-3.4,1.2-8.4,1.9-14.4,2.3c-3,0.2-6.2,0.3-9.6,0.3c-3.4,0-7,0-10.8-0.2c-3.7-0.1-7.6-0.4-11.5-1c-2-0.3-3.9-0.7-5.9-1.3
			c-1-0.3-2-0.7-2.9-1.2c-0.5-0.3-1-0.6-1.4-1.1c-0.2-0.2-0.4-0.5-0.6-0.8c-0.1-0.2-0.1-0.4-0.2-0.5c0-0.1,0-0.2-0.1-0.3l0-0.2
			l0-0.1c0-0.1,0,0.1,0-0.2c0-0.1,0-0.2,0.1-0.4c0.1-0.2,0.1-0.5,0.2-0.6c0.2-0.3,0.4-0.6,0.6-0.8c0.4-0.5,0.9-0.8,1.4-1.1
			c1-0.6,1.9-1,2.9-1.3c1.9-0.7,3.9-1.1,5.9-1.5c3.9-0.8,7.8-1.2,11.5-1.4c3.7-0.2,7.4-0.4,10.8-0.3c3.4,0.1,6.7,0.3,9.7,0.6
			c6,0.6,11,1.6,14.4,2.8c1.7,0.6,3,1.4,3.9,2.3c0.4,0.4,0.7,1,0.8,1.3c0.1,0.4,0.1,0.6,0.1,0.6L375.6,205.7z M373.7,205.5
			c0,0,0.1-0.1-0.3-0.6c-0.4-0.5-1.5-1.2-3.1-1.7c-3.1-1.1-8-2.1-13.8-2.6c-2.9-0.3-6.1-0.4-9.5-0.5c-3.4,0-7,0-10.6,0.2
			c-3.7,0.2-7.5,0.6-11.3,1.3c-1.9,0.4-3.8,0.8-5.6,1.4c-0.9,0.3-1.8,0.7-2.5,1.1c-0.4,0.2-0.7,0.5-1,0.7c-0.1,0.1-0.2,0.3-0.3,0.4
			c0,0.1,0,0,0,0c0,0.1,0,0.2,0,0.3c0-0.2,0-0.1,0-0.1l0,0l0,0c0,0,0,0,0,0.1c0,0,0,0.1,0.1,0.1c0.1,0.1,0.1,0.2,0.3,0.4
			c0.2,0.3,0.6,0.5,1,0.8c0.8,0.5,1.6,0.8,2.5,1.2c1.8,0.7,3.7,1.2,5.6,1.6c3.8,0.9,7.6,1.4,11.3,1.7c7.4,0.6,14.4,0.4,20.3-0.4
			c5.9-0.7,10.7-1.9,13.8-3.1c1.5-0.6,2.6-1.3,3.1-1.8c0.2-0.3,0.2-0.4,0.3-0.4c0-0.2,0-0.3,0-0.3L373.7,205.5z"/>
	</g>
</g>
<g>
	<path fill="#C6DD9F" stroke="#333333" stroke-width="2" stroke-miterlimit="10" d="M374.7,177.9c0-3.6-13.7-6.5-30.5-6.5
		c-16.8,0-30.5,2.9-30.5,6.5v19.5c0,3.6,13.7,6.5,30.5,6.5c16.8,0,30.5-2.9,30.5-6.5V177.9z"/>
	<g>
		<ellipse fill="#C6DD9F" cx="344.6" cy="177.9" rx="30" ry="6.5"/>
		<path fill="#333333" d="M375.6,178c0,0,0,0.1-0.1,0.4c-0.1,0.5-0.4,1-0.8,1.4c-0.8,0.9-2.2,1.6-3.9,2.2c-3.4,1.2-8.4,1.9-14.4,2.3
			c-3,0.2-6.2,0.3-9.6,0.3c-3.4,0-7,0-10.8-0.2c-3.7-0.1-7.6-0.4-11.5-1c-2-0.3-3.9-0.7-5.9-1.3c-1-0.3-2-0.7-2.9-1.2
			c-0.5-0.3-1-0.6-1.4-1.1c-0.2-0.2-0.4-0.5-0.6-0.8c-0.1-0.2-0.1-0.4-0.2-0.5c0-0.1,0-0.2-0.1-0.3l0-0.2l0-0.1c0-0.1,0,0.1,0-0.2
			c0-0.1,0-0.2,0.1-0.4c0.1-0.2,0.1-0.5,0.2-0.6c0.2-0.3,0.4-0.6,0.6-0.8c0.4-0.5,0.9-0.8,1.4-1.1c1-0.6,1.9-1,2.9-1.3
			c1.9-0.7,3.9-1.1,5.9-1.5c3.9-0.8,7.8-1.2,11.5-1.4c3.7-0.2,7.4-0.4,10.8-0.3c3.4,0.1,6.7,0.3,9.7,0.6c6,0.6,11,1.6,14.4,2.8
			c1.7,0.6,3,1.4,3.9,2.3c0.4,0.4,0.7,1,0.8,1.3c0.1,0.4,0.1,0.6,0.1,0.6L375.6,178z M373.7,177.9c0,0,0.1-0.1-0.3-0.6
			c-0.4-0.5-1.5-1.2-3.1-1.7c-3.1-1.1-8-2.1-13.8-2.6c-2.9-0.3-6.1-0.4-9.5-0.5c-3.4,0-7,0-10.6,0.2c-3.7,0.2-7.5,0.6-11.3,1.3
			c-1.9,0.4-3.8,0.8-5.6,1.4c-0.9,0.3-1.8,0.7-2.5,1.1c-0.4,0.2-0.7,0.5-1,0.7c-0.1,0.1-0.2,0.3-0.3,0.4c0,0.1,0,0,0,0
			c0,0.1,0,0.2,0,0.3c0-0.2,0-0.1,0-0.1l0,0l0,0c0,0,0,0,0,0.1c0,0,0,0.1,0.1,0.1c0.1,0.1,0.1,0.2,0.3,0.4c0.2,0.3,0.6,0.5,1,0.8
			c0.8,0.5,1.6,0.8,2.5,1.2c1.8,0.7,3.7,1.2,5.6,1.6c3.8,0.9,7.6,1.4,11.3,1.7c7.4,0.6,14.4,0.4,20.3-0.4c5.9-0.7,10.7-1.9,13.8-3.1
			c1.5-0.6,2.6-1.3,3.1-1.8c0.2-0.3,0.2-0.4,0.3-0.4c0-0.2,0-0.3,0-0.3L373.7,177.9z"/>
	</g>
</g>
<g>
	<path fill="#EBAAAB" stroke="#333333" stroke-width="2" stroke-miterlimit="10" d="M374.7,150.2c0-3.6-13.7-6.5-30.5-6.5
		c-16.8,0-30.5,2.9-30.5,6.5v19.5c0,3.6,13.7,6.5,30.5,6.5c16.8,0,30.5-2.9,30.5-6.5V150.2z"/>
	<g>
		<ellipse fill="#EBAAAB" cx="344.6" cy="150.2" rx="30" ry="6.5"/>
		<path fill="#333333" d="M375.6,150.3c0,0,0,0.1-0.1,0.4c-0.1,0.5-0.4,1-0.8,1.4c-0.8,0.9-2.2,1.6-3.9,2.2
			c-3.4,1.2-8.4,1.9-14.4,2.3c-3,0.2-6.2,0.3-9.6,0.3c-3.4,0-7,0-10.8-0.2c-3.7-0.1-7.6-0.4-11.5-1c-2-0.3-3.9-0.7-5.9-1.3
			c-1-0.3-2-0.7-2.9-1.2c-0.5-0.3-1-0.6-1.4-1.1c-0.2-0.2-0.4-0.5-0.6-0.8c-0.1-0.2-0.1-0.4-0.2-0.5c0-0.1,0-0.2-0.1-0.3l0-0.2
			l0-0.1c0-0.1,0,0.1,0-0.2c0-0.1,0-0.2,0.1-0.4c0.1-0.2,0.1-0.5,0.2-0.6c0.2-0.3,0.4-0.6,0.6-0.8c0.4-0.5,0.9-0.8,1.4-1.1
			c1-0.6,1.9-1,2.9-1.3c1.9-0.7,3.9-1.1,5.9-1.5c3.9-0.8,7.8-1.2,11.5-1.4c3.7-0.2,7.4-0.4,10.8-0.3c3.4,0.1,6.7,0.3,9.7,0.6
			c6,0.6,11,1.6,14.4,2.8c1.7,0.6,3,1.4,3.9,2.3c0.4,0.4,0.7,1,0.8,1.3c0.1,0.4,0.1,0.6,0.1,0.6L375.6,150.3z M373.7,150.2
			c0,0,0.1-0.1-0.3-0.6c-0.4-0.5-1.5-1.2-3.1-1.7c-3.1-1.1-8-2.1-13.8-2.6c-2.9-0.3-6.1-0.4-9.5-0.5c-3.4,0-7,0-10.6,0.2
			c-3.7,0.2-7.5,0.6-11.3,1.3c-1.9,0.4-3.8,0.8-5.6,1.4c-0.9,0.3-1.8,0.7-2.5,1.1c-0.4,0.2-0.7,0.5-1,0.7c-0.1,0.1-0.2,0.3-0.3,0.4
			c0,0.1,0,0,0,0c0,0.1,0,0.2,0,0.3c0-0.2,0-0.1,0-0.1l0,0l0,0c0,0,0,0,0,0.1c0,0,0,0.1,0.1,0.1c0.1,0.1,0.1,0.2,0.3,0.4
			c0.2,0.3,0.6,0.5,1,0.8c0.8,0.5,1.6,0.8,2.5,1.2c1.8,0.7,3.7,1.2,5.6,1.6c3.8,0.9,7.6,1.4,11.3,1.7c7.4,0.6,14.4,0.4,20.3-0.4
			c5.9-0.7,10.7-1.9,13.8-3.1c1.5-0.6,2.6-1.3,3.1-1.8c0.2-0.3,0.2-0.4,0.3-0.4c0-0.2,0-0.3,0-0.3L373.7,150.2z"/>
	</g>
</g>
<g>
	<path fill="#EBAAAB" stroke="#333333" stroke-width="2" stroke-miterlimit="10" d="M374.7,122.5c0-3.6-13.7-6.5-30.5-6.5
		c-16.8,0-30.5,2.9-30.5,6.5V142c0,3.6,13.7,6.5,30.5,6.5c16.8,0,30.5-2.9,30.5-6.5V122.5z"/>
	<g>
		<ellipse fill="#EBAAAB" cx="344.6" cy="122.5" rx="30" ry="6.5"/>
		<path fill="#333333" d="M375.6,122.7c0,0,0,0.1-0.1,0.4c-0.1,0.5-0.4,1-0.8,1.4c-0.8,0.9-2.2,1.6-3.9,2.2
			c-3.4,1.2-8.4,1.9-14.4,2.3c-3,0.2-6.2,0.3-9.6,0.3c-3.4,0-7,0-10.8-0.2c-3.7-0.1-7.6-0.4-11.5-1c-2-0.3-3.9-0.7-5.9-1.3
			c-1-0.3-2-0.7-2.9-1.2c-0.5-0.3-1-0.6-1.4-1.1c-0.2-0.2-0.4-0.5-0.6-0.8c-0.1-0.2-0.1-0.4-0.2-0.5c0-0.1,0-0.2-0.1-0.3l0-0.2
			l0-0.1c0-0.1,0,0.1,0-0.2c0-0.1,0-0.2,0.1-0.4c0.1-0.2,0.1-0.5,0.2-0.6c0.2-0.3,0.4-0.6,0.6-0.8c0.4-0.5,0.9-0.8,1.4-1.1
			c1-0.6,1.9-1,2.9-1.3c1.9-0.7,3.9-1.1,5.9-1.5c3.9-0.8,7.8-1.2,11.5-1.4c3.7-0.2,7.4-0.4,10.8-0.3c3.4,0.1,6.7,0.3,9.7,0.6
			c6,0.6,11,1.6,14.4,2.8c1.7,0.6,3,1.4,3.9,2.3c0.4,0.4,0.7,1,0.8,1.3c0.1,0.4,0.1,0.6,0.1,0.6L375.6,122.7z M373.7,122.5
			c0,0,0.1-0.1-0.3-0.6c-0.4-0.5-1.5-1.2-3.1-1.7c-3.1-1.1-8-2.1-13.8-2.6c-2.9-0.3-6.1-0.4-9.5-0.5c-3.4,0-7,0-10.6,0.2
			c-3.7,0.2-7.5,0.6-11.3,1.3c-1.9,0.4-3.8,0.8-5.6,1.4c-0.9,0.3-1.8,0.7-2.5,1.1c-0.4,0.2-0.7,0.5-1,0.7c-0.1,0.1-0.2,0.3-0.3,0.4
			c0,0.1,0,0,0,0c0,0.1,0,0.2,0,0.3c0-0.2,0-0.1,0-0.1l0,0l0,0c0,0,0,0,0,0.1c0,0,0,0.1,0.1,0.1c0.1,0.1,0.1,0.2,0.3,0.4
			c0.2,0.3,0.6,0.5,1,0.8c0.8,0.5,1.6,0.8,2.5,1.2c1.8,0.7,3.7,1.2,5.6,1.6c3.8,0.9,7.6,1.4,11.3,1.7c7.4,0.6,14.4,0.4,20.3-0.4
			c5.9-0.7,10.7-1.9,13.8-3.1c1.5-0.6,2.6-1.3,3.1-1.8c0.2-0.3,0.2-0.4,0.3-0.4c0-0.2,0-0.3,0-0.3L373.7,122.5z"/>
	</g>
</g>
<g>
	<path fill="#FFFFFF" stroke="#333333" stroke-width="2" stroke-miterlimit="10" d="M485.7,205.5c0-3.6-13.7-6.5-30.5-6.5
		c-16.8,0-30.5,2.9-30.5,6.5V225c0,3.6,13.7,6.5,30.5,6.5c16.8,0,30.5-2.9,30.5-6.5V205.5z"/>
	<g>
		<ellipse fill="#FFFFFF" cx="455.3" cy="205.5" rx="30" ry="6.5"/>
		<path fill="#333333" d="M486.3,205.7c0,0,0,0.1-0.1,0.4c-0.1,0.5-0.4,1-0.8,1.4c-0.8,0.9-2.2,1.6-3.9,2.2
			c-3.4,1.2-8.4,1.9-14.4,2.3c-3,0.2-6.2,0.3-9.6,0.3c-3.4,0-7,0-10.8-0.2c-3.7-0.1-7.6-0.4-11.5-1c-2-0.3-3.9-0.7-5.9-1.3
			c-1-0.3-2-0.7-2.9-1.2c-0.5-0.3-1-0.6-1.4-1.1c-0.2-0.2-0.4-0.5-0.6-0.8c-0.1-0.2-0.1-0.4-0.2-0.5c0-0.1,0-0.2-0.1-0.3l0-0.2
			l0-0.1c0-0.1,0,0.1,0-0.2c0-0.1,0-0.2,0.1-0.4c0.1-0.2,0.1-0.5,0.2-0.6c0.2-0.3,0.4-0.6,0.6-0.8c0.4-0.5,0.9-0.8,1.4-1.1
			c1-0.6,1.9-1,2.9-1.3c1.9-0.7,3.9-1.1,5.9-1.5c3.9-0.8,7.8-1.2,11.5-1.4c3.7-0.2,7.4-0.4,10.8-0.3c3.4,0.1,6.7,0.3,9.7,0.6
			c6,0.6,11,1.6,14.4,2.8c1.7,0.6,3,1.4,3.9,2.3c0.4,0.4,0.7,1,0.8,1.3c0.1,0.4,0.1,0.6,0.1,0.6L486.3,205.7z M484.3,205.5
			c0,0,0.1-0.1-0.3-0.6c-0.4-0.5-1.5-1.2-3.1-1.7c-3.1-1.1-8-2.1-13.8-2.6c-2.9-0.3-6.1-0.4-9.5-0.5c-3.4,0-7,0-10.6,0.2
			c-3.7,0.2-7.5,0.6-11.3,1.3c-1.9,0.4-3.8,0.8-5.6,1.4c-0.9,0.3-1.8,0.7-2.5,1.1c-0.4,0.2-0.7,0.5-1,0.7c-0.1,0.1-0.2,0.3-0.3,0.4
			c0,0.1,0,0,0,0c0,0.1,0,0.2,0,0.3c0-0.2,0-0.1,0-0.1l0,0l0,0c0,0,0,0,0,0.1c0,0,0,0.1,0.1,0.1c0.1,0.1,0.1,0.2,0.3,0.4
			c0.2,0.3,0.6,0.5,1,0.8c0.8,0.5,1.6,0.8,2.5,1.2c1.8,0.7,3.7,1.2,5.6,1.6c3.8,0.9,7.6,1.4,11.3,1.7c7.4,0.6,14.4,0.4,20.3-0.4
			c5.9-0.7,10.7-1.9,13.8-3.1c1.5-0.6,2.6-1.3,3.1-1.8c0.2-0.3,0.2-0.4,0.3-0.4c0-0.2,0-0.3,0-0.3L484.3,205.5z"/>
	</g>
</g>
<g>
	<path fill="#FFFFFF" stroke="#333333" stroke-width="2" stroke-miterlimit="10" d="M485.7,177.9c0-3.6-13.7-6.5-30.5-6.5
		c-16.8,0-30.5,2.9-30.5,6.5v19.5c0,3.6,13.7,6.5,30.5,6.5c16.8,0,30.5-2.9,30.5-6.5V177.9z"/>
	<g>
		<ellipse fill="#FFFFFF" cx="455.3" cy="177.9" rx="30" ry="6.5"/>
		<path fill="#333333" d="M486.3,178c0,0,0,0.1-0.1,0.4c-0.1,0.5-0.4,1-0.8,1.4c-0.8,0.9-2.2,1.6-3.9,2.2c-3.4,1.2-8.4,1.9-14.4,2.3
			c-3,0.2-6.2,0.3-9.6,0.3c-3.4,0-7,0-10.8-0.2c-3.7-0.1-7.6-0.4-11.5-1c-2-0.3-3.9-0.7-5.9-1.3c-1-0.3-2-0.7-2.9-1.2
			c-0.5-0.3-1-0.6-1.4-1.1c-0.4-0.4-0.9-1.1-0.9-2l0-0.2l0-0.1c0-0.1,0-0.1,0-0.2c0.1-0.2,0.1-0.5,0.2-0.6c0.2-0.3,0.4-0.6,0.6-0.8
			c0.4-0.5,0.9-0.8,1.4-1.1c1-0.6,1.9-1,2.9-1.3c1.9-0.7,3.9-1.1,5.9-1.5c3.9-0.8,7.8-1.2,11.5-1.4c3.7-0.2,7.4-0.4,10.8-0.3
			c3.4,0.1,6.7,0.3,9.7,0.6c6,0.6,11,1.6,14.4,2.8c1.7,0.6,3,1.4,3.9,2.3c0.4,0.4,0.7,1,0.8,1.3c0.1,0.4,0.1,0.6,0.1,0.6L486.3,178z
			 M484.3,177.9c0,0,0.1-0.1-0.3-0.6c-0.4-0.5-1.5-1.2-3.1-1.7c-3.1-1.1-8-2.1-13.8-2.6c-2.9-0.3-6.1-0.4-9.5-0.5
			c-3.4,0-7,0-10.6,0.2c-3.7,0.2-7.5,0.6-11.3,1.3c-1.9,0.4-3.8,0.8-5.6,1.4c-0.9,0.3-1.8,0.7-2.5,1.1c-0.4,0.2-0.7,0.5-1,0.7
			c-0.1,0.1-0.2,0.3-0.3,0.4c0,0.1,0,0,0,0c0,0,0,0.1,0,0.2l0,0.1l0,0c0,0,0,0.1,0-0.1c0,0.1,0.1,0.4,0.3,0.6c0.2,0.3,0.6,0.5,1,0.8
			c0.8,0.5,1.6,0.8,2.5,1.2c1.8,0.7,3.7,1.2,5.6,1.6c3.8,0.9,7.6,1.4,11.3,1.7c7.4,0.6,14.4,0.4,20.3-0.4c5.9-0.7,10.7-1.9,13.8-3.1
			c1.5-0.6,2.6-1.3,3.1-1.8c0.2-0.3,0.2-0.4,0.3-0.4c0-0.2,0-0.3,0-0.3L484.3,177.9z"/>
	</g>
</g>
<g>
	<path fill="#CCCCCC" stroke="#333333" stroke-width="2" stroke-miterlimit="10" d="M485.7,150.2c0-3.6-13.7-6.5-30.5-6.5
		c-16.8,0-30.5,2.9-30.5,6.5v19.5c0,3.6,13.7,6.5,30.5,6.5c16.8,0,30.5-2.9,30.5-6.5V150.2z"/>
	<g>
		<ellipse fill="#CCCCCC" cx="455.3" cy="150.2" rx="30" ry="6.5"/>
		<path fill="#333333" d="M486.3,150.3c0,0,0,0.1-0.1,0.4c-0.1,0.5-0.4,1-0.8,1.4c-0.8,0.9-2.2,1.6-3.9,2.2
			c-3.4,1.2-8.4,1.9-14.4,2.3c-3,0.2-6.2,0.3-9.6,0.3c-3.4,0-7,0-10.8-0.2c-3.7-0.1-7.6-0.4-11.5-1c-2-0.3-3.9-0.7-5.9-1.3
			c-1-0.3-2-0.7-2.9-1.2c-0.5-0.3-1-0.6-1.4-1.1c-0.4-0.4-0.9-1.1-0.9-2l0-0.2l0-0.1c0-0.1,0-0.1,0-0.2c0.1-0.2,0.1-0.5,0.2-0.6
			c0.2-0.3,0.4-0.6,0.6-0.8c0.4-0.5,0.9-0.8,1.4-1.1c1-0.6,1.9-1,2.9-1.3c1.9-0.7,3.9-1.1,5.9-1.5c3.9-0.8,7.8-1.2,11.5-1.4
			c3.7-0.2,7.4-0.4,10.8-0.3c3.4,0.1,6.7,0.3,9.7,0.6c6,0.6,11,1.6,14.4,2.8c1.7,0.6,3,1.4,3.9,2.3c0.4,0.4,0.7,1,0.8,1.3
			c0.1,0.4,0.1,0.6,0.1,0.6L486.3,150.3z M484.3,150.2c0,0,0.1-0.1-0.3-0.6c-0.4-0.5-1.5-1.2-3.1-1.7c-3.1-1.1-8-2.1-13.8-2.6
			c-2.9-0.3-6.1-0.4-9.5-0.5c-3.4,0-7,0-10.6,0.2c-3.7,0.2-7.5,0.6-11.3,1.3c-1.9,0.4-3.8,0.8-5.6,1.4c-0.9,0.3-1.8,0.7-2.5,1.1
			c-0.4,0.2-0.7,0.5-1,0.7c-0.1,0.1-0.2,0.3-0.3,0.4c0,0.1,0,0,0,0c0,0,0,0.1,0,0.2l0,0.1l0,0c0,0,0,0.1,0-0.1
			c0,0.1,0.1,0.4,0.3,0.6c0.2,0.3,0.6,0.5,1,0.8c0.8,0.5,1.6,0.8,2.5,1.2c1.8,0.7,3.7,1.2,5.6,1.6c3.8,0.9,7.6,1.4,11.3,1.7
			c7.4,0.6,14.4,0.4,20.3-0.4c5.9-0.7,10.7-1.9,13.8-3.1c1.5-0.6,2.6-1.3,3.1-1.8c0.2-0.3,0.2-0.4,0.3-0.4c0-0.2,0-0.3,0-0.3
			L484.3,150.2z"/>
	</g>
</g>
<g>
	<path fill="#CCCCCC" stroke="#333333" stroke-width="2" stroke-miterlimit="10" d="M485.7,122.5c0-3.6-13.7-6.5-30.5-6.5
		c-16.8,0-30.5,2.9-30.5,6.5V142c0,3.6,13.7,6.5,30.5,6.5c16.8,0,30.5-2.9,30.5-6.5V122.5z"/>
	<g>
		<ellipse fill="#CCCCCC" cx="455.3" cy="122.5" rx="30" ry="6.5"/>
		<path fill="#333333" d="M486.3,122.7c0,0,0,0.1-0.1,0.4c-0.1,0.5-0.4,1-0.8,1.4c-0.8,0.9-2.2,1.6-3.9,2.2
			c-3.4,1.2-8.4,1.9-14.4,2.3c-3,0.2-6.2,0.3-9.6,0.3c-3.4,0-7,0-10.8-0.2c-3.7-0.1-7.6-0.4-11.5-1c-2-0.3-3.9-0.7-5.9-1.3
			c-1-0.3-2-0.7-2.9-1.2c-0.5-0.3-1-0.6-1.4-1.1c-0.2-0.2-0.4-0.5-0.6-0.8c-0.1-0.2-0.1-0.4-0.2-0.5c0-0.1,0-0.2-0.1-0.3l0-0.2
			l0-0.1c0-0.1,0,0.1,0-0.2c0-0.1,0-0.2,0.1-0.4c0.1-0.2,0.1-0.5,0.2-0.6c0.2-0.3,0.4-0.6,0.6-0.8c0.4-0.5,0.9-0.8,1.4-1.1
			c1-0.6,1.9-1,2.9-1.3c1.9-0.7,3.9-1.1,5.9-1.5c3.9-0.8,7.8-1.2,11.5-1.4c3.7-0.2,7.4-0.4,10.8-0.3c3.4,0.1,6.7,0.3,9.7,0.6
			c6,0.6,11,1.6,14.4,2.8c1.7,0.6,3,1.4,3.9,2.3c0.4,0.4,0.7,1,0.8,1.3c0.1,0.4,0.1,0.6,0.1,0.6L486.3,122.7z M484.3,122.5
			c0,0,0.1-0.1-0.3-0.6c-0.4-0.5-1.5-1.2-3.1-1.7c-3.1-1.1-8-2.1-13.8-2.6c-2.9-0.3-6.1-0.4-9.5-0.5c-3.4,0-7,0-10.6,0.2
			c-3.7,0.2-7.5,0.6-11.3,1.3c-1.9,0.4-3.8,0.8-5.6,1.4c-0.9,0.3-1.8,0.7-2.5,1.1c-0.4,0.2-0.7,0.5-1,0.7c-0.1,0.1-0.2,0.3-0.3,0.4
			c0,0.1,0,0,0,0c0,0.1,0,0.2,0,0.3c0-0.2,0-0.1,0-0.1l0,0l0,0c0,0,0,0,0,0.1c0,0,0,0.1,0.1,0.1c0.1,0.1,0.1,0.2,0.3,0.4
			c0.2,0.3,0.6,0.5,1,0.8c0.8,0.5,1.6,0.8,2.5,1.2c1.8,0.7,3.7,1.2,5.6,1.6c3.8,0.9,7.6,1.4,11.3,1.7c7.4,0.6,14.4,0.4,20.3-0.4
			c5.9-0.7,10.7-1.9,13.8-3.1c1.5-0.6,2.6-1.3,3.1-1.8c0.2-0.3,0.2-0.4,0.3-0.4c0-0.2,0-0.3,0-0.3L484.3,122.5z"/>
	</g>
</g>
<g>
	<text transform="matrix(1 0 0 1 329.7721 143.3058)" fill="#333333" font-family="'KievitOT-Bold'" font-size="18px">M 8</text>
	<text transform="matrix(1 0 0 1 329.7718 170.9725)" fill="#333333" font-family="'KievitOT-Bold'" font-size="18px">M 9</text>
	<text transform="matrix(1 0 0 1 329.7718 224.6878)" fill="#333333" font-family="'KievitOT-Bold'" font-size="18px">M 11</text>
	<text transform="matrix(1 0 0 1 329.7721 197.3543)" fill="#333333" font-family="'KievitOT-Bold'" font-size="18px">M 10</text>
</g>
<g>
	<text transform="matrix(1 0 0 1 440.2721 143.3058)" fill="#333333" font-family="'KievitOT-Bold'" font-size="18px">M 12</text>
	<text transform="matrix(1 0 0 1 440.2718 170.9725)" fill="#333333" font-family="'KievitOT-Bold'" font-size="18px">M 13</text>
	<text transform="matrix(1 0 0 1 440.2718 224.6878)" fill="#333333" font-family="'KievitOT-Bold'" font-size="18px">M 15</text>
	<text transform="matrix(1 0 0 1 440.2721 197.3543)" fill="#333333" font-family="'KievitOT-Bold'" font-size="18px">M 14</text>
</g>
<g>
	<path fill="none" stroke="#333333" stroke-width="3" stroke-miterlimit="10" d="M209.5,338.2c0,1.1-0.9,2-2,2h-138
		c-1.1,0-2-0.9-2-2v-51c0-1.1,0.9-2,2-2h138c1.1,0,2,0.9,2,2V338.2z"/>
</g>
<g>
	<g>
		<line fill="none" stroke="#00B9BE" stroke-width="2" stroke-miterlimit="10" x1="81.2" y1="272.8" x2="81.2" y2="174.7"/>
		<g>
			<polygon fill="#00B9BE" points="81.2,284.1 87.7,268.2 81.2,271.9 74.7,268.2 			"/>
		</g>
	</g>
</g>
<g>
	<g>
		<line fill="none" stroke="#FFC425" stroke-width="2" stroke-miterlimit="10" x1="193.1" y1="273" x2="193.1" y2="174.7"/>
		<g>
			<polygon fill="#FFC425" points="193.1,284.3 199.6,268.4 193.1,272.2 186.6,268.4 			"/>
		</g>
	</g>
</g>
<g>
	<g>
		<line fill="none" stroke="#71AB0F" stroke-width="2" stroke-miterlimit="10" x1="305.8" y1="272.8" x2="305.8" y2="174.7"/>
		<g>
			<polygon fill="#71AB0F" points="305.8,284.1 312.3,268.2 305.8,271.9 299.3,268.2 			"/>
		</g>
	</g>
</g>
<g>
	<g>
		<line fill="none" stroke="#333333" stroke-width="2" stroke-miterlimit="10" x1="415.7" y1="272" x2="415.7" y2="174.7"/>
		<g>
			<polygon fill="#333333" points="415.7,283.3 422.2,267.4 415.7,271.2 409.2,267.4 			"/>
		</g>
	</g>
</g>
<line fill="none" stroke="#A28FCA" stroke-width="4" stroke-miterlimit="10" x1="159.3" y1="259.7" x2="159.3" y2="121"/>
<line fill="none" stroke="#00ACE0" stroke-width="4" stroke-miterlimit="10" x1="272" y1="171" x2="272" y2="91.2"/>
<line fill="none" stroke="#CC2A2E" stroke-width="2" stroke-miterlimit="10" x1="383.8" y1="171" x2="383.8" y2="110"/>
<g>
	<g>
		<line fill="none" stroke="#7F7F7F" stroke-width="2" stroke-miterlimit="10" x1="495.3" y1="171" x2="495.3" y2="73.5"/>
		<g>
			<polygon fill="#7F7F7F" points="495.3,62.2 501.8,78.1 495.3,74.4 488.8,78.1 			"/>
		</g>
	</g>
</g>
<g>
	<g>
		<path fill="#FFFFFF" d="M431.6,337.1c0,1.4-0.3,2.5-0.7,2.5h-70.5c-0.4,0-0.7-1.1-0.7-2.5v-49c0-1.4,0.3-2.5,0.7-2.5h70.5
			c0.4,0,0.7,1.1,0.7,2.5V337.1z"/>
		<path fill="#FFFFFF" d="M431.6,337.1c0,1.4-0.3,2.5-0.7,2.5h-70.5c-0.4,0-0.7-1.1-0.7-2.5v-49c0-1.4,0.3-2.5,0.7-2.5h70.5
			c0.4,0,0.7,1.1,0.7,2.5V337.1z"/>
	</g>
	<g>
		<path fill="#C6DD9F" d="M360.8,337.1c0,1.4-0.3,2.5-0.7,2.5h-69.5c-0.4,0-0.7-1.1-0.7-2.5v-49c0-1.4,0.3-2.5,0.7-2.5h69.5
			c0.4,0,0.7,1.1,0.7,2.5V337.1z"/>
		<path fill="#C6DD9F" d="M360.8,337.1c0,1.4-0.3,2.5-0.7,2.5h-69.5c-0.4,0-0.7-1.1-0.7-2.5v-49c0-1.4,0.3-2.5,0.7-2.5h69.5
			c0.4,0,0.7,1.1,0.7,2.5V337.1z"/>
	</g>
	<text transform="matrix(1 0 0 1 298.5752 307.0946)"><tspan x="0" y="0" fill="#333333" font-family="'KievitOT-Bold'" font-size="21px">Sync Gateway</tspan><tspan x="0" y="25.2" fill="#333333" font-family="'KievitOT-Bold'" font-size="21px">CI Writer     4</tspan></text>
	<g>
		<path fill="none" stroke="#333333" stroke-width="3" stroke-miterlimit="10" d="M432.5,338.2c0,1.1-0.9,2-2,2h-138
			c-1.1,0-2-0.9-2-2v-51c0-1.1,0.9-2,2-2h138c1.1,0,2,0.9,2,2V338.2z"/>
	</g>
</g>
<g>
	<g>
		<line fill="none" stroke="#CC2A2E" stroke-width="2" stroke-miterlimit="10" x1="383.1" y1="110.9" x2="425.8" y2="69.7"/>
		<g>
			<polygon fill="#CC2A2E" points="434,61.8 427,77.6 425.2,70.3 418,68.2 			"/>
		</g>
	</g>
</g>
<g>
	<g>
		<line fill="none" stroke="#A28FCA" stroke-width="4" stroke-miterlimit="10" x1="147.3" y1="273.2" x2="159.6" y2="258.5"/>
		<g>
			<polygon fill="#A28FCA" points="138.2,284.1 157.2,274 148,272.4 144.8,263.6 			"/>
		</g>
	</g>
</g>
<g>
	<g>
		<line fill="none" stroke="#CCCCCC" stroke-width="4" stroke-miterlimit="10" x1="159.3" y1="121.5" x2="159.3" y2="119.5"/>
		
			<line fill="none" stroke="#CCCCCC" stroke-width="4" stroke-miterlimit="10" stroke-dasharray="3.774,3.774" x1="159.3" y1="115.7" x2="159.3" y2="79.9"/>
		<line fill="none" stroke="#CCCCCC" stroke-width="4" stroke-miterlimit="10" x1="159.3" y1="78" x2="159.3" y2="76"/>
		<g>
			<polygon fill="#CCCCCC" points="159.3,61.8 167.5,81.7 159.3,77 151.2,81.7 			"/>
		</g>
	</g>
</g>
<g>
	<g>
		<line fill="none" stroke="#CCCCCC" stroke-width="4" stroke-miterlimit="10" x1="272" y1="92.2" x2="272" y2="90.2"/>
		
			<line fill="none" stroke="#CCCCCC" stroke-width="4" stroke-miterlimit="10" stroke-dasharray="4.0654,4.0654" x1="272" y1="86.1" x2="272" y2="80"/>
		<line fill="none" stroke="#CCCCCC" stroke-width="4" stroke-miterlimit="10" x1="272" y1="78" x2="272" y2="76"/>
		<g>
			<polygon fill="#CCCCCC" points="272,61.8 280.1,81.7 272,77 263.9,81.7 			"/>
		</g>
	</g>
</g>
<g>
	<g>
		<line fill="none" stroke="#00ACE0" stroke-width="4" stroke-miterlimit="10" x1="271.5" y1="94.2" x2="354.5" y2="36.9"/>
		<g>
			<polygon fill="#00ACE0" points="366.2,28.9 354.4,46.9 353.7,37.5 345.2,33.5 			"/>
		</g>
	</g>
</g>
<g>
	<g>
		<circle fill="#FF8900" cx="72.4" cy="105.9" r="18.8"/>
	</g>
	<text transform="matrix(1 0 0 1 66.0776 114.0618)" fill="#FFFFFF" font-family="'KievitOT-Bold'" font-size="36px">1</text>
</g>
<g>
	<g>
		<circle fill="#FF8900" cx="115.9" cy="29.7" r="18.8"/>
	</g>
	<text transform="matrix(1 0 0 1 106.6038 37.8579)" fill="#FFFFFF" font-family="'KievitOT-Bold'" font-size="36px">2</text>
</g>
<g>
	<g>
		<circle fill="#FF8900" cx="346.3" cy="74" r="18.8"/>
	</g>
	<text transform="matrix(1 0 0 1 338.9822 79.1918)" fill="#FFFFFF" font-family="'KievitOT-Bold'" font-size="36px">3</text>
</g>
<text transform="matrix(1 0 0 1 12.6935 130.2658)"><tspan x="0" y="0" fill="#333333" font-family="'KievitOT-Bold'" font-size="18px">App</tspan><tspan x="0" y="21.6" fill="#333333" font-family="'KievitOT-Bold'" font-size="18px">data</tspan><tspan x="0" y="43.2" fill="#333333" font-family="'KievitOT-Bold'" font-size="18px">bucket</tspan></text>
</svg>
